<?xml version="1.0" encoding="UTF-8" standalone="no"?>
<!-- Created with Inkscape (http://www.inkscape.org/) -->

<svg
   width="92mm"
   height="22mm"
   viewBox="0 0 92 22"
   version="1.1"
   id="svg5"
   inkscape:export-filename="/home/inghas/Documents/header.png"
   inkscape:export-xdpi="96"
   inkscape:export-ydpi="96"
   inkscape:version="1.1.2 (08b2f3d93c, 2022-04-05)"
   sodipodi:docname="TelenetLogoT2.svg"
   xmlns:inkscape="http://www.inkscape.org/namespaces/inkscape"
   xmlns:sodipodi="http://sodipodi.sourceforge.net/DTD/sodipodi-0.dtd"
   xmlns="http://www.w3.org/2000/svg"
   xmlns:svg="http://www.w3.org/2000/svg">
  <sodipodi:namedview
     id="namedview7"
     pagecolor="#070000"
     bordercolor="#666666"
     borderopacity="1.0"
     inkscape:pageshadow="2"
     inkscape:pageopacity="0"
     inkscape:pagecheckerboard="0"
     inkscape:document-units="mm"
     showgrid="false"
     inkscape:zoom="2.1921501"
     inkscape:cx="174.9424"
     inkscape:cy="85.532464"
     inkscape:window-width="1848"
     inkscape:window-height="1016"
     inkscape:window-x="72"
     inkscape:window-y="27"
     inkscape:window-maximized="1"
     inkscape:current-layer="layer3"
     showguides="false"
     width="100mm">
    <inkscape:grid
       type="xygrid"
       id="grid20323" />
  </sodipodi:namedview>
  <defs
     id="defs2" />
  <g
     inkscape:groupmode="layer"
     id="layer9"
     inkscape:label="logotipo"
     style="display:inline">
    <path
       id="text72487"
       style="font-size:6.35px;line-height:0;font-family:'Ava Meridian';-inkscape-font-specification:'Ava Meridian';font-variant-ligatures:none;white-space:pre;inline-size:83.7271;fill:#fffffa;fill-opacity:1;stroke-width:0.999999"
       d="m 134.56641,17.609375 v 15 h 3.51562 v -15 z m 52.05468,0 v 12 c 0,0.828125 0.33594,1.539063 1.00782,2.132813 0.6875,0.578124 1.52343,0.867187 2.50781,0.867187 h 3.51562 v -3 h -1.75781 c -0.48437,0 -0.90625,-0.140625 -1.26562,-0.421875 -0.32813,-0.296875 -0.49219,-0.65625 -0.49219,-1.078125 v -4.5 h 3.51562 v -3 h -3.51562 v -3 z m 29.34375,0 v 1.5 h 3.51563 v -1.5 z m 20.74219,0 v 1.5 h 3.51563 v -1.5 z m 5.08594,0 v 12 c 0,0.828125 0.33594,1.539063 1.00781,2.132813 0.6875,0.578124 1.52344,0.867187 2.50781,0.867187 h 3.51563 v -3 h -1.75781 c -0.48438,0 -0.90625,-0.140625 -1.26563,-0.421875 -0.32812,-0.296875 -0.49219,-0.65625 -0.49219,-1.078125 v -4.5 h 3.51563 v -3 h -3.51563 v -3 z m 24.25781,0 v 15 h 3.51563 v -15 z m -162.79687,3 v 3 h 5.27343 v 9 h 3.51563 v -9 h 5.27344 v -3 z m 19.17187,0 c -0.98437,0 -1.82031,0.296875 -2.50781,0.890625 -0.67188,0.578125 -1.00781,1.28125 -1.00781,2.109375 v 6 c 0,0.828125 0.33593,1.539063 1.00781,2.132813 0.6875,0.578124 1.52344,0.867187 2.50781,0.867187 h 10.54688 v -3 h -10.54688 v -1.5 h 8.78906 c 0.48438,0 0.89844,-0.140625 1.24219,-0.421875 0.34375,-0.296875 0.51563,-0.65625 0.51563,-1.078125 v -3 c 0,-0.8125 -0.34375,-1.515625 -1.03125,-2.109375 -0.6875,-0.59375 -1.51563,-0.890625 -2.48438,-0.890625 z m 20.74219,0 c -0.98438,0 -1.82031,0.296875 -2.50781,0.890625 -0.67188,0.578125 -1.00782,1.28125 -1.00782,2.109375 v 6 c 0,0.828125 0.33594,1.539063 1.00782,2.132813 0.6875,0.578124 1.52343,0.867187 2.50781,0.867187 h 10.54687 v -3 h -10.54687 v -1.5 h 8.78906 c 0.48438,0 0.89844,-0.140625 1.24219,-0.421875 0.34375,-0.296875 0.51562,-0.65625 0.51562,-1.078125 v -3 c 0,-0.8125 -0.34375,-1.515625 -1.03125,-2.109375 -0.6875,-0.59375 -1.51562,-0.890625 -2.48437,-0.890625 z m 15.65625,0 c -0.98438,0 -1.82031,0.296875 -2.50781,0.890625 -0.67188,0.578125 -1.00782,1.28125 -1.00782,2.109375 v 9 h 3.51563 v -7.5 c 0,-0.40625 0.16406,-0.757813 0.49219,-1.054687 0.35937,-0.296875 0.78125,-0.445313 1.26562,-0.445313 h 3.51563 c 0.48437,0 0.89843,0.148438 1.24218,0.445313 0.34375,0.296874 0.51563,0.648437 0.51563,1.054687 v 7.5 h 3.51562 v -9 c 0,-0.8125 -0.34375,-1.515625 -1.03125,-2.109375 -0.6875,-0.59375 -1.51562,-0.890625 -2.48437,-0.890625 z m 15.65625,0 c -0.98438,0 -1.82031,0.296875 -2.50781,0.890625 -0.67188,0.578125 -1.00782,1.28125 -1.00782,2.109375 v 6 c 0,0.828125 0.33594,1.539063 1.00782,2.132813 0.6875,0.578124 1.52343,0.867187 2.50781,0.867187 h 10.54687 v -3 h -10.54687 v -1.5 h 8.78906 c 0.48438,0 0.89844,-0.140625 1.24219,-0.421875 0.34375,-0.296875 0.51562,-0.65625 0.51562,-1.078125 v -3 c 0,-0.8125 -0.34375,-1.515625 -1.03125,-2.109375 -0.6875,-0.59375 -1.51562,-0.890625 -2.48437,-0.890625 z m 25.82812,0 v 12 h 10.54688 c 0.96875,0 1.79687,-0.289063 2.48437,-0.867187 0.6875,-0.578125 1.03125,-1.289063 1.03125,-2.132813 v -6 c 0,-0.8125 -0.34375,-1.515625 -1.03125,-2.109375 -0.6875,-0.59375 -1.51562,-0.890625 -2.48437,-0.890625 z m 15.65625,0 v 12 h 3.51563 v -12 z m 8.60157,0 c -0.98438,0 -1.82032,0.296875 -2.50782,0.890625 -0.67187,0.578125 -1.00781,1.28125 -1.00781,2.109375 v 6 c 0,0.828125 0.33594,1.539063 1.00781,2.132813 0.6875,0.578124 1.52344,0.867187 2.50782,0.867187 h 7.03125 v 1.5 c 0,0.40625 -0.17188,0.757813 -0.51563,1.054687 -0.34375,0.296875 -0.75781,0.445313 -1.24219,0.445313 h 1.75782 c 0.96875,0 1.79687,-0.296875 2.48437,-0.890625 0.6875,-0.578125 1.03125,-1.28125 1.03125,-2.109375 v -9 c 0,-0.8125 -0.34375,-1.515625 -1.03125,-2.109375 -0.6875,-0.59375 -1.51562,-0.890625 -2.48437,-0.890625 z m 12.14062,0 v 12 h 3.51563 v -12 z m 13.6875,0 v 3 h 10.54688 v 1.5 h -8.78907 c -0.5,0 -0.92187,0.148438 -1.26562,0.445313 -0.32813,0.296874 -0.49219,0.648437 -0.49219,1.054687 v 3 c 0,0.828125 0.33594,1.539063 1.00781,2.132813 0.6875,0.578124 1.52344,0.867187 2.50782,0.867187 h 7.03125 c 0.96875,0 1.79687,-0.289063 2.48437,-0.867187 0.6875,-0.578125 1.03125,-1.289063 1.03125,-2.132813 v -6 c 0,-0.8125 -0.34375,-1.515625 -1.03125,-2.109375 -0.6875,-0.59375 -1.51562,-0.890625 -2.48437,-0.890625 z m 29.34375,0 c -0.98437,0 -1.82031,0.296875 -2.50781,0.890625 -0.67188,0.578125 -1.00781,1.28125 -1.00781,2.109375 v 3 c 0,0.421875 0.16406,0.78125 0.49218,1.078125 0.34375,0.28125 0.76563,0.421875 1.26563,0.421875 h 8.78906 v 1.5 h -10.54687 v 3 h 10.54687 c 0.96875,0 1.79688,-0.289063 2.48438,-0.867187 0.6875,-0.578125 1.03125,-1.289063 1.03125,-2.132813 v -3 c 0,-0.40625 -0.17188,-0.757813 -0.51563,-1.054687 -0.34375,-0.296875 -0.75781,-0.445313 -1.24219,-0.445313 h -8.78906 v -1.5 h 10.54688 v -3 z m 17.22656,0 v 3 h 10.54688 v 1.5 h -8.78906 c -0.5,0 -0.92188,0.148438 -1.26563,0.445313 -0.32812,0.296874 -0.49219,0.648437 -0.49219,1.054687 v 3 c 0,0.828125 0.33594,1.539063 1.00782,2.132813 0.6875,0.578124 1.52343,0.867187 2.50781,0.867187 h 7.03125 c 0.96875,0 1.79687,-0.289063 2.48437,-0.867187 0.6875,-0.578125 1.03125,-1.289063 1.03125,-2.132813 v -6 c 0,-0.8125 -0.34375,-1.515625 -1.03125,-2.109375 -0.6875,-0.59375 -1.51562,-0.890625 -2.48437,-0.890625 z m 24.25782,0 c -0.98438,0 -1.82032,0.296875 -2.50782,0.890625 -0.67187,0.578125 -1.00781,1.28125 -1.00781,2.109375 v 3 c 0,0.421875 0.16406,0.78125 0.49219,1.078125 0.34375,0.28125 0.76562,0.421875 1.26562,0.421875 h 8.78907 v 1.5 h -10.54688 v 3 h 10.54688 c 0.96875,0 1.79687,-0.289063 2.48437,-0.867187 0.6875,-0.578125 1.03125,-1.289063 1.03125,-2.132813 v -3 c 0,-0.40625 -0.17187,-0.757813 -0.51562,-1.054687 -0.34375,-0.296875 -0.75782,-0.445313 -1.24219,-0.445313 h -8.78906 v -1.5 h 10.54687 v -3 z m -198.79688,3 h 7.03125 v 1.5 h -7.03125 z m 20.74219,0 h 7.03125 v 1.5 h -7.03125 z m 31.3125,0 h 7.03125 v 1.5 h -7.03125 z m 29.34375,0 h 5.27344 c 0.48437,0 0.89843,0.148438 1.24218,0.445313 0.34375,0.296874 0.51563,0.648437 0.51563,1.054687 v 3 c 0,0.421875 -0.17188,0.78125 -0.51563,1.078125 -0.34375,0.28125 -0.75781,0.421875 -1.24218,0.421875 h -5.27344 z m 22.5,0 h 3.51562 c 0.48438,0 0.89844,0.148438 1.24219,0.445313 0.34375,0.296874 0.51563,0.648437 0.51563,1.054687 v 3 c 0,0.421875 -0.17188,0.78125 -0.51563,1.078125 -0.34375,0.28125 -0.75781,0.421875 -1.24219,0.421875 h -3.51562 c -0.48438,0 -0.90625,-0.140625 -1.26563,-0.421875 -0.32812,-0.296875 -0.49218,-0.65625 -0.49218,-1.078125 v -3 c 0,-0.40625 0.16406,-0.757813 0.49218,-1.054687 0.35938,-0.296875 0.78125,-0.445313 1.26563,-0.445313 z m 27.58594,4.5 h 7.03125 v 1.5 h -7.03125 z m 46.57031,0 h 7.03125 v 1.5 h -7.03125 z m -8.60156,1.5 v 3 h 3.51562 v -3 z m 20.74218,0 v 3 h 3.51563 v -3 z m 20.74219,0 v 3 h 3.51563 v -3 z"
       transform="scale(0.26458333)" />
    <rect
       style="fill:#ffffff;fill-opacity:0.985304;stroke:none;stroke-width:0.529167;stroke-dasharray:4.23333, 0.529167;paint-order:stroke fill markers"
       id="rect76341"
       width="64.013351"
       height="0.28284168"
       x="25.762484"
       y="9.3325243" />
    <text
       xml:space="preserve"
       style="font-size:37.0417px;line-height:1.25;font-family:'Ava Meridian';-inkscape-font-specification:'Ava Meridian';font-variant-ligatures:none;stroke-width:0.264583"
       x="46.259487"
       y="13.3807"
       id="text95167"><tspan
         sodipodi:role="line"
         id="tspan95165"
         style="stroke-width:0.264583"
         x="46.259487"
         y="13.3807" /></text>
    <path
       id="text98603"
       style="font-size:4.23333px;line-height:1.25;font-family:'Ava Meridian';-inkscape-font-specification:'Ava Meridian';font-variant-ligatures:none;fill:#ffffff;fill-opacity:1;stroke-width:0.812391"
       d="m 188.8125,37.353516 v 1.820312 h 1.4375 v -1.820312 z m 13.24219,0 v 1.820312 h 1.4375 v -1.820312 z m 82.57031,0 v 4.734375 c -0.30208,-0.520833 -0.6849,-0.906251 -1.14844,-1.15625 -0.45833,-0.255208 -1.01041,-0.382813 -1.65625,-0.382813 -1.05729,0 -1.91927,0.421876 -2.58593,1.265625 -0.66146,0.843749 -0.99219,1.953126 -0.99219,3.328125 0,1.374999 0.33073,2.484376 0.99219,3.328125 0.66666,0.843749 1.52864,1.265625 2.58593,1.265625 0.64584,0 1.19792,-0.125 1.65625,-0.375 0.46354,-0.255208 0.84636,-0.643229 1.14844,-1.164062 v 1.3125 h 1.4375 v -12.15625 z m -157.09375,0.492187 v 7.28125 c 0,1.520832 0.375,2.669272 1.125,3.445313 0.75521,0.776041 1.86979,1.164062 3.34375,1.164062 1.46875,0 2.57813,-0.388021 3.32812,-1.164062 0.75521,-0.776041 1.13282,-1.924481 1.13282,-3.445313 v -7.28125 H 134.875 v 7.085938 c 0,1.249999 -0.22656,2.151042 -0.67969,2.703125 -0.45312,0.546874 -1.18489,0.820312 -2.19531,0.820312 -1.01562,0 -1.75,-0.273438 -2.20312,-0.820312 -0.45313,-0.552083 -0.67969,-1.453126 -0.67969,-2.703125 v -7.085938 z m 135.25,0.429688 v 2.484375 h -1.05469 v 1.117187 h 1.05469 v 4.75 c 0,1.093749 0.21094,1.848959 0.63281,2.265625 0.42188,0.411458 1.1875,0.617188 2.29688,0.617188 h 1.47656 v -1.203125 h -1.47656 c -0.59896,0 -0.9974,-0.101563 -1.19532,-0.304688 -0.1927,-0.203125 -0.28906,-0.661459 -0.28906,-1.375 v -4.75 h 2.96094 v -1.117187 h -2.96094 v -2.484375 z m -119.20313,2.273437 c -0.60937,0 -1.14843,0.130209 -1.61718,0.390625 -0.46354,0.260417 -0.86719,0.653646 -1.21094,1.179688 v -1.359375 h -1.44531 v 8.75 H 140.75 v -4.945313 c 0,-0.854166 0.22396,-1.528646 0.67188,-2.023437 0.44791,-0.494792 1.05989,-0.742188 1.83593,-0.742188 0.64584,0 1.13021,0.20573 1.45313,0.617188 0.32291,0.411458 0.48437,1.03125 0.48437,1.859375 v 5.234375 h 1.4375 v -5.28125 c 0,-1.208333 -0.25781,-2.122397 -0.77343,-2.742188 -0.51563,-0.624999 -1.27605,-0.9375 -2.28126,-0.9375 z m 13.78907,0 c -1.07292,0 -1.90104,0.223959 -2.48438,0.671875 -0.58333,0.447916 -0.875,1.083334 -0.875,1.90625 0,0.677083 0.19792,1.210938 0.59375,1.601563 0.39584,0.385416 1.03907,0.671875 1.92969,0.859375 l 0.5,0.117187 c 0.89062,0.192708 1.46615,0.393229 1.72656,0.601563 0.26563,0.208333 0.39844,0.507812 0.39844,0.898437 0,0.421875 -0.18229,0.75 -0.54687,0.984375 -0.36459,0.229167 -0.88542,0.34375 -1.5625,0.34375 -0.50521,0 -1.01563,-0.06771 -1.53126,-0.203125 -0.51562,-0.140625 -1.03906,-0.348958 -1.57031,-0.625 v 1.484375 c 0.5625,0.182292 1.09636,0.317709 1.60157,0.40625 0.51041,0.09375 1,0.140625 1.46874,0.140625 1.125,0 2.00782,-0.236979 2.64844,-0.710937 0.64584,-0.473958 0.96875,-1.117189 0.96875,-1.929688 0,-0.713541 -0.21614,-1.268229 -0.64843,-1.664062 -0.42709,-0.401042 -1.15105,-0.710938 -2.17188,-0.929688 l -0.49219,-0.109375 c -0.77083,-0.171875 -1.28385,-0.351563 -1.53906,-0.539062 -0.25521,-0.192709 -0.38281,-0.45573 -0.38281,-0.789063 0,-0.4375 0.17708,-0.765625 0.53125,-0.984375 0.35937,-0.21875 0.89583,-0.328125 1.60937,-0.328125 0.46875,0 0.92188,0.05208 1.35938,0.15625 0.4375,0.104167 0.85937,0.260417 1.26562,0.46875 v -1.359375 c -0.39583,-0.15625 -0.82812,-0.273437 -1.29687,-0.351562 -0.46875,-0.07813 -0.96875,-0.117188 -1.5,-0.117188 z m 9.21875,0 c -1.3125,0 -2.35677,0.421876 -3.13282,1.265625 -0.77083,0.838541 -1.15624,1.97396 -1.15624,3.40625 -10e-6,1.385416 0.40625,2.484376 1.21874,3.296875 0.81771,0.812499 1.92449,1.21875 3.32032,1.21875 0.55729,0 1.10677,-0.05729 1.64844,-0.171875 0.54166,-0.114583 1.07031,-0.28125 1.58593,-0.5 v -1.359375 c -0.51041,0.270833 -1.02604,0.473959 -1.54687,0.609375 -0.51563,0.135417 -1.04948,0.203125 -1.60156,0.203125 -0.95313,0 -1.69792,-0.257813 -2.23438,-0.773437 -0.53125,-0.520833 -0.82813,-1.276043 -0.89062,-2.265625 h 6.60937 v -0.703125 c 0,-1.302083 -0.34375,-2.33073 -1.03125,-3.085938 -0.68229,-0.760416 -1.61198,-1.140625 -2.78906,-1.140625 z m 10.51562,0 c -0.69271,0 -1.28125,0.130209 -1.76562,0.390625 -0.48438,0.255208 -0.87761,0.648438 -1.17969,1.179688 v -1.359375 h -1.44531 v 8.75 h 1.44531 v -4.609375 c 0,-0.989583 0.21615,-1.747397 0.64844,-2.273438 0.4375,-0.531249 1.0625,-0.796875 1.875,-0.796875 0.22916,0 0.4375,0.02344 0.625,0.07031 0.19271,0.04167 0.36979,0.109375 0.53125,0.203125 l -0.008,-1.476563 c -0.14583,-0.02604 -0.27864,-0.04427 -0.39843,-0.05469 -0.11979,-0.01563 -0.22917,-0.02344 -0.32813,-0.02344 z m 19.92969,0 c -1.36458,0 -2.4401,0.408855 -3.22656,1.226563 -0.78125,0.817707 -1.17188,1.940105 -1.17188,3.367187 0,1.406249 0.38802,2.523438 1.16407,3.351563 0.77604,0.828124 1.82291,1.242187 3.14062,1.242187 0.48437,0 0.9401,-0.04687 1.36719,-0.140625 0.43229,-0.09375 0.84896,-0.234375 1.25,-0.421875 v -1.328125 c -0.40625,0.223958 -0.81511,0.393229 -1.22657,0.507813 -0.40624,0.109375 -0.8177,0.164062 -1.23437,0.164062 -0.93229,0 -1.65625,-0.294271 -2.17187,-0.882812 -0.51563,-0.59375 -0.77344,-1.42448 -0.77344,-2.492188 0,-1.067707 0.25781,-1.895834 0.77344,-2.484375 0.51562,-0.593749 1.23958,-0.890625 2.17187,-0.890625 0.41667,0 0.82813,0.05729 1.23437,0.171875 0.41146,0.109375 0.82032,0.276042 1.22657,0.5 v -1.34375 c -0.39584,-0.182291 -0.80469,-0.317708 -1.22657,-0.40625 -0.42187,-0.09375 -0.85416,-0.140625 -1.29687,-0.140625 z m 12.85937,0 c -1.2552,0 -2.23958,0.406251 -2.95312,1.21875 -0.70833,0.812499 -1.0625,1.937501 -1.0625,3.375 0,1.432291 0.35417,2.557292 1.0625,3.375 0.71354,0.812499 1.69792,1.21875 2.95312,1.21875 1.25,0 2.23178,-0.406251 2.94532,-1.21875 0.71354,-0.817708 1.07031,-1.942709 1.07031,-3.375 0,-1.437499 -0.35677,-2.562501 -1.07031,-3.375 -0.71354,-0.812499 -1.69532,-1.21875 -2.94532,-1.21875 z m 15.67188,0 c -0.64062,0 -1.19271,0.127605 -1.65625,0.382813 -0.45833,0.249999 -0.83854,0.635417 -1.14063,1.15625 v -1.328125 h -1.44531 v 12.078125 h 1.44531 v -4.640625 c 0.30209,0.520833 0.6823,0.908854 1.14063,1.164062 0.46354,0.25 1.01563,0.375 1.65625,0.375 1.0625,0 1.92448,-0.421876 2.58594,-1.265625 0.66666,-0.843749 1,-1.953126 1,-3.328125 0,-1.374999 -0.33334,-2.484376 -1,-3.328125 -0.66146,-0.843749 -1.52344,-1.265625 -2.58594,-1.265625 z m 9.03906,0 c -0.46875,0 -0.95052,0.05208 -1.44531,0.15625 -0.49479,0.09896 -1.00521,0.25 -1.53125,0.453125 v 1.328125 c 0.4375,-0.239583 0.89323,-0.419271 1.36719,-0.539062 0.47396,-0.119792 0.96094,-0.179688 1.46093,-0.179688 0.78646,0 1.39584,0.182292 1.82813,0.546875 0.4375,0.359375 0.65625,0.869792 0.65625,1.53125 v 0.140625 h -2.01562 c -1.3073,0 -2.29167,0.250001 -2.95313,0.75 -0.65625,0.5 -0.98438,1.242188 -0.98437,2.226563 -10e-6,0.843749 0.26302,1.518229 0.78906,2.023437 0.53125,0.5 1.24479,0.75 2.14062,0.75 0.70834,0 1.30729,-0.125 1.79688,-0.375 0.48958,-0.255208 0.89844,-0.648438 1.22656,-1.179687 v 1.328125 h 1.4375 v -4.992188 c 0,-1.333332 -0.3125,-2.328125 -0.9375,-2.984375 -0.625,-0.656249 -1.57031,-0.984375 -2.83594,-0.984375 z m 11.07032,0 c -0.69271,0 -1.28126,0.130209 -1.76563,0.390625 -0.48437,0.255208 -0.8776,0.648438 -1.17969,1.179688 v -1.359375 h -1.44531 v 8.75 h 1.44531 v -4.609375 c 0,-0.989583 0.21615,-1.747397 0.64844,-2.273438 0.4375,-0.531249 1.0625,-0.796875 1.875,-0.796875 0.22917,0 0.4375,0.02344 0.625,0.07031 0.19271,0.04167 0.36979,0.109375 0.53125,0.203125 l -0.008,-1.476563 c -0.14584,-0.02604 -0.27865,-0.04427 -0.39844,-0.05469 -0.11979,-0.01563 -0.22917,-0.02344 -0.32812,-0.02344 z m 5.3125,0 c -0.46875,0 -0.95053,0.05208 -1.44532,0.15625 -0.49479,0.09896 -1.00521,0.25 -1.53125,0.453125 v 1.328125 c 0.4375,-0.239583 0.89323,-0.419271 1.36719,-0.539062 0.47396,-0.119792 0.96094,-0.179688 1.46094,-0.179688 0.78646,0 1.39583,0.182292 1.82812,0.546875 0.4375,0.359375 0.65625,0.869792 0.65625,1.53125 v 0.140625 h -2.01562 c -1.30729,0 -2.29167,0.250001 -2.95313,0.75 -0.65625,0.5 -0.98437,1.242188 -0.98437,2.226563 0,0.843749 0.26302,1.518229 0.78906,2.023437 0.53125,0.5 1.24479,0.75 2.14063,0.75 0.70833,0 1.30729,-0.125 1.79687,-0.375 0.48958,-0.255208 0.89844,-0.648438 1.22656,-1.179687 v 1.328125 h 1.4375 v -4.992188 c 0,-1.333332 -0.3125,-2.328125 -0.9375,-2.984375 -0.625,-0.656249 -1.57031,-0.984375 -2.83593,-0.984375 z m 21.48437,0 c -1.25521,0 -2.23958,0.406251 -2.95313,1.21875 -0.70833,0.812499 -1.0625,1.937501 -1.0625,3.375 0,1.432291 0.35417,2.557292 1.0625,3.375 0.71355,0.812499 1.69792,1.21875 2.95313,1.21875 1.25,0 2.23177,-0.406251 2.94531,-1.21875 0.71354,-0.817708 1.07031,-1.942709 1.07032,-3.375 -10e-6,-1.437499 -0.35678,-2.562501 -1.07032,-3.375 -0.71354,-0.812499 -1.69531,-1.21875 -2.94531,-1.21875 z m 19.94531,0 c -1.2552,0 -2.23958,0.406251 -2.95312,1.21875 -0.70834,0.812499 -1.0625,1.937501 -1.0625,3.375 0,1.432291 0.35416,2.557292 1.0625,3.375 0.71354,0.812499 1.69792,1.21875 2.95312,1.21875 1.25,0 2.23177,-0.406251 2.94532,-1.21875 0.71354,-0.817708 1.07031,-1.942709 1.07031,-3.375 0,-1.437499 -0.35677,-2.562501 -1.07031,-3.375 -0.71355,-0.812499 -1.69532,-1.21875 -2.94532,-1.21875 z m 9.17969,0 c -1.07292,0 -1.90104,0.223959 -2.48437,0.671875 -0.58334,0.447916 -0.875,1.083334 -0.875,1.90625 0,0.677083 0.19791,1.210938 0.59374,1.601563 0.39584,0.385416 1.03907,0.671875 1.92969,0.859375 l 0.5,0.117187 c 0.89063,0.192708 1.46615,0.393229 1.72657,0.601563 0.26562,0.208333 0.39843,0.507812 0.39843,0.898437 0,0.421875 -0.18229,0.75 -0.54687,0.984375 -0.36459,0.229167 -0.88542,0.34375 -1.5625,0.34375 -0.50521,0 -1.01563,-0.06771 -1.53125,-0.203125 -0.51563,-0.140625 -1.03907,-0.348958 -1.57031,-0.625 v 1.484375 c 0.56249,0.182292 1.09635,0.317709 1.60156,0.40625 0.51041,0.09375 1,0.140625 1.46875,0.140625 1.125,0 2.00781,-0.236979 2.64843,-0.710937 0.64584,-0.473958 0.96876,-1.117189 0.96876,-1.929688 0,-0.713541 -0.21615,-1.268229 -0.64844,-1.664062 -0.42709,-0.401042 -1.15105,-0.710938 -2.17188,-0.929688 l -0.49218,-0.109375 c -0.77084,-0.171875 -1.28386,-0.351563 -1.53907,-0.539062 -0.25521,-0.192709 -0.38281,-0.45573 -0.38281,-0.789063 0,-0.4375 0.17708,-0.765625 0.53125,-0.984375 0.35937,-0.21875 0.89583,-0.328125 1.60937,-0.328125 0.46875,0 0.92188,0.05208 1.35938,0.15625 0.4375,0.104167 0.85938,0.260417 1.26562,0.46875 v -1.359375 c -0.39583,-0.15625 -0.82812,-0.273437 -1.29687,-0.351562 -0.46875,-0.07813 -0.96875,-0.117188 -1.5,-0.117188 z m -123.28125,0.210938 3.28125,8.75 h 1.95313 l 3.28124,-8.75 h -1.52343 l -2.73438,7.34375 -2.73437,-7.34375 z m 10.5,0 v 8.75 h 1.4375 v -8.75 z m 13.24219,0 v 8.75 h 1.4375 v -8.75 z m 23.15625,0.992187 c 0.76041,0 1.35677,0.302084 1.78906,0.90625 0.4375,0.598958 0.65625,1.427084 0.65625,2.484375 0,1.057291 -0.21875,1.888021 -0.65625,2.492188 -0.43229,0.598957 -1.02865,0.898437 -1.78906,0.898437 -0.76042,0 -1.35938,-0.29948 -1.79688,-0.898437 -0.43229,-0.604167 -0.64843,-1.434897 -0.64844,-2.492188 0,-1.057291 0.21615,-1.885417 0.64844,-2.484375 0.4375,-0.604166 1.03646,-0.90625 1.79688,-0.90625 z m 56.96094,0 c 0.76041,0 1.35937,0.302084 1.79687,0.90625 0.4375,0.598958 0.65625,1.427084 0.65625,2.484375 0,1.057291 -0.21875,1.888021 -0.65625,2.492188 -0.4375,0.598957 -1.03646,0.898437 -1.79687,0.898437 -0.76042,0 -1.35938,-0.29948 -1.79688,-0.898437 -0.43229,-0.604167 -0.64844,-1.434897 -0.64844,-2.492188 0,-1.057291 0.21615,-1.885417 0.64844,-2.484375 0.4375,-0.604166 1.03646,-0.90625 1.79688,-0.90625 z m -115.57032,0.01563 c 0.70834,0 1.27604,0.234376 1.70313,0.703125 0.43229,0.46875 0.65364,1.096355 0.66406,1.882813 l -5.125,0.0078 c 0.0729,-0.822916 0.34896,-1.460938 0.82813,-1.914062 0.48437,-0.453125 1.1276,-0.679688 1.92968,-0.679688 z m 43.28906,0 c 0.76563,0 1.3724,0.304688 1.82032,0.914063 0.44791,0.604166 0.67187,1.42448 0.67187,2.460937 0,1.041666 -0.22396,1.864584 -0.67187,2.46875 -0.44792,0.604166 -1.05469,0.90625 -1.82032,0.90625 -0.77604,0 -1.38802,-0.29948 -1.83593,-0.898437 -0.44271,-0.604167 -0.66406,-1.429689 -0.66407,-2.476563 0,-1.046874 0.22396,-1.869792 0.67188,-2.46875 0.44792,-0.604166 1.05729,-0.90625 1.82812,-0.90625 z m 62.57813,0 c 0.76562,0 1.3724,0.304688 1.82031,0.914063 0.44792,0.604166 0.67188,1.42448 0.67188,2.460937 0,1.041666 -0.22396,1.864584 -0.67188,2.46875 -0.44791,0.604166 -1.05469,0.90625 -1.82031,0.90625 -0.77604,0 -1.38802,-0.29948 -1.83594,-0.898437 -0.44271,-0.604167 -0.66406,-1.429689 -0.66406,-2.476563 0,-1.046874 0.22396,-1.869792 0.67187,-2.46875 0.44792,-0.604166 1.0573,-0.90625 1.82813,-0.90625 z m 19.94531,0 c 0.76563,0 1.3724,0.304688 1.82032,0.914063 0.44791,0.604166 0.67187,1.42448 0.67187,2.460937 0,1.041666 -0.22396,1.864584 -0.67187,2.46875 -0.44792,0.604166 -1.05469,0.90625 -1.82032,0.90625 -0.77604,0 -1.38802,-0.29948 -1.83594,-0.898437 -0.4427,-0.604167 -0.66406,-1.429689 -0.66406,-2.476563 0,-1.046874 0.22396,-1.869792 0.67188,-2.46875 0.44791,-0.604166 1.05729,-0.90625 1.82812,-0.90625 z m -56.90625,3.34375 h 1.42969 v 0.320313 c 0,0.937499 -0.24219,1.690104 -0.72656,2.257812 -0.47917,0.5625 -1.11719,0.84375 -1.91406,0.84375 -0.57813,0 -1.03646,-0.148438 -1.375,-0.445312 -0.33334,-0.302083 -0.5,-0.708334 -0.5,-1.21875 -10e-6,-0.640625 0.22395,-1.093751 0.67187,-1.359375 0.44792,-0.265625 1.25261,-0.398438 2.41406,-0.398438 z m 16.38281,0 h 1.42969 v 0.320313 c 0,0.937499 -0.24219,1.690104 -0.72656,2.257812 -0.47917,0.5625 -1.11719,0.84375 -1.91406,0.84375 -0.57813,0 -1.03646,-0.148438 -1.375,-0.445312 -0.33334,-0.302083 -0.5,-0.708334 -0.5,-1.21875 0,-0.640625 0.22396,-1.093751 0.67187,-1.359375 0.44792,-0.265625 1.25261,-0.398438 2.41406,-0.398438 z"
       transform="scale(0.26458333)" />
  </g>
  <g
     inkscape:groupmode="layer"
     id="layer3"
     inkscape:label="logo"
     style="display:inline">
    <g
       id="g24713"
       transform="matrix(0.03504329,0,0,0.03504329,2.7274117,0.94520622)">
      <g
         id="layer2"
         inkscape:label="circle"
         style="display:inline">
        <circle
           style="display:none;fill:#0047bb;fill-opacity:0.360784;fill-rule:evenodd;stroke-width:1.09823"
           id="path3132"
           cx="283"
           cy="283"
           r="283" />
      </g>
      <g
         id="g1089"
         inkscape:label="vector copia"
         style="display:inline">
        <path
           id="path1091"
           style="fill:#ffffff;fill-opacity:1;stroke:#000011;stroke-width:1;stroke-miterlimit:4;stroke-dasharray:none;stroke-opacity:1"
           d="m 266.00977,99.904297 c -9.05365,0.04361 -18.17925,0.317223 -27.25,1.050783 -82.29197,6.65504 -156.979662,37.48161 -205.150395,84.67187 -5.423184,5.3128 -9.706313,10.04669 -9.517578,10.52149 0.188619,0.4748 10.793842,9.26139 23.568359,19.52539 l 23.226563,18.66211 12.972656,-12.46875 C 122.07173,185.13924 175.60048,163.32931 245.59375,155.96875 l 7.9707,-0.83789 -0.35547,16.28906 -0.35742,16.29102 -15.22851,2.09375 c -38.66671,5.31619 -70.09722,16.77571 -99.23438,36.17969 -13.20899,8.79657 -35.91211,29.16087 -35.91211,32.21289 0,0.6994 8.8279,8.35152 19.61719,17.00585 l 19.61719,15.73633 11.15625,-10.99609 c 21.84759,-21.53212 51.4164,-35.30999 88.34765,-41.16602 8.4043,-1.33262 11.3455,-1.40778 11.76954,-0.30273 0.31098,0.8103 0.40881,11.16061 0.21679,23 L 252.85156,283 l -8.24804,0.90234 c -24.22579,2.65032 -48.58376,10.78133 -70.14844,23.41797 -8.64795,5.06759 -9.6702,6.04215 -8.24805,7.85157 0.89289,1.13602 9.81521,11.04219 19.82813,22.01367 l 18.20507,19.94726 6.53907,-4.93359 c 3.59695,-2.71397 9.96663,-6.62686 14.15429,-8.69531 7.54203,-3.7253 23.37272,-9.10938 26.78321,-9.10938 1.48537,0 1.76953,8.47972 1.76953,52.76367 v 52.76368 l -4.125,-0.82618 c -13.85541,-2.77048 -29.94694,-10.26812 -40.51758,-18.8789 l -7.07813,-5.76563 -3.64843,4.06836 c -2.00586,2.23786 -11.32063,12.55015 -20.69922,22.91602 l -17.05078,18.84765 3.0957,2.41407 c 4.11572,3.20826 20.65977,12.70342 27.98828,16.06445 16.14968,7.40661 42.06742,13.80532 62.08203,15.32812 8.00043,0.60872 28.28403,1.58334 28.66797,1.68164 0.38394,-0.0983 20.66753,-1.07292 28.66797,-1.68164 20.0146,-1.5228 45.93431,-7.92151 62.08398,-15.32812 7.32851,-3.36103 16.88326,-6.9144 36.06446,-21.47461 11.80898,-10.60059 12.73234,-10.74116 18.78515,-20.78125 6.44252,-11.54174 9.8971,-18.16799 12.64649,-28.59766 0.9693,-3.67701 1.60853,-8.40598 1.9082,-13.38672 0.0999,-1.66024 0.16173,-3.34827 0.18555,-5.03515 0.0119,-0.84345 0.0151,-1.68637 0.008,-2.52539 -0.0291,-3.35609 -0.2127,-6.64694 -0.55273,-9.63672 -0.085,-0.74745 -0.18045,-1.47556 -0.28516,-2.18164 -0.10471,-0.70608 -0.21924,-1.38955 -0.34375,-2.04688 -0.12451,-0.65732 -0.25793,-1.28944 -0.40234,-1.89062 -0.16603,-0.69118 -0.34328,-1.38111 -0.53125,-2.07227 -5.82414,-21.42397 -22.07102,-42.71016 -44.13477,-57.69336 l 0.10156,0.22266 c -1.07759,-0.76781 -2.16516,-1.53017 -3.27734,-2.28125 -24.74059,-14.69566 -49.09843,-22.8282 -73.32422,-25.47852 l -8.25,-0.90234 -0.34766,-21.52539 c -0.19201,-11.83939 -0.0962,-22.1897 0.21485,-23 0.42404,-1.10505 3.36718,-1.02989 11.77148,0.30273 36.93126,5.85603 66.50008,19.6339 88.34766,41.16602 l 11.15625,10.99609 19.61523,-15.73633 c 10.78928,-8.65433 19.61719,-16.30645 19.61719,-17.00585 0,-3.05202 -22.70117,-23.41632 -35.91016,-32.21289 -29.13715,-19.40399 -60.56961,-30.8635 -99.23632,-36.17969 l -15.22852,-2.09375 -0.35547,-16.29102 -0.35742,-16.28906 7.9707,0.83789 c 69.99328,7.36056 123.52204,29.17049 161.73438,65.89844 l 12.97265,12.46875 23.22657,-18.66211 c 12.77452,-10.264 23.38169,-19.05059 23.57031,-19.52539 0.18873,-0.4748 -4.09439,-5.20869 -9.51758,-10.52149 -48.17073,-47.19026 -122.86038,-78.01683 -205.15234,-84.67187 -14.51322,-1.173702 -29.1653,-1.168202 -43.44141,-0.93164 -5.35354,-0.08871 -10.75922,-0.145308 -16.1914,-0.119143 z M 312.6875,334.39453 c 3.41049,0 19.76983,5.30876 26.78125,9.10938 7.42112,4.365 15.08516,9.51663 18.93945,13.5 22.21373,25.10804 14.70473,41.46408 3.52344,58.05273 -12.49709,14.99687 -31.51565,20.78733 -46.89062,24.03906 l -4.12305,0.82618 V 387.1582 c 0,-44.28395 0.28417,-52.76367 1.76953,-52.76367 z" />
      </g>
    </g>
  </g>
</svg>
