<?xml version="1.0" encoding="UTF-8" standalone="no"?>
<svg
   enable-background="new 0 0 720 720"
   height="600"
   viewBox="0 0 701.28 172.8"
   width="2435"
   version="1.1"
   id="svg30"
   sodipodi:docname="discovery.svg"
   inkscape:version="1.3.1 (9b9bdc1480, 2023-11-25, custom)"
   xmlns:inkscape="http://www.inkscape.org/namespaces/inkscape"
   xmlns:sodipodi="http://sodipodi.sourceforge.net/DTD/sodipodi-0.dtd"
   xmlns="http://www.w3.org/2000/svg"
   xmlns:svg="http://www.w3.org/2000/svg">
  <defs
     id="defs30" />
  <sodipodi:namedview
     id="namedview30"
     pagecolor="#ffffff"
     bordercolor="#000000"
     borderopacity="0.25"
     inkscape:showpageshadow="2"
     inkscape:pageopacity="0.0"
     inkscape:pagecheckerboard="0"
     inkscape:deskcolor="#d1d1d1"
     inkscape:zoom="0.42086996"
     inkscape:cx="493.0264"
     inkscape:cy="14.256185"
     inkscape:window-width="1680"
     inkscape:window-height="986"
     inkscape:window-x="0"
     inkscape:window-y="27"
     inkscape:window-maximized="1"
     inkscape:current-layer="svg30" />
  <radialGradient
     id="a"
     cx="66.543999"
     cy="341.509"
     gradientUnits="userSpaceOnUse"
     r="37.181"
     gradientTransform="translate(-17.361115,-267.83457)">
    <stop
       offset="0"
       stop-color="#b6e1f9"
       id="stop1" />
    <stop
       offset=".286"
       stop-color="#72a7da"
       id="stop2" />
    <stop
       offset=".592"
       stop-color="#0f6cb5"
       id="stop3" />
    <stop
       offset=".81"
       stop-color="#0a4983"
       id="stop4" />
  </radialGradient>
  <radialGradient
     id="b"
     cx="70.039001"
     cy="341.358"
     fx="38.777"
     fy="324.755"
     gradientUnits="userSpaceOnUse"
     r="35.397999"
     gradientTransform="translate(-17.361115,-267.83457)">
    <stop
       offset=".006"
       stop-color="#d2d700"
       id="stop5" />
    <stop
       offset=".114"
       stop-color="#acbb15"
       id="stop6" />
    <stop
       offset=".263"
       stop-color="#819d28"
       id="stop7" />
    <stop
       offset=".381"
       stop-color="#668c2d"
       id="stop8" />
    <stop
       offset=".453"
       stop-color="#5c862e"
       id="stop9" />
    <stop
       offset=".482"
       stop-color="#52832f"
       id="stop10" />
    <stop
       offset=".615"
       stop-color="#237732"
       id="stop11" />
    <stop
       offset=".745"
       stop-color="#007032"
       id="stop12" />
    <stop
       offset=".868"
       stop-color="#006b32"
       id="stop13" />
    <stop
       offset=".978"
       stop-color="#006a32"
       id="stop14" />
  </radialGradient>
  <path
     d="m 646.18188,143.94843 v -6.901 h -2.688 v -0.929 h 6.484 v 0.929 h -2.71 v 6.901 z m 4.484,0.001 v -7.831 h 1.598 l 1.904,5.545 0.38,1.159 c 0.094,-0.288 0.236,-0.707 0.428,-1.255 l 1.924,-5.449 h 1.432 v 7.831 h -1.024 v -6.565 l -2.338,6.565 h -0.955 l -2.323,-6.684 v 6.684 z M 67.477885,32.605429 v -16.19 h 33.628995 c 27.409,0 51.986,14.94 51.986,48.431 0,32.158 -30.408,46.154001 -47.654,46.154001 H 74.197885 c 7.665,-4.832 12.108,-9.997 13.996,-15.273001 h 17.244995 c 15.413,0 30.242,-11.719 30.242,-30.88 0,-20.328 -12.663,-33.213 -30.242,-33.213 H 84.472885 v 13.968 c -3.527,-5.416 -11.629,-11.56 -16.995,-12.997 z m 94.945995,7.331 h 16.745 v 71.064001 h -16.745 z m 82.616,7.192 -6.443,11.331 c -6.887,-5.832 -29.77,-11.331 -29.77,0.667 0,13.274 37.99,5.776 37.99,31.991 0,23.132001 -32.991,28.214001 -56.901,10.886001 l 7.47,-10.886001 c 6.776,6.777 34.324,15.551001 34.324,1 0,-14.108 -38.294,-6.193 -38.294,-31.992 0,-22.216 30.463,-27.604 51.624,-12.997 z m 64.316,14.719 c -11.219,-14.579 -38.767,-11.996 -38.767,14.33 0,25.660001 29.88,27.826001 39.322,13.747 2.11,2.11 7.762,7.623 9.886,9.747 -22.161,26.326001 -65.649,11.330001 -65.649,-23.494 0,-36.24 43.488,-49.153 65.204,-25.327 z m 52.513,-23.077 c -21.026,0 -38.073,16.604 -38.073,37.087 0,20.482 17.046,37.087001 38.073,37.087001 21.027,0 38.073,-16.605001 38.073,-37.087001 10e-4,-20.483 -17.045,-37.087 -38.073,-37.087 z m 0.528,59.817 c -12.606,0 -22.021,-9.358 -22.021,-22.827 0,-14.413 10.151,-22.827 22.021,-22.827 11.871,0 21.494,10.747 21.494,22.827 0,13.469 -9.623,22.827 -21.494,22.827 z m 38.129,-58.651 h 17.662 l 19.078,52.444 19.245,-52.444 h 17.162 l -28.992,72.064001 h -14.83 z m 74.646,35.824 c 0,38.351001 48.237,48.348001 65.844,23.91 l -9.692,-8.498 c -7.415,10.831001 -35.241,15.329001 -39.906,-9.692 h 52.569 c 4.083,-57.567 -68.815,-53.902 -68.815,-5.72 z m 16.246,-6.582 c 3.888,-22.885 33.935,-22.94 36.573,0 z m 64.871,-29.242 h 16.606 v 12.08 c 0,0 7.886,-9.97 21.745,-11.275 l 5.525,13.563 c -7.137,0 -27.271,7.542 -27.271,27.703 v 28.992001 h -16.605 z m 49.208,0 h 17.385 l 16.939,52.347 18.273,-52.347 h 16.829 c 0,0 -29.242,74.813001 -34.769,88.684001 -4.332,10.928 -10.483,15.593 -24.446,15.593 h -10.211 v -13.552 h 12.33 c 7.443,0 13.886,-19.661 13.886,-19.661 z"
     id="path15"
     style="fill:#666666"
     sodipodi:nodetypes="cccccccccccccccccccccccccccsssccsssccccccccccssccssccsccsccssscssssssccccccccsccccsccccccccscccccccccsccscc" />
  <path
     d="m 86.363885,73.673429 c 0,20.535 -16.646,37.182001 -37.18,37.182001 -20.535,0 -37.181,-16.647001 -37.181,-37.182001 0,-20.534 16.646,-37.18 37.181,-37.18 20.534,0 37.18,16.646 37.18,37.18 z"
     fill="url(#a)"
     id="path16"
     style="fill:#666666" />
  <path
     d="m 86.352885,72.806429 v -0.029 l -0.015,-0.28 -0.016,-0.071 v -0.005 l -0.027,-0.354 -0.018,-0.057 v -0.003 l -0.09,-0.567 c -0.485,0.521 -0.015,1.107 -0.118,1.654 -0.272,-0.646 -0.118,-1.435 -0.665,-1.987 a 1.24,1.24 0 0 0 -0.136,0.008 c -0.451,-0.971 -0.451,-0.971 -0.488,-1.175 0.533,-0.611 -0.065,-1.212 -0.024,-1.821 a 9.156,9.156 0 0 1 -0.268,-0.083 c -0.233,0.031 -0.238,0.031 -0.374,-0.071 -0.128,0.034 -0.238,0.11 -0.371,0.132 -0.034,-0.03 -0.074,-0.071 -0.105,-0.098 -1.028,0.064 -1.084,0.241 -1.28,0.831 -1.156,-0.393 -1.156,-0.393 -1.285,-0.627 -0.142,1.31 -0.365,1.462 -0.675,1.674 -0.877,0.593 -0.175,1.491 -0.424,2.205 0,0.005 -0.215,0.466 -0.528,0.817 -0.329,0.014 -0.397,0.019 -0.612,0.578 -0.012,0.029 -1.292,3.04 -1.681,3.185 -0.088,0.211 -0.189,0.824 -0.152,0.992 0.064,0.042 0.155,0.095 0.223,0.136 -0.159,1.542 -0.464,2.479 -1.091,3.347 0.177,0.208 0.181,0.273 0.029,0.68 -0.297,0.809 0.08,1.22 0.446,1.621 -0.038,0.084 -0.038,0.084 0.133,2.149 0.063,0.013 0.151,0.023 0.215,0.034 0.359,0.521 -0.151,1.712 0.725,1.712 0.385,0 0.691,-0.322 1.091,-0.284 0.284,0.026 0.333,0.121 0.492,0.434 0.121,-0.037 0.121,-0.037 0.888,-0.506 0.03,0.018 0.076,0.05 0.106,0.073 0.034,-0.026 0.079,-0.065 0.113,-0.091 0.02,0.008 0.02,0.008 0.668,0.011 0.33,0.401 -0.09,0.771 -0.048,1.16 0.109,0.02 0.109,0.02 0.54,-0.169 0.306,0.593 -1.021,2.545 -1.171,2.768 -0.326,0.472 -0.374,0.624 -0.476,0.952 0.008,0 0,0.015 0,0.018 0,0.008 -0.076,0.824 -0.518,1.572 -1.575,2.683 -1.575,2.683 -1.751,2.912 -1.002,1.287 -2.249,2.354 -3.302,3.593 -2.022,2.376001 -5.3,4.851001 -6.263,5.431001 -0.269,0.163 -0.458,0.281 -0.575,0.42 0.167,-0.011 0.314,-0.094 0.472,-0.123 a 0.528,0.528 0 0 1 -0.102,0.109 c 0.178,-0.076 0.42,-0.178 0.597,-0.257 1.277,-0.722 2.195,-1.247 4.042,-2.71 l 0.725,-0.601 c 2.803,-2.560001 2.803,-2.560001 4.083,-4.038001 2.346,-2.924 2.391,-2.979 3.418,-4.619 l 0.488,-0.797 c 0.69,-1.28 1.587,-3.007 2.195,-4.329 1.382,-3.631 1.382,-3.631 1.866,-5.557 0.729,-3.528 0.911,-4.522 1.102,-8.738 z m -0.193,-2.768 c 0.015,0.048 0.019,0.056 0.023,0.06 0.004,-0.004 0.004,-0.007 0.004,-0.039 -0.004,-0.037 -0.042,-0.265 -0.076,-0.312 -0.008,-0.008 -0.008,-0.008 -0.011,-0.005 0.003,0.057 0.007,0.113 0.015,0.17 0.019,0.037 0.03,0.079 0.045,0.126 z m -0.321,-2.612 a 1.513,1.513 0 0 0 -0.011,-0.066 l -0.012,-0.065 a 8.98,8.98 0 0 0 -0.033,-0.181 c -0.005,-0.016 -0.005,-0.031 -0.008,-0.042 -0.17,-0.944 -0.208,-1.092 -0.249,-1.149 0.105,0.526 0.23,1.172 0.392,1.991 -0.022,-0.164 -0.052,-0.332 -0.079,-0.488 z m -0.609,0.152 c -0.003,0.008 -0.011,0.011 -0.014,0.016 -0.094,0.052 -0.209,-0.08 -0.291,0.029 0.061,0.144 0.135,0.31 0.211,0.48 0.073,0.17 0.144,0.336 0.208,0.48 a 1.424,1.424 0 0 0 -0.011,-0.287 c -0.027,-0.239 -0.079,-0.477 -0.103,-0.718 z m -0.955,-1.05 c 0.02,-0.008 0.023,-0.053 0.023,-0.053 0,0 -0.038,-0.37 -0.102,-0.737 -0.076,-0.404 -0.147,-0.616 -0.212,-0.619 -0.053,0.014 -0.076,0.131 -0.076,0.131 0.008,0.099 0.049,0.186 0.065,0.28 0.034,0.196 0.049,0.396 0.079,0.593 0.05,0.339 0.105,0.457 0.159,0.551 -0.007,-0.098 -0.011,-0.139 0.004,-0.166 0.023,-0.007 0.034,0.031 0.06,0.02 z m -0.543,-2.633 c -0.02,0.041 -0.038,0.099 -0.057,0.139 0.057,0.185 0.068,0.382 0.129,0.567 0.037,0.121 0.071,0.167 0.114,0.201 -0.053,-0.208 -0.038,-0.424 -0.08,-0.632 a 0.935,0.935 0 0 0 -0.106,-0.275 z m -0.79,1.922 c 0.008,0.071 0.011,0.166 0.015,0.239 l 0.125,0.026 v -0.068 c -0.008,-0.065 -0.027,-0.091 -0.035,-0.102 -0.026,-0.042 -0.075,-0.061 -0.105,-0.095 z m -1.904,-10.176 a 11.506,11.506 0 0 0 -0.147,-0.247 l -0.355,-0.585 c -0.019,-0.008 -0.034,-0.011 -0.052,-0.018 0.056,0.098 0.109,0.2 0.163,0.299 l -0.129,-0.11 0.173,0.351 0.042,0.082 a 0.44,0.44 0 0 0 0.135,0.149 c -0.022,-0.005 -0.041,-0.013 -0.063,-0.02 l 0.045,0.088 c 0.034,0.011 0.068,0.019 0.098,0.03 l -0.033,-0.068 a 0.5,0.5 0 0 0 0.121,0.05 z m -0.37,-1.65 c 0.049,0.147 0.971,1.726 0.979,1.734 0.076,0.142 0.113,0.297 0.17,0.444 a 1.707,1.707 0 0 1 -0.106,-0.143 c 0.011,0.029 0.025,0.076 0.038,0.105 l -0.189,-0.307 c -0.015,0.189 0.158,0.378 -0.003,0.566 a 0.523,0.523 0 0 1 -0.087,-0.139 c -0.019,-0.008 -0.038,-0.011 -0.057,-0.019 -0.034,-0.049 -0.034,-0.049 -0.173,-0.31 0.004,0.09 0.007,0.21 0.012,0.305 -0.016,0.013 -0.038,0.031 -0.054,0.042 -0.279,-0.268 -0.733,-0.997 -0.74,-1.005 -0.042,-0.079 -0.072,-0.131 -0.114,-0.215 0.02,-0.05 0.008,-0.105 -0.064,-0.294 -0.057,-0.155 -0.064,-0.186 -0.045,-0.207 0.015,0 0.019,0 0.038,0.011 -0.303,-0.241 -0.397,-0.627 -0.62,-0.925 0,0.004 -0.007,0.012 -0.007,0.015 -0.008,0.049 -0.005,0.079 0.048,0.246 0.057,0.2 0.053,0.237 0.026,0.271 0.061,0.05 0.137,0.118 0.193,0.167 l 0.042,0.14 c -0.023,-0.004 -0.023,-0.004 -0.099,-0.095 0.102,0.208 0.238,0.488 0.335,0.695 a 0.866,0.866 0 0 1 0.148,0.158 c 0.226,0.34 0.367,0.733 0.635,1.051 a 0.301,0.301 0 0 0 -0.041,0.129 c -0.023,0 -0.054,-0.005 -0.076,-0.005 l -0.065,-0.09 c -0.063,0.155 -0.15,0.362 -0.214,0.517 0.075,0.189 0.268,0.714 0.268,0.714 a 0.722,0.722 0 0 1 -0.049,0.057 0.533,0.533 0 0 0 -0.068,-0.015 c 0.029,0.089 0.068,0.21 0.086,0.305 -0.019,0.028 -0.041,0.065 -0.06,0.091 a 0.635,0.635 0 0 0 -0.223,0.034 c 0.05,0.118 0.121,0.268 0.174,0.386 0.072,0.218 0.072,0.218 0.015,0.328 a 1.603,1.603 0 0 0 -0.173,0.06 c 0.056,0.128 0.056,0.128 0.075,0.239 -0.02,0.015 -0.041,0.034 -0.064,0.049 -0.09,-0.039 -0.09,-0.039 -0.358,-0.209 0.025,0.049 0.057,0.11 0.079,0.16 0.08,0.249 0.08,0.267 0.061,0.388 -0.223,0.076 -0.393,-0.184 -0.616,-0.094 0.026,0.196 0.079,0.359 0.128,0.519 0.366,-0.175 0.457,0.35 0.713,0.478 0.125,0.48 0.442,0.857 0.662,1.288 -0.079,0.533 0.299,1.017 0.178,1.553 -0.377,-0.189 -0.377,-0.189 -1.677,-0.548 -0.008,0.156 -0.008,0.156 -0.276,0.215 0.333,1.228 0.333,1.228 0.371,1.471 0.09,0.607 -0.193,1.242 0.135,1.831 0.11,0.321 0.148,0.635 0.182,0.948 l 0.544,0.141 c 0.271,0.166 0.083,0.581 0.389,0.729 0.321,-0.348 0.321,-0.348 0.491,-0.288 0.397,0.147 0.438,0.163 0.51,0.012 0.022,-0.046 0.022,-0.117 0.027,-0.17 0.037,-0.352 0.253,-0.653 0.276,-1.009 0.026,-0.399 -0.215,-0.774 -0.132,-1.182 0.075,-0.351 0.377,-0.566 0.51,-0.884 -0.094,-0.194 -0.377,-0.855 -0.076,-1.248 0.415,0.346 0.415,0.346 0.484,0.496 0,-0.441 0.222,-0.835 0.227,-0.839 0.135,0.034 0.324,0.076 1.17,2.374 l 0.05,-0.05 c 0.173,0.152 0.181,0.158 0.675,2.403 l 0.061,0.283 c -0.011,-0.661 -0.192,-1.304 -0.229,-1.962 0.041,0.054 0.041,0.054 0.185,0.473 -0.072,-0.502 -0.492,-0.888 -0.481,-1.417 -0.011,-0.018 -1.061,-1.887 -1.095,-2.821 l 0.087,0.026 c 0.083,0.192 0.09,0.415 0.207,0.601 l -0.026,-0.367 c 0.559,1.096 1.33,2.6 1.949,6.403 0.016,0.053 0.02,0.06 0.027,0.064 -0.007,-0.131 -0.038,-0.263 -0.03,-0.397 -0.031,-0.15 -0.031,-0.15 -0.038,-0.31 a 2.214,2.214 0 0 0 -0.03,-0.257 c -0.076,-0.284 -0.321,-1.561 -0.356,-1.722 0.023,0.063 0.041,0.124 0.06,0.189 -0.021,-0.141 -0.045,-0.322 -0.067,-0.459 0.007,0.008 0.016,0.016 0.02,0.026 -0.397,-1.971 -0.499,-2.285 -0.979,-3.762 -1.345,-3.637 -1.345,-3.637 -2.229,-5.368 l -0.449,-0.853 c -0.013,-0.02 -0.023,-0.034 -0.034,-0.054 a 103.81,103.81 0 0 0 -0.808,-1.359 l -0.004,-0.003 a 15.39,15.39 0 0 0 -0.654,-1.073 c 0.208,0.328 0.42,0.675 0.624,1.023 -0.3,-0.439 -0.318,-0.469 -0.329,-0.479 z m -0.219,1.185 a 0.297,0.297 0 0 0 0.072,0.105 c 0.075,0.095 0.155,0.192 0.163,0.155 0,-0.011 -0.008,-0.037 -0.008,-0.037 -0.016,-0.026 -0.03,-0.057 -0.045,-0.084 -0.012,-0.023 -0.022,-0.042 -0.03,-0.064 -0.163,-0.167 -0.163,-0.167 -0.178,-0.17 -0.009,10e-4 -0.02,0.004 0.026,0.095 z m 0.025,-1.28 a 2.033,2.033 0 0 0 -0.094,-0.151 c 0.068,0.17 0.262,0.483 0.424,0.729 -0.186,-0.336 -0.242,-0.439 -0.33,-0.578 z m -0.154,-0.488 c -0.026,-0.039 -0.056,-0.079 -0.082,-0.117 -0.008,-0.016 -0.013,-0.03 -0.031,-0.038 0.012,0.034 0.012,0.034 0.281,0.457 z m 0.034,0.03 a 0.233,0.233 0 0 1 -0.022,-0.042 c -0.152,-0.248 -0.307,-0.483 -0.45,-0.701 -0.012,-0.016 -0.022,-0.031 -0.035,-0.042 0.023,0.056 0.057,0.128 0.521,0.816 -0.002,-0.011 -0.01,-0.023 -0.014,-0.031 z m -2.076,2.063 c -0.013,-0.034 -0.047,-0.099 -0.047,-0.099 0,0 -0.026,-0.019 -0.063,-0.026 -0.02,0 -0.11,0.003 0.016,0.204 0.037,0.008 0.074,0.011 0.112,0.019 0.003,-0.011 0.011,-0.034 -0.018,-0.098 z m 0.981,2.596 c 0.264,0.154 0.264,0.154 0.271,0.154 0.02,-0.065 -0.011,-0.159 -0.074,-0.348 0.173,0.081 0.384,0.039 0.539,0.175 0,-0.046 0.004,-0.106 0.004,-0.155 0.064,0.04 0.151,0.038 0.201,0.108 0.03,-0.045 0.098,-0.045 0.125,-0.098 0.018,-0.044 0.011,-0.068 -0.012,-0.147 -0.122,-0.05 -0.196,-0.083 -0.223,-0.178 -0.044,-0.166 0.08,-0.321 0.038,-0.483 0,-0.007 -0.144,-0.477 -0.302,-0.472 -0.14,0.003 -0.204,-0.094 -0.204,-0.099 -0.102,-0.15 -0.147,-0.332 -0.265,-0.475 -0.162,-0.205 -0.192,-0.294 -0.2,-0.464 -0.242,-0.099 -0.359,-0.28 -0.673,-0.771 -0.219,-0.333 -0.393,-0.57 -0.589,-0.551 -0.008,-0.046 -0.022,-0.141 0.09,-0.102 a 1.38,1.38 0 0 0 -0.072,-0.087 c -0.011,-0.22 -0.011,-0.22 -0.313,-0.865 l -0.427,-0.068 c -0.242,-0.272 -0.227,-0.31 -0.132,-0.341 0.11,-0.037 0.128,-0.094 -0.052,-0.358 l -0.205,-0.034 c -0.087,-0.045 -0.105,-0.045 -0.143,-0.045 -0.034,0.037 -0.023,0.079 0.079,0.302 0.125,0.271 0.144,0.352 0.099,0.418 -0.091,-0.019 -0.091,-0.019 -0.136,-0.071 -0.004,0.034 -0.004,0.076 -0.008,0.11 l 0.362,0.37 -0.003,0.129 0.256,0.302 c 0.03,0.079 0.027,0.167 0.061,0.247 a 0.45,0.45 0 0 0 0.114,0.155 c 0.021,-0.034 0.053,-0.079 0.075,-0.118 0.148,0.17 0.205,0.28 0.269,0.498 0.026,0.095 0.049,0.189 0.076,0.284 0.067,0.008 0.087,0.008 0.132,0.073 -0.03,-0.249 0.223,-0.095 0.226,-0.095 l 0.043,0.087 c 0.015,0.108 0.022,0.166 0.121,0.32 0.064,0.103 0.173,0.16 0.246,0.254 0.231,0.317 0.034,0.528 -0.083,0.656 0.075,0.073 0.174,0.167 0.249,0.241 0.098,0.22 0.086,0.265 -0.009,0.307 -0.094,0.042 -0.089,0.102 0.02,0.333 a 2.48,2.48 0 0 1 0.075,-0.073 c 0.091,0.125 0.107,0.143 0.258,0.204 0.135,0.053 0.177,0.14 0.264,0.307 -0.257,-0.129 -0.31,0.25 -0.37,0.646 0.057,0.068 0.076,0.071 0.14,0.076 -0.045,-0.183 -0.074,-0.337 0.062,-0.258 z m -1.605,-1.018 c 0.264,0.277 0.321,0.183 0.378,-0.082 0.048,-0.207 0.097,-0.34 0.332,-0.17 -0.038,-0.276 -0.068,-0.344 -0.352,-1.005 -0.038,-0.092 -0.162,-0.389 -0.148,-0.446 a 0.524,0.524 0 0 0 -0.022,-0.2 c -0.037,-0.133 -0.377,-0.524 -0.509,-0.435 l -0.057,-0.086 c -0.058,-0.076 -0.08,-0.087 -0.095,-0.087 -0.02,0 -0.026,0.023 -0.03,0.068 -0.007,0.131 -0.015,0.223 -0.159,0.056 0.053,0.163 0.181,0.277 0.268,0.419 -0.076,0.107 -0.159,0.11 -0.366,0.018 0.237,0.7 0.237,0.7 0.442,0.87 0.042,0.554 0.042,0.554 -0.012,0.63 z m -0.296,-7.619 0.314,0.389 -0.031,-0.026 c 1.157,1.451 1.161,1.458 1.875,2.4 a 0.882,0.882 0 0 0 -0.08,-0.136 c 0.031,0.042 0.072,0.094 0.099,0.136 -0.068,-0.11 -0.14,-0.215 -0.211,-0.322 -0.515,-0.695 -1.387,-1.881 -2.728,-3.342 0.29,0.333 0.601,0.703 0.793,0.933 -0.011,-0.013 -0.019,-0.024 -0.031,-0.032 z m -0.958,2.973 c -0.065,0.065 -0.099,0.094 -0.091,0.178 0.008,0.084 0.072,0.186 0.072,0.189 0.008,0.011 0.057,0.011 0.057,0.011 0.046,0 0.068,0 0.128,0.092 0.061,-0.045 0.037,-0.178 -0.019,-0.284 a 0.808,0.808 0 0 0 -0.14,-0.189 c -0.004,0 -0.004,0.003 -0.007,0.003 z m -1.776,-5.583 0.004,0.003 v -0.003 z m -1.738,-1.695 c 0.09,0.083 0.242,0.211 0.329,0.287 h 0.003 c 0.007,0 0.011,0.003 0.023,0.008 -0.057,-0.05 -0.117,-0.094 -0.17,-0.152 a 1.178,1.178 0 0 0 -0.185,-0.143 z m -0.306,-0.359 a 0.21,0.21 0 0 0 -0.052,-0.031 c 0.124,0.094 0.192,0.151 0.279,0.228 a 0.817,0.817 0 0 0 0.09,0.087 c -0.026,-0.016 -0.056,-0.039 -0.086,-0.061 0.075,0.068 0.169,0.15 0.237,0.215 l -0.29,-0.23 c 0.125,0.136 0.174,0.173 0.355,0.31 l 0.446,0.435 c -0.056,-0.047 -0.113,-0.091 -0.166,-0.141 a 0.316,0.316 0 0 0 -0.057,-0.037 0.958,0.958 0 0 0 -0.106,-0.068 c 0.027,0.045 0.027,0.045 0.819,0.753 0.118,0.15 0.307,0.234 0.39,0.418 0.151,0.083 0.197,0.155 0.214,0.181 h -0.025 c 0.362,0.783 1.114,1.255 1.557,1.977 0.147,0.207 0.286,0.373 0.423,0.544 l -0.201,-0.349 0.077,0.076 c 0.162,0.201 0.192,0.253 0.336,0.514 -0.128,-0.105 -0.298,-0.249 -0.43,-0.359 0.154,0.215 0.229,0.487 0.442,0.665 0.007,0.016 0.022,0.037 0.031,0.053 -0.047,0.003 -0.047,0.003 -0.171,-0.061 0.053,0.049 0.121,0.118 0.174,0.17 0.086,0.079 0.091,0.082 0.139,0.181 -0.068,-0.026 -0.068,-0.026 -0.147,-0.117 0.008,0.018 0.019,0.037 0.022,0.057 a 0.157,0.157 0 0 1 -0.109,-0.004 c 0.109,0.257 0.317,0.446 0.446,0.692 0.015,0 0.037,0.003 0.057,0.003 a 0.402,0.402 0 0 1 0.079,-0.086 c 0.08,0.034 0.219,0.113 0.25,0.262 -0.068,0.029 -0.068,0.029 -0.265,-0.042 0.204,0.347 0.574,0.57 0.744,0.947 a 0.489,0.489 0 0 0 -0.068,-0.007 c 0.038,0.057 0.077,0.113 0.114,0.173 a 0.259,0.259 0 0 1 0.019,-0.033 c 0.144,0.15 0.256,0.324 0.389,0.479 a 1.399,1.399 0 0 1 -0.095,0.049 l 0.521,0.57 -0.068,-0.176 0.158,0.2 -0.004,-0.045 c 0.042,-0.053 0.042,-0.053 -0.117,-0.564 a 0.838,0.838 0 0 0 0.064,0.015 c 0,-0.019 -0.008,-0.041 -0.008,-0.06 0.438,0.412 1.579,2.146 1.632,2.251 0.182,0.393 0.246,0.451 0.28,0.477 0.011,-0.021 0.026,-0.042 0.034,-0.06 -0.828,-2.747 -4.987,-7.337 -5.029,-7.382 0.053,0.037 0.129,0.102 0.215,0.189 a 23.827,23.827 0 0 0 -0.529,-0.548 91.833,91.833 0 0 0 -2.897,-2.622 c -0.03,-0.026 -0.06,-0.052 -0.09,-0.076 l 0.034,0.031 c -0.019,-0.017 -0.042,-0.032 -0.057,-0.043 z m -0.329,-0.265 c -0.057,-0.05 -0.112,-0.099 -0.173,-0.144 a 0.917,0.917 0 0 0 -0.057,-0.042 c 0.041,0.039 0.125,0.11 0.23,0.186 z m 0.329,0.252 -0.188,-0.158 c -0.17,-0.131 -0.268,-0.212 -0.407,-0.32 0.214,0.173 0.456,0.365 0.619,0.501 -0.009,-0.007 -0.016,-0.015 -0.024,-0.023 z m -4.242,1.062 c 0.147,0.068 0.181,0.027 0.215,-0.042 a 0.097,0.097 0 0 1 0.044,-0.049 c 0.042,-0.014 0.243,0.046 0.247,0.178 0,0.045 0,0.045 0.212,0.173 0.04,0.095 0.04,0.095 -0.189,0.081 -0.015,0.034 -0.073,0.029 -0.069,0.083 0.004,0.039 0.027,0.064 0.087,0.136 0.072,-0.2 0.623,0.249 0.627,0.254 0.049,0.063 -0.061,0.094 -0.072,0.15 0.105,0.128 0.2,0.234 0.298,0.246 0.08,0.008 0.144,-0.053 0.223,-0.045 0.197,0.022 0.302,0.245 0.518,0.221 0.136,-0.014 0.189,-0.018 0.219,-0.278 0.03,-0.28 0.03,-0.28 0.139,-0.341 -0.136,-0.192 -0.158,-0.291 -0.071,-0.317 -0.023,-0.034 -0.053,-0.079 -0.081,-0.113 -0.173,-0.234 -0.347,-0.333 -0.524,-0.438 a 1.7,1.7 0 0 1 -0.62,-0.551 c -0.007,0.042 -0.019,0.094 -0.026,0.136 l -0.249,-0.205 0.073,0.121 c 0.014,0.105 0.018,0.121 -0.077,0.162 -0.167,0.064 -0.167,0.079 -0.17,0.207 -0.091,-0.064 -0.215,-0.147 -0.307,-0.21 0.099,0.218 0.352,0.328 0.427,0.566 -0.11,0.195 -0.423,-0.246 -0.423,-0.254 -0.007,-0.023 -0.007,-0.049 -0.015,-0.076 -0.064,-0.037 -0.09,-0.052 -0.192,-0.142 -0.185,-0.155 -0.283,-0.236 -0.364,-0.217 -0.032,0.202 0.297,0.357 0.12,0.564 z m -3.547,-3.237 c 0.016,-0.042 0.053,-0.037 0.208,-0.018 0.083,0.011 0.17,0.022 0.147,-0.039 -0.015,-0.045 -0.193,-0.184 -0.306,-0.184 -0.117,0.023 -0.06,0.204 -0.049,0.241 z m -0.703,-2.995 h -0.007 c 0.031,0.015 0.06,0.031 0.295,0.133 0.03,0.014 0.06,0.026 0.087,0.041 a 0.59,0.59 0 0 1 -0.11,-0.045 c 0.427,0.233 0.888,0.412 1.326,0.627 a 28.682,28.682 0 0 0 -1.602,-0.759 c 0.004,-0.001 0.008,0.003 0.011,0.003 z m -0.448,19.092 c -0.013,-0.005 -0.02,-0.008 -0.027,-0.008 l -0.193,-0.065 c -0.004,-0.041 -0.004,-0.041 0.121,-0.233 -0.116,0.068 -0.272,0.155 -0.386,0.223 -0.192,-0.367 0.215,-0.544 0.296,-0.827 -0.057,0.063 -0.126,0.15 -0.178,0.215 -0.291,-0.016 -0.31,-0.016 -0.336,-0.178 a 0.275,0.275 0 0 1 0.022,-0.144 c 0.061,-0.105 0.159,-0.177 0.219,-0.278 -0.375,-0.073 -0.741,0.124 -1.115,0.042 -0.105,-0.178 -0.099,-0.288 0.03,-0.367 -0.132,-0.076 -0.214,-0.053 -0.313,0.086 -0.068,0.103 -0.121,0.131 -0.231,0.023 0.129,-0.469 0.175,-0.627 0.427,-0.85 -0.09,-0.094 -0.106,-0.118 -0.094,-0.197 0.016,-0.106 0.14,-0.143 0.159,-0.246 -0.042,0.012 -0.098,0.026 -0.136,0.039 -0.167,0.079 -0.366,0.174 -0.529,0.551 a 1.03,1.03 0 0 0 -0.049,0.132 c -0.011,0.039 -0.026,0.094 -0.041,0.136 -0.11,0.378 -0.038,0.79 -0.189,1.159 -0.124,0.302 -0.381,0.544 -0.411,0.892 0.435,-0.238 1.095,0.283 1.394,-0.325 0.098,0.103 0.098,0.103 0.094,0.155 0.124,0.026 0.291,0.065 0.419,0.091 l -0.344,0.52 c 0.182,-0.06 0.209,-0.066 0.336,-0.223 0.14,-0.169 0.205,-0.384 0.325,-0.57 0.211,0.48 0.227,0.627 0.185,0.766 0.038,-0.047 0.084,-0.113 0.121,-0.162 l 0.166,0.33 c 0.336,0.029 0.064,-0.48 0.235,-0.676 0.007,-0.003 0.014,-0.008 0.023,-0.011 z m 0.123,-19.232 c 0.045,0.016 0.102,0.038 0.159,0.064 -0.178,-0.079 -0.367,-0.158 -0.566,-0.242 0.184,0.092 0.369,0.17 0.558,0.257 -0.048,-0.026 -0.101,-0.049 -0.151,-0.079 z m -2.614,-1.009 c -0.007,0 -0.012,-0.003 -0.015,-0.003 0.011,0.008 0.027,0.011 0.038,0.016 -0.007,-0.009 -0.014,-0.009 -0.023,-0.013 z m 0.204,0.08 c 0.117,0.04 0.23,0.082 0.344,0.124 l 0.019,0.004 0.004,0.003 1.106,0.42 0.132,0.055 c 0.14,0.058 0.284,0.115 0.423,0.17 -0.241,-0.113 -0.495,-0.207 -0.744,-0.31 l 0.045,0.015 c 0.013,0 0.02,0.008 0.031,0.011 0.003,0 0.007,0 0.011,0.004 0.03,0.015 0.065,0.027 0.094,0.038 l 0.057,0.023 0.004,0.003 a 0.814,0.814 0 0 1 0.128,0.05 l 0.204,0.079 c -0.068,-0.026 -0.136,-0.056 -0.204,-0.084 -0.102,-0.04 -0.211,-0.086 -0.328,-0.128 l -0.419,-0.158 c -0.023,-0.011 -0.046,-0.018 -0.068,-0.026 -0.029,-0.011 -0.057,-0.023 -0.082,-0.031 a 0.226,0.226 0 0 1 -0.064,-0.026 c -0.008,-0.003 -0.019,-0.003 -0.026,-0.008 a 0.278,0.278 0 0 1 -0.049,-0.019 0.172,0.172 0 0 0 -0.049,-0.018 1.392,1.392 0 0 1 -0.122,-0.045 c -0.007,0 -0.014,-0.005 -0.022,-0.008 a 0.226,0.226 0 0 1 -0.052,-0.019 h -0.008 c -0.019,-0.008 -0.038,-0.015 -0.053,-0.023 -0.007,0 -0.011,-0.004 -0.016,-0.004 l -0.003,-0.004 c -0.003,0.004 -0.003,0 -0.003,0 -0.004,-0.003 -0.008,-0.003 -0.008,-0.003 h -0.003 c -0.009,-0.004 -0.016,-0.008 -0.023,-0.008 -0.016,-0.004 -0.026,-0.008 -0.042,-0.011 a 4.825,4.825 0 0 1 -0.189,-0.068 c 0.008,0 0.011,0.003 0.016,0.003 -0.005,0 -0.005,0 -0.008,-0.003 -0.037,-0.016 -0.08,-0.026 -0.128,-0.046 h -0.003 l 0.056,0.023 c -0.03,-0.011 -0.056,-0.019 -0.079,-0.031 h -0.004 c -0.012,-0.003 -0.022,-0.01 -0.034,-0.01 -0.007,-0.004 -0.016,-0.004 -0.02,-0.004 h -0.007 z m -0.268,-0.102 h -0.004 c 0.02,0.008 0.034,0.014 0.053,0.018 a 0.178,0.178 0 0 0 -0.049,-0.018 z m -0.845,21.596 c 0.037,-0.019 0.102,-0.034 0.189,0 0.003,0.003 0.007,0.008 0.014,0.008 -0.121,-0.102 -0.278,-0.234 -0.396,-0.336 l 0.064,-0.057 c 0.012,-0.124 0.012,-0.124 -0.196,-0.333 -0.065,0.228 -0.147,0.533 -0.207,0.763 0.075,0 0.15,0.005 0.226,0.008 0.076,0.065 0.095,0.095 0.068,0.178 0.211,-0.216 0.211,-0.216 0.238,-0.231 z m -0.548,-17.215 c -0.174,-0.056 -0.242,-0.086 -0.329,-0.15 l 0.011,0.316 c 0.355,0.272 0.503,0.307 0.672,0.16 0,-0.031 0.004,-0.076 -0.019,-0.126 -0.052,-0.105 -0.196,-0.154 -0.335,-0.2 z m 0.366,40.945 c -0.189,0 -0.249,0.163 -0.276,0.404 -0.004,0.003 -0.004,0.008 -0.004,0.011 0,0.012 -0.004,0.023 -0.004,0.034 0.106,0.016 0.246,0.011 0.272,-0.155 a 0.74,0.74 0 0 0 0.004,-0.163 c -0.008,-0.089 -0.004,-0.113 0.011,-0.132 h -0.003 z m -1.81,-24.116 c 0.171,0.099 0.326,0.215 0.499,0.302 0.106,0.057 0.204,0.091 0.286,0.107 0.118,0.019 0.269,-0.005 0.33,-0.22 0.007,-0.023 0.011,-0.058 0.018,-0.079 -0.313,0.016 -0.877,-0.005 -1.151,-0.333 0.007,0.076 0.014,0.148 0.018,0.223 z m 0.975,-1.87 h 0.026 c -0.023,-0.019 -0.045,-0.045 -0.067,-0.064 -0.135,-0.239 -0.317,-0.322 -0.752,-0.341 h -0.11 c -0.008,-0.003 -0.016,-0.003 -0.022,-0.003 h -0.041 c 0.195,0.266 0.437,0.439 0.966,0.408 z m -2.157,21.774 c -0.151,0.008 -0.234,0.076 -0.286,0.246 0.097,-0.004 0.283,0.008 0.305,0.008 0.238,0.021 0.37,0.011 0.567,-0.053 l 0.012,-0.167 c -0.205,0.076 -0.398,-0.034 -0.598,-0.034 z m 10.989,15.431 c 0.03,0.053 0.041,0.141 0.03,0.195 l 2.014,-2.217 c 0.43,-0.711 0.469,-1.298 0.491,-1.65 -0.083,0.007 -0.083,0.007 -1.242,-0.994 a 0.717,0.717 0 0 0 -0.4,-0.147 c -0.182,0 -0.349,0.079 -0.526,0.079 h -0.029 c -0.218,-0.022 -0.423,-0.128 -0.649,-0.14 a 0.517,0.517 0 0 0 -0.269,0.076 c -0.139,0.097 -0.177,0.139 -0.32,0.339 -0.023,-0.158 -0.023,-0.158 0.007,-0.312 -0.578,-0.066 -0.57,-0.084 0.016,-0.046 0.064,-0.234 0.079,-0.294 0.072,-0.445 -0.332,-0.057 -0.601,-0.283 -0.922,-0.363 -0.094,-0.022 -0.196,0.004 -0.287,-0.03 -0.056,-0.019 -0.098,-0.034 -0.272,-0.151 -0.139,-0.09 -0.215,-0.113 -0.279,-0.113 -0.015,0 -0.038,0 -0.049,0.003 -0.008,0 -0.019,0.005 -0.026,0.008 -0.144,0.026 -0.303,-0.008 -0.435,0.081 -0.343,0.229 -0.581,0.57 -0.89,0.835 -0.05,0.034 -0.122,0.079 -0.175,0.11 0.004,-0.031 0.004,-0.068 0.004,-0.099 -0.28,-0.026 -0.272,-0.034 0.011,-0.019 0.355,-0.582 0.929,-1.001 1.206,-1.639 0.019,-0.038 0.033,-0.092 0.049,-0.129 a 20.408,20.408 0 0 0 -0.423,-0.407 c -0.045,-0.28 0.095,-0.553 0.019,-0.828 -0.003,-0.016 -0.046,-0.139 -0.268,-0.097 -0.122,-0.658 -0.821,-0.48 -1.19,-0.774 -0.011,0 -0.031,0.006 -0.042,0.006 a 2.869,2.869 0 0 1 -0.291,0.06 c -0.898,0.099 -1.338,-0.098 -1.659,-0.242 -0.003,-0.094 -0.011,-0.218 -0.014,-0.31 -0.322,-0.521 -0.643,-0.819 -1.319,-0.777 0.022,-0.039 0.057,-0.087 0.079,-0.125 -0.271,-0.302 -0.38,-0.394 -1.026,-0.533 0.025,-0.057 0.056,-0.139 0.082,-0.196 0.06,-0.011 0.144,-0.023 0.204,-0.03 -1.042,-0.442 -2.501,1.329 -3.128,-0.004 -0.539,-0.003 -0.539,-0.003 -0.888,-0.514 a 0.642,0.642 0 0 0 0.031,0.404 c -0.177,0.223 -0.483,0.212 -0.692,0.382 0.122,0.827 0.122,0.827 0.155,0.879 -0.241,0.228 -0.301,0.23 -0.52,0.246 -0.042,-0.049 -0.099,-0.11 -0.141,-0.155 0.212,-1.05 0.212,-1.05 0.175,-1.228 0.163,-0.144 0.358,-0.249 0.491,-0.427 a 1.03,1.03 0 0 0 -0.362,-0.116 c -0.586,0.593 -1.416,0.811 -2.051,1.33 0.139,0.717 -0.813,0.937 -0.741,1.624 -1.239,-0.926 -1.239,-0.926 -1.515,-0.755 0.068,0.105 0.171,0.241 0.265,0.324 -0.22,-0.056 -0.422,-0.155 -0.631,-0.229 a 2.706,2.706 0 0 0 -0.029,0.196 c -0.08,0.041 -0.186,0.098 -0.265,0.14 -0.056,-0.005 -0.135,-0.013 -0.196,-0.016 h -0.136 c -1.556,0 -1.503,-0.963 -1.367,-3.513 -0.461,-0.226 -0.967,-0.113 -1.451,-0.194 -0.131,0.016 -0.131,0.068 -0.131,0.125 -0.428,-0.011 -0.842,0.359 -1.281,0.037 0.135,-1.299 0.135,-1.299 0.234,-1.427 0.019,0.019 0.045,0.044 0.063,0.065 l 0.087,-0.579 c -0.496,-0.615 0.479,-1.065 0.215,-1.661 -0.492,0.218 -1.065,0.116 -1.542,0.385 -0.824,0.472 -0.188,1.635 -1.004,2.11 -0.159,-0.176 -0.354,-0.397 -0.979,-0.019 -1.938,1.178 -2.796,-3.565 -2.799,-3.618 -0.189,-4.478 3.416,-4.053 3.453,-4.045 0.302,0.045 0.377,0.189 0.506,0.426 0.737,-0.302 0.737,-0.302 0.953,-0.207 -0.026,-0.086 -0.026,-0.086 -0.643,-0.725 0.031,-0.034 0.072,-0.076 0.102,-0.107 0.053,0.031 0.121,0.068 0.174,0.095 0.124,-0.048 0.287,-0.116 0.412,-0.165 0.713,0.184 1.511,-0.612 2.176,0.173 0.25,-0.084 0.581,-0.192 0.831,-0.275 0.812,0.921 0.812,0.921 0.589,1.408 0.066,-0.018 0.144,-0.049 0.208,-0.068 0.367,0.619 0.431,1.387 0.907,1.957 0.091,-0.068 0.234,-0.139 0.347,-0.165 0.33,-1.542 -1.134,-2.857 -0.567,-4.431 0.094,-0.257 3.079,-2.573 3.105,-2.584 l -0.034,-0.204 c -0.057,-0.018 -0.132,-0.05 -0.192,-0.071 0.037,-0.042 0.086,-0.102 0.124,-0.144 0.11,0.026 0.265,0.029 0.374,0.008 a 37.575,37.575 0 0 1 -0.348,-0.54 l 0.241,-0.166 c 0.034,-0.049 0.081,-0.115 0.115,-0.16 -0.094,-0.294 -0.355,-0.457 -0.529,-0.69 a 0.94,0.94 0 0 1 0.196,-0.377 c 0.087,0.113 0.201,0.263 0.287,0.373 0.447,-0.472 0.337,-1.065 0.272,-1.417 0.115,0.042 0.276,0.076 0.401,0.079 0.317,-0.365 0.362,-0.85 0.546,-1.276 0.05,0.014 0.115,0.038 0.163,0.053 0.628,-0.292 1.312,-0.461 1.901,-0.842 -1.485,-2.018 2.749,-3.256 2.802,-3.256 0.132,-0.005 0.291,0.116 0.396,0.192 -1.181,1.013 -1.181,1.013 -0.766,1.386 0.755,-0.774 0.755,-0.774 2.01,-1.462 -1.912,-0.616 -2.123,-0.839 -1.605,-1.7 -0.612,0.155 -0.612,0.155 -0.812,-0.061 l 0.144,-0.128 0.045,0.005 c 0.054,0.021 0.121,0.056 0.174,0.079 0.295,-0.133 0.318,-0.143 0.483,-0.435 -0.593,-0.892 -2.081,0.362 -3.169,1.28 -0.031,-0.018 -0.068,-0.045 -0.095,-0.064 l 1.069,-1.367 c 0.726,-0.023 0.608,-1.235 1.432,-1.062 0.68,0.139 2.917,-0.234 2.933,-0.239 0.105,-0.034 0.222,-0.124 0.32,-0.181 0.003,-0.816 1.443,-0.528 1.224,-1.367 -0.177,-0.695 -0.793,-1.104 -1.129,-1.697 -0.269,0.016 -0.468,-0.184 -0.721,-0.218 -0.926,-0.037 -1.863,-0.073 -2.81,-0.103 0.944,0.027 1.877,0.058 2.795,0.091 -0.295,-0.193 -0.382,-0.28 -0.396,-0.492 -0.294,0.212 -0.472,-0.203 -0.719,-0.283 0.087,-0.09 0.004,-0.189 0.021,-0.279 0.056,-0.007 0.056,-0.007 0.142,0.004 0.125,-0.208 0.125,-0.208 -0.373,-0.593 0.03,-0.037 0.072,-0.09 0.105,-0.128 0.058,-0.011 0.058,-0.011 0.129,0.046 a 1.44,1.44 0 0 0 -0.037,-0.238 c -0.665,-0.706 -0.998,-1.246 -1.277,-2.07 -0.034,-0.004 -0.071,-0.004 -0.11,-0.004 0.05,0.136 0.113,0.322 0,0.537 -0.049,0.087 -0.132,0.155 -0.163,0.257 -0.049,0.184 0.06,0.388 -0.068,0.562 -0.09,0.121 -0.09,0.121 -0.803,0.563 -0.304,-0.167 -0.356,-0.579 -0.692,-0.714 -0.056,-0.254 -0.192,-0.484 -0.238,-0.741 -0.037,-0.223 0.125,-0.441 -0.003,-0.662 -0.17,-0.29 -0.51,-0.094 -0.729,-0.252 0.015,-0.071 0.03,-0.163 0.042,-0.231 -0.325,-0.158 -0.517,-0.475 -0.805,-0.684 -0.008,0.016 -0.015,0.039 -0.022,0.054 -0.053,0.09 -0.094,0.121 -0.185,0.139 -0.152,0.026 -0.298,-0.045 -0.449,-0.019 -0.156,-0.212 -0.944,-0.356 -1.077,0.029 -0.004,0.019 -0.011,0.034 -0.015,0.05 -0.015,0.102 0.019,0.197 0.124,0.419 0.155,0.317 0.057,0.381 -0.23,0.562 0.079,0.058 0.189,0.129 0.268,0.186 -0.166,0.268 0.27,0.419 0.132,0.683 -0.524,-0.09 -0.34,0.711 -0.762,0.831 0.007,0.05 0.007,0.05 0.506,0.458 0.038,0.444 0.316,0.83 0.316,1.287 0,0.162 0,0.235 -0.321,0.522 -0.426,0.332 -0.619,0.416 -1.537,0.808 0.136,0.152 0.317,0.356 0.453,0.511 -0.279,0.755 0.145,1.564 -0.181,2.311 a 0.71,0.71 0 0 1 -0.166,-0.401 l -0.182,-0.068 a 0.416,0.416 0 0 0 -0.038,0.223 c -0.016,0.06 -0.029,0.144 -0.042,0.204 -0.365,-0.003 -0.403,-0.008 -0.54,-0.491 -0.438,-0.163 -0.34,-0.729 -0.709,-0.945 0.34,-0.464 0.124,-1.065 0.369,-1.552 -0.132,-0.045 -0.309,-0.11 -0.442,-0.158 -0.604,0.336 -0.732,0.223 -1.458,-0.393 -1.639,-0.079 -1.677,-0.103 -0.14,-0.099 a 0.928,0.928 0 0 0 -0.366,-0.135 c -0.106,-0.299 -0.135,-0.382 -0.397,-0.491 -0.03,-0.012 -1.046,-0.319 -1.05,-0.322 -0.102,-0.015 -0.226,0.045 -0.292,0.071 -0.196,0.099 -0.268,0.107 -0.396,-0.006 0.434,-0.393 0.026,-0.896 0.173,-1.322 -0.242,-0.016 -0.242,-0.016 -0.268,-0.054 l -0.087,0.257 c -0.393,0.477 -1.114,0.635 -1.288,1.322 -0.352,0.107 -0.593,-0.203 -0.907,-0.245 -0.192,0.279 -0.46,0.491 -0.69,0.733 -0.061,-0.087 -0.175,-0.144 -0.186,-0.268 -0.049,0 -0.097,0 -0.144,0.003 -0.195,0.095 -0.263,0.186 -0.365,0.48 -0.174,0.454 -0.296,0.483 -0.608,0.359 a 1.83,1.83 0 0 0 0.151,-0.522 c 0.238,-0.23 0.673,-0.192 0.801,-0.577 0.03,0.003 0.03,0.003 1.02,-0.677 l 0.064,0.16 c 0.358,0.048 0.415,0.056 0.684,0.234 0.252,-0.129 0.34,-0.454 0.63,-0.544 h 0.008 c 1.333,-0.802 0.457,-3.114 2.391,-3.507 0.189,-0.373 0.699,-0.332 0.895,-0.698 -0.369,-0.605 -1.228,-0.212 -1.612,-0.787 0.782,-0.536 1.28,0.443 1.973,0.424 0.048,-0.118 0.108,-0.275 0.142,-0.397 0.05,-0.027 0.118,-0.064 0.171,-0.09 0.242,0.29 0.242,0.29 1.288,-0.54 -0.533,-0.031 -0.819,-0.475 -1.231,-0.706 0.015,-0.018 0.034,-0.046 0.048,-0.065 0.521,0.016 1.103,0.598 1.568,0.11 a 0.934,0.934 0 0 0 0.061,-0.068 2.934,2.934 0 0 0 -0.046,-0.185 c 0.035,-0.046 0.08,-0.107 0.114,-0.148 0.465,0.068 0.465,0.068 0.664,0.081 a 0.806,0.806 0 0 0 -0.131,-0.417 c 0.057,-0.003 0.139,-0.011 0.196,-0.016 0.216,0.374 0.216,0.374 0.318,0.472 l 0.491,-0.415 c 0.053,-0.023 0.121,-0.049 0.173,-0.071 0.023,-0.076 0.023,-0.076 -0.237,-0.971 0.438,-0.065 0.438,-0.065 0.499,-0.102 -0.038,-0.081 -0.084,-0.181 -0.122,-0.257 l 0.197,-0.139 c -0.358,-0.133 -0.642,-0.404 -0.99,-0.553 -0.167,0.095 -0.252,0.149 -0.173,0.511 -0.038,0.029 -0.087,0.074 -0.126,0.105 a 0.937,0.937 0 0 0 0.005,0.151 c -0.016,0.011 -0.016,0.011 -0.722,1 a 0.448,0.448 0 0 1 -0.045,-0.038 l -0.238,0.148 c -0.344,-0.48 0.303,-1.104 -0.226,-1.553 -0.029,0.042 -0.071,0.094 -0.102,0.136 0.007,0.052 0.019,0.124 0.03,0.178 -0.135,0.135 -0.302,0.234 -0.423,0.385 0.02,-0.261 0.049,-0.521 0.065,-0.782 a 1.323,1.323 0 0 0 -0.318,-0.156 c -0.007,-0.139 -0.019,-0.31 0.307,-0.378 0.05,-0.441 -0.291,-1.378 -0.294,-1.382 a 0.967,0.967 0 0 0 -0.321,0.186 c 0.038,0.038 0.082,0.09 0.117,0.132 -0.042,0.042 -0.099,0.094 -0.136,0.136 -0.064,-0.026 -0.144,-0.063 -0.204,-0.09 -0.306,0.268 -0.465,0.774 -0.528,1.05 0.06,0.068 0.142,0.155 0.207,0.223 0.404,0.118 0.404,0.118 0.499,0.226 -0.045,0.026 -0.102,0.065 -0.147,0.095 l -0.049,-0.098 a 0.6,0.6 0 0 0 -0.245,0.265 c 0.049,0.014 0.114,0.038 0.162,0.053 0.016,0.045 0.043,0.11 0.058,0.158 -0.14,0.22 -0.14,0.22 -1.58,0.11 -0.101,0.23 -0.101,0.23 0.105,0.521 l -0.121,0.121 c -0.619,-0.53 -1.514,-0.034 -2.133,-0.572 -0.023,-0.483 -0.023,-0.483 -0.058,-0.551 -0.003,0.004 -0.687,0.091 -0.872,0.223 0.016,0.113 0.022,0.272 0.026,0.389 l -0.159,0.091 -0.026,0.003 -0.359,0.779 c -0.137,0.076 -0.171,0.189 -0.204,0.301 -0.019,0.005 -0.038,0.005 -0.057,0.005 -0.125,-0.386 0.208,-0.797 -0.072,-1.168 -0.615,0.182 -1.137,0.242 -1.855,-0.023 l 0.276,-0.238 c 0.661,-0.253 0.661,-0.253 0.733,-0.324 a 1.627,1.627 0 0 0 -0.102,-0.322 0.718,0.718 0 0 0 -0.317,0.102 c -0.218,-0.205 -0.488,-0.344 -0.691,-0.567 0.019,-0.098 0.049,-0.234 0.068,-0.333 -0.072,-0.029 -0.072,-0.029 -0.895,0.28 a 2.05,2.05 0 0 1 -0.019,-0.189 c 0.166,-0.094 0.283,-0.253 0.446,-0.351 -0.053,0.008 -0.053,0.008 -0.82,0.422 0.064,-0.426 0.426,-0.668 0.631,-1.012 l -0.566,0.45 c -0.058,0.011 -0.129,0.03 -0.186,0.042 l -0.048,-0.148 -0.026,-0.074 c -0.461,0.223 -1.017,0.158 -1.444,0.48 l 0.022,-0.175 a 9.248,9.248 0 0 1 -0.276,0.107 c -0.03,0.003 -0.03,0.003 -0.782,0.438 -0.042,-0.028 -0.094,-0.065 -0.136,-0.092 0.136,-0.32 0.031,-0.661 0.083,-0.989 -0.306,-0.099 -0.306,-0.099 -0.37,-0.317 l -0.148,-0.076 c 0.08,-0.068 0.188,-0.16 0.268,-0.226 -0.11,0.014 -0.253,0.064 -0.356,0.105 0.151,-0.268 0.151,-0.268 0.461,-0.428 a 1.94,1.94 0 0 1 -0.166,-0.045 c -0.023,-0.026 0.087,-0.097 0.197,-0.17 -0.122,0.053 -0.28,0.126 -0.401,0.182 0,-0.027 0,-0.064 -0.004,-0.09 l 0.529,-0.186 0.106,-0.131 c -0.004,0 -0.012,0 -0.019,-0.005 -0.578,0.268 -1.212,0.393 -1.775,0.703 a 0.21,0.21 0 0 0 0.033,-0.042 c 0.042,-0.022 0.099,-0.056 0.141,-0.082 -0.202,0.034 -3.02,0.578 -4.93,2.859 0,0.053 -0.004,0.121 -0.004,0.174 a 0.447,0.447 0 0 1 -0.268,0.06 2.5,2.5 0 0 1 -0.306,0.268 c 0.038,-0.05 0.083,-0.116 0.117,-0.166 l -0.241,0.15 a 3.11,3.11 0 0 1 -0.189,0.02 c 0.011,-0.05 0.026,-0.118 0.034,-0.17 0.105,-0.049 0.242,-0.125 0.34,-0.181 -0.046,-0.016 -0.11,-0.034 -0.159,-0.049 l -0.121,0.042 -0.06,0.079 c -0.506,0.344 -1.039,0.643 -1.526,1.016 l 0.09,-0.135 -0.68,0.604 c -0.034,0.034 -0.08,0.084 -0.114,0.121 l 0.186,0.011 c 0.019,0.05 0.041,0.115 0.061,0.163 0.245,-0.124 0.468,-0.283 0.71,-0.407 a 0.71,0.71 0 0 1 -0.228,0.265 c -0.086,0.04 -0.091,0.04 -0.091,0.04 l -0.512,0.488 c -0.268,0.249 -0.556,0.506 -0.65,0.551 -0.045,-0.026 -0.11,-0.056 -0.155,-0.083 a 2.047,2.047 0 0 0 -0.37,0.245 l -0.147,-0.074 -2.467,2.217 h 0.182 a 0.711,0.711 0 0 1 -0.208,0.291 c -0.038,-0.031 -0.087,-0.076 -0.124,-0.107 -0.2,0.204 -0.2,0.204 -0.625,0.839 -0.041,0.049 -0.079,0.102 -0.117,0.155 0.249,-0.058 0.313,-0.068 0.684,-0.473 -0.554,0.759 -0.554,0.759 -1.273,1.548 a 0.585,0.585 0 0 1 0.341,0.065 3.236,3.236 0 0 0 -0.023,0.192 c 0.075,-0.095 0.185,-0.223 0.264,-0.313 0.695,-0.019 0.968,-0.76 1.575,-0.926 -0.339,0.948 -1.427,1.05 -1.975,1.765 -0.649,0.845 -1.593,1.394 -2.243,2.239 l -0.166,-0.021 a 6.73,6.73 0 0 0 -0.839,0.887 c 0.211,-0.098 0.211,-0.098 0.537,-0.468 0.691,0.011 5.409,-4.701 5.456,-4.745 0.146,-0.068 0.177,-0.105 0.203,-0.147 0.631,-0.517 0.714,-0.578 1.069,-0.834 0.03,0.04 0.067,0.101 0.098,0.142 a 0.585,0.585 0 0 1 -0.215,0.307 l -0.155,0.019 h -0.007 -0.003 -0.004 v 0.005 h -0.007 c -0.737,0.142 -0.767,1.058 -1.42,1.291 -0.061,0.068 -0.103,0.136 -0.147,0.205 1.231,-0.472 2.074,-1.232 2.531,-1.64 a 1.595,1.595 0 0 1 -0.167,0.336 0.523,0.523 0 0 0 0.204,0.257 c -0.022,0.12 -0.102,0.275 -0.173,0.375 0.026,0.003 0.026,0.003 0.536,-0.023 0.065,0.09 0.163,0.2 0.242,0.276 a 2.73,2.73 0 0 0 0.348,-0.076 c -0.049,0.223 -0.049,0.223 -0.32,0.391 l 0.011,0.044 0.139,0.128 c 0.049,-0.008 0.117,-0.015 0.17,-0.023 -0.094,0.151 -0.215,0.354 -0.309,0.506 0.229,0.881 -0.36,1.571 -0.537,2.358 0.261,-0.304 0.366,-0.695 0.593,-1.018 0.007,0.058 0.015,0.133 0.019,0.189 l 0.242,-0.207 c 0.203,-0.242 0.234,-0.279 0.287,-0.567 -0.158,0.189 -0.37,0.446 -0.529,0.635 0.076,-0.328 0.279,-0.619 0.261,-0.975 0.065,-0.041 0.151,-0.098 0.215,-0.14 0.007,0.049 0.015,0.113 0.018,0.166 0.193,-0.305 0.454,-0.709 0.647,-1.016 l -1.153,3.384 c -0.007,0.103 0.012,0.103 0.027,0.103 0.091,-0.061 0.204,-0.136 0.291,-0.2 0.031,0.045 -0.388,0.873 -0.388,0.876 0.052,0.019 0.125,0.05 0.177,0.068 -0.223,0.299 -0.192,0.698 -0.418,0.994 l 0.121,0.148 0.377,-0.318 0.034,0.439 -0.204,0.037 c -0.181,0.797 -0.181,0.797 -0.283,0.847 0.053,0.018 0.121,0.05 0.173,0.071 0.182,-0.09 0.351,-0.207 0.54,-0.275 a 0.798,0.798 0 0 0 -0.113,0.388 c -0.038,0.005 -0.094,0.005 -0.136,0.008 -0.393,0.167 -0.393,0.167 -0.412,0.666 l -0.242,0.245 c 0.012,0.076 0.034,0.175 0.049,0.249 0.226,0.068 0.464,0.065 0.688,0.144 l -0.174,0.113 c 0.038,0.052 0.177,0.046 0.321,0.039 -0.443,0.944 0.774,1.975 -0.151,2.896 0.135,-0.698 0.147,-0.755 -0.363,-0.936 l -0.219,0.139 c -0.022,1.86 -1.065,3.458 -1.326,5.255 l 0.193,3.706 c 0.02,-0.023 0.038,-0.053 0.057,-0.073 0.099,-0.06 0.233,-0.139 0.336,-0.195 0.038,0.053 0.091,0.121 0.129,0.169 -0.144,0.141 -0.337,0.322 -0.479,0.461 l 0.271,0.226 c -0.26,0.81 0.397,1.421 0.449,2.166 0.073,-0.005 0.073,-0.005 1.028,0.362 l 0.132,0.015 0.381,0.418 c -0.241,1.579 1.296,2.342 1.669,3.643 -0.082,0.108 -0.23,0.242 -0.358,0.302 l 0.124,0.173 c -0.006,0.037 -0.022,0.094 -0.029,0.131 0.177,0.013 0.177,0.013 0.543,0.228 l 0.174,-0.128 c 0.736,1.136 0.736,1.136 0.672,1.428 0.385,0.422 0.933,0.635 1.334,1.036 0.061,-0.008 0.139,-0.016 0.2,-0.021 -0.037,-0.249 -0.037,-0.249 -0.404,-0.755 a 4.592,4.592 0 0 1 -0.257,-0.029 c -0.026,-0.034 -2.61,-4.019 -2.496,-5.1 0.038,0.057 0.079,0.136 0.125,0.189 0.211,0.265 0.589,-0.029 0.805,0.23 0.389,0.472 0.31,1.152 0.714,1.616 0.491,0.563 1.035,1.078 1.545,1.624 -0.057,0.076 -0.136,0.178 -0.192,0.254 0.087,0.102 0.222,0.223 0.339,0.287 l 0.06,0.23 c 0.879,0.456 2.523,1.757 1.994,2.867 -0.037,0.079 4.329,3.18 6.196,2.025 0,-0.079 0,-0.178 0.003,-0.257 0.42,-0.023 1.817,1.084 1.833,1.096 0.604,0.491 1.337,-0.073 1.963,0.234 0.614,0.302 0.85,0.548 1.647,1.356 a 4.719,4.719 0 0 1 -0.094,0.226 c 0.118,0.084 0.28,0.182 0.409,0.242 0.075,-0.022 0.071,-0.121 0.071,-0.215 0.737,0.632 0.737,0.632 0.766,0.782 1.558,0.404 1.558,0.404 1.64,0.537 a 0.776,0.776 0 0 0 0.386,-0.228 7.695,7.695 0 0 0 -0.077,-0.626 l 0.021,-0.158 h 0.007 l 0.513,0.105 1.571,1.55 c 0,0.816 -0.623,1.604 -0.638,1.619 -0.103,0.079 -0.779,0.976 -1.141,1.126 0.2,0.598 -0.819,1.356 -0.094,1.749 0.412,-0.136 0.412,-0.136 0.419,-0.131 0.279,0.43 -0.087,0.608 -0.227,0.675 -0.691,0.337 -0.09,0.991 -0.083,0.994 -0.061,0.06 -0.136,0.137 -0.193,0.197 1.39,0.367 1.81,2.217 1.81,2.232 0.797,0.204 0.711,1.035 1.091,1.534 0.556,0.722 1.493,0.868 2.154,1.435 -0.098,1.446001 -0.098,1.446001 -0.076,1.742001 a 8.736,8.736 0 0 0 -0.207,0.162 c -0.144,0.385 0.015,0.83 -0.239,1.193 0.166,0.34 -0.354,1.148 -0.357,1.156 -0.416,0.547 -0.246,1.242 -0.465,1.84 -0.169,0.46 -0.506,0.819 -0.736,1.242 h -0.057 c -0.106,0.267 -0.544,1.416 -0.544,1.416 a 0.78,0.78 0 0 0 0.212,-0.086 h 0.015 a 0.726,0.726 0 0 1 -0.098,0.223 c -0.057,0.033 -0.064,0.033 -0.076,0.033 l -0.371,0.552 c -0.17,0.155 -0.301,0.349 -0.479,0.495 0,-0.008 0.003,-0.018 0.003,-0.031 -0.03,0 -0.075,0 -0.108,-0.002 -0.023,0.029 -0.057,0.062 -0.081,0.094 l 0.031,0.117 c -0.355,0.279 -0.646,0.631 -1.016,0.891 0.038,-0.011 0.083,-0.021 0.121,-0.033 a 0.818,0.818 0 0 1 -0.291,0.141 c -0.06,0.033 -0.14,0.078 -0.204,0.105 a 0.518,0.518 0 0 0 -0.098,0.023 1.156,1.156 0 0 1 -0.188,0.107 c 0.056,-0.006 0.114,-0.029 0.169,-0.048 l 0.064,-0.008 0.016,-0.005 a 0.186,0.186 0 0 0 0.037,-0.014 c 0.003,0 0.003,0 0.008,-0.005 0.003,0 0.007,0 0.01,-0.003 0.031,-0.012 0.065,-0.023 0.095,-0.039 0.076,-0.025 0.155,-0.061 0.23,-0.09 l 0.103,-0.037 c -0.117,0.059 -0.177,0.09 -0.276,0.125 0.038,-0.012 0.072,-0.023 0.11,-0.031 -0.072,0.049 -0.185,0.072 -0.264,0.099 0.011,0 0.019,0 0.03,0.003 -0.151,0.061 -0.318,0.084 -0.472,0.137 0.06,-0.016 0.12,-0.03 0.181,-0.042 a 0.35,0.35 0 0 1 -0.113,0.038 h -0.004 c -0.016,0.008 -0.03,0.015 -0.046,0.02 0.041,-0.012 0.083,-0.023 0.125,-0.031 h 0.011 l 0.299,-0.068 c 0.053,-0.014 0.105,-0.018 0.159,-0.033 0.007,0 0.015,-0.004 0.022,-0.007 h -0.016 c 0,0 0.027,-0.058 0.22,-0.136 0.207,-0.092 0.23,-0.103 0.28,-0.137 a 0.041,0.041 0 0 0 -0.012,-0.011 c 0.031,-0.016 0.065,-0.016 0.094,-0.031 0.144,-0.075 0.268,-0.186 0.412,-0.26 0.375,-0.201 0.771,-0.364 1.142,-0.575 0.109,-0.059 0.196,-0.15 0.298,-0.23 a 0.2,0.2 0 0 0 -0.132,0.02 c 0.023,-0.043 0.031,-0.09 0.042,-0.133 0.079,-0.117 0.109,-0.166 0.344,-0.29 0.117,-0.1 0.229,-0.194 0.343,-0.294 a 6.74,6.74 0 0 1 -0.313,0.277 c 0.11,-0.041 0.227,-0.055 0.326,-0.12 a 0.605,0.605 0 0 0 0.234,-0.23 c 0.151,-0.233 0.359,-0.31 0.378,-0.305 0.034,-0.042 0.053,-0.095 0.09,-0.134 0.039,-0.033 0.068,-0.045 0.122,-0.068 -0.045,0.118 -0.045,0.118 -0.064,0.137 0.011,-0.008 0.03,-0.018 0.045,-0.026 a 0.543,0.543 0 0 0 0.073,-0.034 c 0.12,-0.068 0.139,-0.139 0.163,-0.242 a 4.588,4.588 0 0 1 -0.212,0.133 c -0.061,0.012 -0.068,0.004 -0.079,-0.008 0,-0.027 0.011,-0.045 0.094,-0.135 0.116,-0.125 0.14,-0.162 0.12,-0.201 0.03,-0.037 0.072,-0.087 0.11,-0.121 0.019,-0.016 0.049,-0.033 0.072,-0.049 0.495,0.393 0.65,-0.657 1.149,-0.691 0.056,0 0.06,0 0.06,0.004 h 0.03 c 0.463,0.012 1,-0.31 1.644,-0.982 -0.027,0.012 -0.058,0.027 -0.084,0.037 a 0.501,0.501 0 0 1 -0.084,-0.032 c 0.234,-0.308 0.234,-0.308 0.224,-0.624 0.396,-0.072 0.827,0.042 1.189,-0.207 0.011,-0.008 1.163,-1.036 1.745,-1.82 0.022,0 0.045,0 0.068,0.002 0.015,0.05 0.015,0.05 -0.646,0.84 0.08,-0.039 0.185,-0.087 0.265,-0.125 0.479,-0.533 1.08,-0.938 1.538,-1.493 0.237,-0.29 0.237,-0.701 0.498,-0.981 0.759,-0.809 2.387,-1.383001 2.399,-1.383001 0.498,-0.062 0.828,-0.105 1.681,-1.355 1.458,-2.154 1.458,-2.154 1.616,-2.792 0.06,-0.332 0.139,-0.413 0.336,-0.601 z m -14.245,-51.093 v -0.029 c -0.113,-0.121 -0.275,-0.135 -0.416,-0.203 -0.003,0.008 -0.003,0.018 -0.007,0.026 -0.053,0.162 -0.193,0.291 -0.227,0.464 -0.027,0.124 0.008,0.207 0.068,0.307 h 0.102 c 0.294,-0.015 0.457,-0.204 0.48,-0.565 z m 0.528,36.448 c 0.125,-0.257 0.235,-0.477 0.514,-0.582 0.427,-0.163 0.885,-0.008 1.314,-0.113 l 0.094,-0.026 c -0.071,-0.076 -0.165,-0.181 -0.234,-0.257 -0.049,-0.004 -0.097,-0.004 -0.144,-0.004 -0.181,-0.245 -0.357,-0.431 -0.869,-0.426 -0.604,0.037 -1.188,0.365 -1.812,0.134 0.02,0.021 0.045,0.05 0.068,0.068 0.415,0.152 0.556,0.39 0.457,0.776 -0.242,0.006 -0.483,-0.031 -0.721,-0.02 a 0.825,0.825 0 0 0 -0.313,0.068 c 0.457,0.529 1.216,-0.257 1.646,0.382 z m -1.639,-39.698 h 0.007 l 0.287,-0.071 c 0.094,0 0.211,0.016 0.371,0.045 0.019,0 0.037,0.005 0.057,0.008 -0.105,-0.139 -0.246,-0.333 -0.351,-0.472 a 0.638,0.638 0 0 0 -0.352,-0.084 0.56,0.56 0 0 1 -0.353,-0.082 c -0.004,0.006 -0.004,0.014 -0.007,0.019 -0.065,0.204 0.31,0.339 0.132,0.525 0.175,0.109 0.175,0.109 0.209,0.112 z m -0.532,-4.042 h -0.019 v 0.004 h 0.019 z m 0.045,0.012 c -0.012,-0.005 -0.019,-0.005 -0.03,-0.005 -0.012,0 -0.023,0 -0.034,-0.003 h -0.011 l 0.09,0.011 c 0,0 0,-0.003 -0.004,-0.003 z m 0.438,0.155 c -0.162,-0.026 -0.324,-0.068 -0.487,-0.094 0.169,0.049 0.343,0.089 0.514,0.15 0.03,0.034 0.105,0.058 0.181,0.083 a 0.761,0.761 0 0 1 -0.189,-0.042 c -0.079,-0.021 -0.091,-0.021 -0.098,-0.021 a 0.519,0.519 0 0 1 0.136,0.074 c 0.043,0.015 0.084,0.034 0.125,0.054 -0.041,-0.02 -0.082,-0.034 -0.125,-0.049 v 0.003 c -0.007,0.015 -0.011,0.026 0.038,0.06 0.038,0.023 0.083,0.023 0.122,0.049 a 0.24,0.24 0 0 0 0.053,0.042 c 0.015,0.008 0.026,0.011 0.042,0.018 a 0.063,0.063 0 0 0 0.026,0.011 c 0.023,0 0.046,-0.006 0.068,-0.006 0.038,0 0.053,-0.005 0.067,-0.008 0.117,0.022 0.117,0.022 0.254,0.103 0.306,0.155 0.607,0.331 0.902,0.533 a 7.735,7.735 0 0 0 -0.899,-0.514 l -0.012,0.014 c 0.088,0.081 0.205,0.115 0.283,0.197 0,0.008 -0.003,0.016 -0.003,0.023 -0.233,-0.037 -0.287,0.003 -0.362,0.061 -0.098,0.076 -0.125,0.083 -0.253,0.102 -0.004,0.05 -0.008,0.097 0.155,0.184 0.537,0.277 0.661,0.277 0.729,0.272 0.167,-0.003 0.238,0.005 0.34,0.065 -0.098,0 -0.159,0.086 -0.249,0.102 -0.102,0.019 -0.197,-0.046 -0.299,-0.031 a 0.048,0.048 0 0 0 -0.011,0.019 c 0.014,0.06 0.067,0.128 0.161,0.204 0.004,-0.016 0.012,-0.034 0.019,-0.05 l 0.299,0.141 0.007,0.132 c 0.175,0.139 0.299,0.207 0.51,0.275 -0.007,-0.045 -0.015,-0.102 -0.025,-0.144 0.139,-0.042 0.211,0.102 0.328,0.114 0.109,0.014 0.128,-0.128 0.226,-0.133 0.02,0 0.043,0 0.06,0.004 0.186,0.03 0.349,0.131 0.522,0.195 1.058,0.385 1.549,1.458 2.456,2.029 0.094,0.502 0.555,0.929 0.559,0.932 0.026,-0.312 0.026,-0.355 -0.124,-0.559 0.238,0.189 0.31,0.231 0.575,0.348 a 6.124,6.124 0 0 0 -0.053,0.197 l 0.177,0.011 c 0.514,0.488 0.537,0.506 0.658,0.698 -0.046,-0.003 -0.094,-0.003 -0.141,-0.008 -0.23,-0.257 -0.23,-0.257 -0.937,-0.344 0.08,0.068 0.192,0.16 0.275,0.228 0.28,0.064 0.519,0.158 0.865,0.347 a 1.76,1.76 0 0 1 -0.015,0.052 c 0.298,0.178 0.276,0.526 0.416,0.787 -0.067,0.003 -0.067,0.003 -0.238,0.31 -0.026,0 -0.057,0.008 -0.084,0.008 0.081,0.238 -0.052,0.491 0.073,0.721 0.355,0.677 0.918,1.21 1.299,1.866 0.042,-0.116 0.091,-0.275 0.404,-0.17 -0.095,0.128 -0.284,0.344 -0.211,0.485 0.352,0.683 0.944,1.186 1.383,1.805 0.003,0.005 0.362,0.362 0.698,0.343 0.143,-0.01 0.253,-0.128 0.396,-0.128 0.049,0.073 0.049,0.073 0.072,0.288 0.075,0.04 0.113,0.044 0.151,0.044 0.212,0.412 0.632,0.17 0.933,0.299 -0.018,-0.02 -0.045,-0.039 -0.064,-0.054 -0.441,-0.501 -0.034,-1.31 -0.638,-1.752 0.011,-0.034 0.03,-0.074 0.044,-0.108 0.121,0.011 0.121,0.011 0.262,0.071 a 1.354,1.354 0 0 1 -0.152,-0.275 c -0.068,-0.202 0.219,-0.273 0.165,-0.464 -0.057,-0.205 -0.297,-0.212 -0.396,-0.375 0.016,-0.019 0.034,-0.045 0.05,-0.06 0.022,0 0.053,0.004 0.075,0.008 -0.072,-0.147 -0.207,-0.25 -0.283,-0.394 0.31,0.061 0.231,-0.464 0.542,-0.393 -0.186,-0.444 -0.186,-0.444 -0.277,-0.554 0.227,0.147 0.264,0.192 0.382,0.381 0.725,-0.192 0.37,-1.412 -0.053,-1.654 a 0.587,0.587 0 0 0 -0.083,-0.042 v -0.058 c 0.733,0.336 0.733,0.336 1.175,-0.071 -0.103,-0.27 -0.023,-0.579 -0.189,-0.836 a 12.65,12.65 0 0 1 -0.895,-0.082 c 0.003,-0.026 0.007,-0.057 0.007,-0.083 a 15.219,15.219 0 0 1 -0.457,-0.042 c 0.027,-0.105 0.035,-0.131 -0.268,-0.506 0.143,0.084 0.143,0.084 0.268,0.102 0.159,-0.396 -0.517,-0.309 -0.747,-0.509 -0.049,-0.042 -0.106,-0.099 -0.15,-0.14 0.708,0.121 1.17,0.721 1.82,0.958 -0.027,-0.053 -0.027,-0.053 -0.17,-0.229 l 0.018,-0.039 h 0.004 l 0.351,0.28 c 0.012,-0.012 0.023,-0.031 0.034,-0.046 -1.288,-0.986 -1.393,-1.019 -1.847,-1.167 0.004,0.028 0.012,0.06 0.016,0.087 -0.178,-0.059 -0.249,-0.245 -0.401,-0.336 -0.004,0.023 -0.011,0.053 -0.014,0.076 -0.11,-0.038 -0.257,-0.087 -0.349,-0.158 0.031,-0.012 0.068,-0.031 0.098,-0.042 0.004,-0.023 0.007,-0.053 0.012,-0.071 -0.079,-0.039 -0.186,-0.084 -0.265,-0.123 -0.076,-0.128 -0.076,-0.128 -0.131,-0.245 0.2,0.087 0.463,0.207 0.661,0.294 a 0.273,0.273 0 0 1 0,-0.174 c -0.223,-0.2 -0.223,-0.2 -0.56,-0.272 -0.265,-0.142 -0.265,-0.142 -0.563,-0.389 0.091,-0.004 0.091,-0.004 0.593,0.211 -0.291,-0.226 -0.669,-0.284 -0.956,-0.513 0.087,0.014 0.087,0.014 0.234,0.09 -0.552,-0.501 -1.33,-0.559 -1.912,-1 0.136,0.021 0.261,0.074 0.398,0.094 -0.945,-0.511 -1.973,-0.808 -2.958,-1.214 a 9.16,9.16 0 0 0 -0.934,-0.317 l 0.066,0.039 c -0.215,-0.039 -0.215,-0.039 -0.51,-0.133 0.022,0 0.053,0.004 0.075,0.004 -0.143,-0.065 -0.302,-0.079 -0.456,-0.121 0.023,0.003 0.053,0.003 0.071,0.003 a 13.623,13.623 0 0 0 -0.917,-0.215 13.996,13.996 0 0 0 -0.752,-0.124 c 0.136,0.03 0.275,0.053 0.415,0.082 -0.014,-0.003 -0.029,-0.003 -0.045,-0.003 0.483,0.102 0.59,0.136 1.133,0.312 -1.197,-0.331 -1.22,-0.339 -2.002,-0.46 0.132,0.026 0.276,0.048 0.423,0.076 -0.234,0 -0.46,-0.065 -0.69,-0.094 0.128,0.022 0.252,0.056 0.381,0.086 -0.239,-0.041 -0.476,-0.091 -0.714,-0.136 l 0.158,0.011 c -0.074,-0.015 -0.268,-0.049 -1.329,-0.139 h -0.003 c 0.019,0.003 0.034,0.008 0.053,0.008 h 0.014 c 0.004,0.003 0.008,0 0.008,0 0.302,0.034 0.506,0.061 0.596,0.076 l 0.057,0.006 c -0.019,-0.004 -0.037,-0.004 -0.057,-0.006 -0.203,-0.023 -0.407,-0.054 -0.612,-0.073 -0.003,-0.003 -0.007,-0.003 -0.007,-0.003 h -0.016 v 0.003 c 0.586,0.076 1.058,0.147 1.402,0.223 -0.012,0.005 -0.019,0.005 -0.026,0 a 30.885,30.885 0 0 0 -1.137,-0.178 c 0.422,0.073 0.433,0.076 0.54,0.095 -0.019,0 -0.042,0 -0.061,-0.003 a 0.324,0.324 0 0 0 0.087,0.018 c -0.077,-0.011 -0.087,-0.011 -0.25,-0.037 0.094,0.022 0.126,0.029 0.196,0.053 -0.619,-0.128 -0.657,-0.136 -0.955,-0.173 0.054,0.013 0.179,0.043 0.625,0.157 z m -0.828,-0.194 c -0.026,-0.004 -0.057,-0.004 -0.082,-0.008 l 0.008,0.004 c 0.022,10e-4 0.048,10e-4 0.074,0.004 z m -0.23,12.054 c -0.026,-0.192 0.193,-0.241 0.25,-0.385 a 0.179,0.179 0 0 0 0.011,-0.064 c 0.003,-0.057 -0.031,-0.11 -0.049,-0.144 h -0.034 c -0.117,0.012 -0.211,0.073 -0.311,0.125 a 0.638,0.638 0 0 1 -0.098,0.048 c -0.011,0.176 0.054,0.292 0.231,0.42 z m 0.027,31.663 c -0.125,0.004 -0.283,-0.049 -0.344,-0.068 -0.34,-0.113 -0.4,-0.11 -0.51,-0.105 -0.193,0.037 -0.258,0.128 -0.333,0.326 0.294,0.018 0.571,0.142 0.866,0.162 a 0.763,0.763 0 0 0 0.422,-0.081 c 0.004,-0.011 0.004,-0.026 0.004,-0.037 0.003,-0.102 0.008,-0.154 -0.091,-0.197 z m 6.501,-35.037 c -0.03,-0.06 -0.03,-0.06 -0.057,-0.252 -0.015,-0.125 -0.068,-0.155 -0.177,-0.22 -0.688,0.262 -0.726,-0.997 -1.394,-0.698 -0.102,-0.136 -0.102,-0.136 -0.805,-0.543 0.041,-0.039 0.041,-0.039 0.321,-0.046 a 0.224,0.224 0 0 1 -0.068,-0.113 l 0.05,-0.061 a 0.308,0.308 0 0 1 -0.008,-0.068 c -0.019,-0.011 -0.046,-0.03 -0.065,-0.042 l 0.386,-0.026 c -0.205,-0.176 -0.488,-0.173 -0.715,-0.305 0.121,-0.039 0.275,-0.087 0.396,-0.121 l -0.332,-0.325 c 0.019,0.052 0.045,0.102 0.061,0.155 -0.008,0.008 -0.216,0.15 -0.291,0.131 a 0.213,0.213 0 0 1 -0.026,-0.045 c 0.014,-0.016 0.014,-0.016 0.116,-0.091 a 0.765,0.765 0 0 0 -0.231,-0.026 c -0.003,-0.015 -0.011,-0.029 -0.014,-0.045 0.06,-0.079 0.06,-0.079 0.116,-0.091 0.019,-0.032 0.042,-0.079 0.06,-0.108 -0.101,-0.272 -0.431,-0.178 -0.581,-0.367 -0.02,0.034 -0.042,0.084 -0.057,0.118 -0.166,0.105 -0.367,0.014 -0.359,-0.121 0,-0.007 0,-0.007 0.344,-0.175 -0.124,-0.102 -0.283,-0.237 -0.408,-0.339 l -0.141,0.373 c -0.079,-0.061 -0.074,-0.192 -0.196,-0.211 h -0.007 l 0.019,-0.05 c -0.072,-0.079 -0.227,0.003 -0.268,-0.133 0.037,-0.048 0.094,-0.071 0.143,-0.105 -0.163,-0.113 -0.23,-0.299 -0.347,-0.449 -0.216,-0.023 -0.423,-0.107 -0.642,-0.087 a 0.175,0.175 0 0 0 -0.019,0.042 c 0.045,0.064 0.113,0.116 0.144,0.195 -0.061,-0.026 -0.137,-0.064 -0.194,-0.09 l 0.034,0.275 c -0.249,0.071 -0.223,-0.298 -0.415,-0.362 -0.038,0.105 -0.086,0.245 -0.129,0.352 l -0.158,-0.113 c 0.147,-0.409 0.121,-0.723 -0.09,-1.085 -0.344,0.016 -0.397,0.205 -0.401,0.228 a 0.471,0.471 0 0 1 0.034,0.048 c -0.061,0.015 -0.068,0.012 -0.159,-0.056 -0.03,0 -0.026,0.008 -0.026,0.019 l -0.234,0.03 c 0.03,0.141 0.03,0.141 -0.011,0.183 -0.019,-0.02 -0.019,-0.02 -0.17,-0.042 -0.102,0.166 0.118,0.292 0.14,0.302 l 0.042,-0.026 c 0.068,0.042 0.068,0.042 0.072,0.385 -0.091,-0.052 -0.208,-0.121 -0.299,-0.17 -0.023,0.097 -0.056,0.249 0.09,0.388 0.103,0.095 0.065,0.265 -0.108,0.499 a 0.147,0.147 0 0 1 -0.049,-0.086 31.149,31.149 0 0 1 -0.349,-0.038 c -0.003,-0.015 -0.003,-0.031 -0.007,-0.046 0.333,-0.121 -0.026,-0.524 0.196,-0.72 -0.117,-0.33 -0.117,-0.33 0.492,-1.012 -0.22,-0.084 -0.254,-0.076 -0.454,-0.05 -0.339,0.165 -0.495,0.532 -0.789,0.747 -0.042,0.294 -0.272,0.522 -0.302,0.816 0.642,0.186 0.642,0.186 0.683,0.294 -0.226,0.223 -0.442,-0.056 -0.669,-0.04 0.016,0.089 0.034,0.207 0.047,0.297 0.082,0.419 2.833,0.624 2.858,0.616 -0.007,-0.189 -0.17,-0.291 -0.241,-0.446 0.26,-0.136 0.358,0.226 0.57,0.265 0.057,0.354 0.499,0.494 0.491,0.884 -0.076,0 -0.147,-0.005 -0.219,-0.005 0.003,0.031 0.011,0.06 0.019,0.094 0.131,0.087 0.173,0.058 0.272,-0.014 0.108,-0.081 0.192,-0.034 0.196,-0.031 l 0.775,0.59 c 0.003,0.008 0.283,0.698 -0.155,0.892 0.014,0 0.026,0.003 0.041,0.003 0.303,0.132 0.46,0.068 0.597,-0.239 0.121,0.073 0.125,0.076 0.204,0.322 0.095,-0.007 0.095,-0.007 0.349,0.103 a 0.499,0.499 0 0 1 0.041,0.241 c -0.019,0.095 -0.121,0.105 -0.32,0.095 -0.247,-0.012 -0.262,0.008 -0.318,0.079 -0.046,-0.113 -0.107,-0.26 -0.151,-0.375 -0.359,-0.079 -0.51,-0.113 -0.65,-0.04 -0.074,0.037 -0.249,0.41 -0.211,0.486 0.057,0.106 0.209,0.151 0.198,0.298 l -0.764,0.223 c -0.25,0 -0.438,-0.178 -0.672,-0.223 0.072,0.276 -0.239,0.375 -0.284,0.598 0.159,0.218 0.445,0.324 0.465,0.328 0.256,0.019 0.411,-0.249 0.665,-0.238 0.147,0.008 0.28,-0.09 0.43,-0.071 0.023,0.003 0.065,0.026 0.094,0.14 0.076,-0.019 0.084,-0.019 0.147,-0.023 0.186,0.254 0.634,0.304 0.582,0.742 h -0.076 c 0.167,0.128 0.167,0.147 0.178,0.245 0.023,0.004 0.053,0.008 0.071,0.015 0.152,0.076 0.23,0.234 0.378,0.31 0.16,0.083 0.352,0.057 0.506,0.147 0.382,0.228 0.711,0.423 1.058,0.393 -0.276,-0.551 -0.96,-0.755 -1.16,-1.367 0.317,0.089 0.465,0.536 0.881,0.422 0.238,0.181 0.438,0.412 0.668,0.603 -0.018,-0.113 -0.022,-0.124 -0.086,-0.165 0.041,-0.053 0.098,-0.121 0.14,-0.17 -0.219,-0.294 -0.219,-0.294 -0.238,-0.412 0.272,-0.176 -0.17,-0.446 -0.053,-0.683 -1.231,-1.13 -1.231,-1.13 -1.382,-1.337 a 0.118,0.118 0 0 0 0.019,-0.039 c 0.208,-0.041 0.208,-0.041 0.522,0.382 0.174,-0.215 -0.231,-0.37 -0.061,-0.585 0.121,0.128 0.144,0.147 0.412,0.275 0.063,0.03 0.158,0.076 0.211,0.124 0.027,0.026 0.061,0.065 0.087,0.091 0.082,0.09 0.014,0.23 0.098,0.32 0.177,0.193 0.443,0.27 0.616,0.464 0.034,-0.233 -0.144,-0.404 -0.193,-0.606 0.367,0.181 0.355,0.022 0.337,-0.183 -0.021,-0.216 0.017,-0.305 0.293,-0.216 z m -7.748,2.354 v 0.02 c -0.012,0.074 -0.049,0.113 -0.158,0.197 -0.079,0.061 -0.171,0.124 -0.155,0.218 0.016,0.095 0.166,0.317 0.4,0.132 0.023,-0.014 0.041,-0.033 0.061,-0.053 0.139,-0.132 0.234,-0.305 0.4,-0.412 a 0.267,0.267 0 0 1 0.045,-0.026 c -0.075,-0.011 -0.162,-0.018 -0.249,-0.034 -0.122,-0.011 -0.242,-0.03 -0.344,-0.042 z m -0.027,-11.113 -0.034,-0.003 0.016,0.003 z m -0.041,0 c -0.004,0.005 -0.004,0.005 -0.007,0 h -0.016 c 0.012,0 0.026,0.005 0.037,0.005 -0.002,0 -0.01,0 -0.014,-0.005 z m 0.015,0.042 c 0.03,0.008 0.057,0.026 0.087,0.034 0.246,0.05 0.45,0.253 0.726,0.2 0,-0.003 -0.004,-0.008 -0.004,-0.015 -0.007,-0.003 -0.015,-0.011 -0.027,-0.018 0.06,0.012 0.121,-0.004 0.178,0.015 0,0 0.026,0.016 0,0.045 0.011,0.005 0.026,0.013 0.038,0.016 0.106,-0.023 0.106,-0.023 0.117,-0.042 -0.015,-0.026 -0.03,-0.034 -0.106,-0.068 -0.004,-0.019 -0.004,-0.019 -0.029,-0.045 0.029,-0.011 0.173,0.011 0.189,0.083 0.086,0.056 0.195,0.026 0.287,0.082 -0.069,0.023 -0.129,-0.029 -0.193,-0.026 0.011,0.008 0.025,0.021 0.038,0.026 -0.027,0.054 -0.189,0.042 -0.321,0.023 l 0.241,0.14 0.004,-0.011 0.121,0.045 0.003,0.026 c -0.237,-0.056 -0.449,-0.185 -0.69,-0.229 0,0.011 -0.005,0.026 -0.005,0.04 0.054,0.06 0.054,0.06 0.21,0.148 0.241,0.135 0.241,0.158 0.252,0.245 0.137,0.079 0.166,0.065 0.212,0.026 0.03,-0.022 0.056,-0.029 0.125,0.005 0.022,0.121 0.022,0.121 0.011,0.139 -0.114,0.011 -0.189,-0.091 -0.29,-0.11 -0.098,-0.019 -0.197,0.023 -0.295,0.007 0.057,0.092 -0.052,0.166 -0.014,0.257 0.04,0.003 0.04,0.003 0.063,-0.003 0.004,-0.005 0.004,-0.013 0.008,-0.016 l 0.14,0.063 c 0.052,-0.016 0.064,-0.016 0.038,-0.079 -0.034,-0.083 0.007,-0.091 0.067,-0.057 0.008,0.061 0.068,0.107 0.057,0.17 -0.003,0.031 -0.008,0.058 -0.09,0.053 0.033,0.065 0.176,0.144 0.237,0.175 a 4.99,4.99 0 0 1 0.133,-0.163 c 0.042,0.034 0.06,0.048 0.06,0.09 0,0.057 -0.048,0.091 -0.064,0.144 -0.317,0.113 -0.442,-0.28 -0.717,-0.28 -0.023,0.046 -0.031,0.06 0.015,0.118 0.067,0.083 0.165,0.125 0.242,0.2 -0.053,0.046 -0.077,0.049 -0.231,0.049 -0.272,-0.003 -0.397,0.128 -0.275,0.288 0.264,0.026 0.46,0.071 0.706,0.165 -0.049,-0.099 -0.049,-0.099 -0.072,-0.105 0.038,-0.039 0.075,-0.042 0.23,0.014 a 0.44,0.44 0 0 0 0.204,0.046 4.597,4.597 0 0 1 -0.022,-0.183 c 0.144,0.057 0.234,0.201 0.385,0.243 -0.007,0.026 -0.018,0.056 -0.026,0.082 0.198,0.102 0.333,-0.014 0.325,-0.147 0.057,0.011 0.151,0.121 0.173,0.039 0.02,-0.081 -0.082,-0.17 -0.121,-0.243 -0.056,-0.011 -0.068,0.004 -0.091,0.034 l -0.098,-0.037 c 0.004,-0.003 0.009,-0.008 0.013,-0.008 0,-0.015 0,-0.015 -0.05,-0.097 -0.129,0.044 -0.31,-0.189 -0.371,-0.026 -0.018,-0.013 -0.049,-0.034 -0.061,-0.054 0.012,-0.027 0.042,-0.035 0.049,-0.06 -0.019,-0.022 -0.053,-0.037 -0.075,-0.053 0.003,-0.015 0.015,-0.034 0.019,-0.049 0.128,0.023 0.211,0.144 0.344,0.148 0.086,0.003 0.173,-0.026 0.26,-0.016 -0.011,-0.019 -0.025,-0.034 -0.037,-0.05 -0.144,-0.178 -0.083,-0.181 0.205,-0.21 -0.073,-0.034 -0.168,-0.08 -0.238,-0.109 l 0.238,-0.013 c -0.054,-0.045 -0.128,-0.053 -0.189,-0.087 v -0.014 c 0.037,-0.007 0.063,0 0.143,0.019 a 3.578,3.578 0 0 1 -0.064,-0.11 c -0.241,-0.11 -0.371,-0.129 -0.438,-0.125 -0.004,-0.003 -0.008,-0.011 -0.012,-0.014 0.03,-0.06 0.03,-0.06 0.03,-0.065 -0.06,-0.018 -0.098,-0.045 -0.11,-0.079 0,-0.003 0.005,-0.011 0.008,-0.016 0.099,-0.008 0.181,0.057 0.275,0.053 0.005,-0.011 0.005,-0.022 0.008,-0.034 0.065,-0.029 0.136,-0.026 0.208,-0.04 v -0.023 a 1.558,1.558 0 0 0 -0.196,-0.098 h 0.011 a 0.17,0.17 0 0 0 0.088,-0.02 c -0.023,-0.064 -0.088,-0.086 -0.118,-0.14 a 0.062,0.062 0 0 0 0.016,-0.01 c -0.003,-0.005 -0.003,-0.013 -0.008,-0.016 l -0.011,-0.003 h 0.008 a 0.87,0.87 0 0 0 -0.208,-0.092 c -0.003,-0.003 -0.003,0 -0.003,0 v 0.003 c 0,0.008 -0.003,0.015 -0.016,0.02 -0.011,0.003 -0.14,0.026 -0.158,-0.016 0.007,-0.008 0.015,-0.018 0.022,-0.023 l 0.011,-0.011 c -0.038,-0.008 -0.075,-0.011 -0.109,-0.016 h -0.008 c -0.003,-0.003 -0.011,-0.003 -0.016,-0.003 -0.029,-0.007 -0.056,-0.007 -0.086,-0.015 h 0.031 c 0.072,0.008 0.087,0.008 0.099,0.003 0,-0.003 0.003,-0.003 0.003,-0.008 0,0 -0.069,-0.045 -0.276,-0.071 a 8.833,8.833 0 0 0 -0.741,-0.068 l -0.214,-0.011 h -0.027 l -0.008,-0.005 -0.228,-0.006 -0.106,-0.005 h -0.014 l 0.109,0.011 c -0.037,0.005 -0.075,0 -0.109,-0.003 0.079,0.011 0.154,0.023 0.18,0.031 -0.098,0.006 -0.196,-0.023 -0.294,-0.031 a 0.3,0.3 0 0 1 0.064,0.015 c -0.026,0 -0.053,-0.007 -0.08,-0.007 0.009,0.026 0.009,0.026 0.096,0.029 z m -0.087,2.183 c -0.09,0.042 -0.158,0.404 -0.155,0.409 0,0.014 0.027,0.06 0.057,0.063 0.071,0 0.132,-0.052 0.204,-0.06 0.026,0.034 0.08,0.046 0.087,0.094 0.071,0.016 0.162,0.031 0.233,0.042 -0.003,-0.023 -0.011,-0.045 -0.015,-0.068 0.015,-0.026 0.027,-0.029 0.088,-0.026 l 0.094,0.186 c 0.309,-0.122 0.963,0.318 0.959,-0.141 0.03,0.012 0.068,0.031 0.091,0.054 0.045,0.045 0.007,0.116 0.048,0.161 0.035,0.042 0.084,0.031 0.125,0.049 0.09,0.042 0.151,0.061 0.163,-0.029 0.208,0.06 0.204,0.011 0.197,-0.065 -0.008,-0.045 -0.013,-0.103 0.142,-0.083 -0.011,-0.061 -0.041,-0.079 -0.125,-0.132 l 0.125,-0.113 a 5.977,5.977 0 0 0 -0.426,-0.299 1.135,1.135 0 0 0 -0.351,-0.008 c -0.182,0.019 -0.356,0.073 -0.533,0.094 -0.11,-0.098 -0.287,0.039 -0.381,-0.113 -0.164,-0.026 -0.266,-0.192 -0.442,-0.181 a 0.159,0.159 0 0 0 0.045,-0.037 c -0.011,-0.038 -0.049,-0.062 -0.06,-0.102 0,-0.016 0.015,-0.039 0.026,-0.047 0.095,0.054 0.2,0.099 0.352,0.087 0.008,-0.143 -0.196,-0.074 -0.249,-0.177 0.012,-0.026 0.041,-0.044 0.053,-0.072 -0.019,-0.04 -0.038,-0.04 -0.098,-0.038 -0.208,-0.003 -0.243,0.003 -0.307,0.068 0.023,0.128 0.181,0.192 0.166,0.344 -0.011,0.095 -0.037,0.106 -0.113,0.14 z m -0.143,-1.107 c -0.083,0.004 -0.14,0.016 -0.178,0.042 0.117,0.084 0.313,0.14 0.465,0.091 a 0.21,0.21 0 0 1 -0.018,-0.057 0.446,0.446 0 0 0 -0.269,-0.076 z m 0.071,-1.005 c 0,0.005 0,0.008 -0.004,0.013 0.043,0.026 0.091,0.029 0.129,0.06 0,0.003 -0.003,0.008 -0.003,0.008 -0.057,0 -0.057,0 -0.076,-0.008 0.004,0.003 0.004,0.008 0.004,0.008 -0.011,0.014 -0.011,0.014 -0.083,0.014 0.057,0.046 0.136,0.034 0.189,0.086 0.007,-0.011 0.016,-0.021 0.018,-0.034 0.049,0.02 0.071,0.031 0.094,0.057 -0.007,0.016 -0.019,0.034 -0.131,0.005 -0.081,-0.021 -0.098,-0.021 -0.11,-0.021 0.022,0.021 0.034,0.026 0.037,0.049 0.012,0.045 0.015,0.045 0.083,0.058 a 0.943,0.943 0 0 1 -0.064,0.04 c -0.027,0.046 0.031,0.065 0.045,0.095 0.022,0.004 0.043,0.004 0.065,0.004 0.025,-0.042 0.072,-0.023 0.166,0.023 0.087,0.04 0.132,0.053 0.177,0.04 -0.019,0.05 -0.056,0.058 -0.163,0.031 -0.108,-0.027 -0.113,-0.027 -0.174,-0.005 a 0.09,0.09 0 0 0 -0.006,0.02 c 0.034,0.048 0.09,0.074 0.12,0.129 0.013,0.018 0.013,0.048 0.004,0.071 0.061,0.023 0.08,0.031 0.08,0.083 0,0.026 0,0.048 0.026,0.056 0.087,0.026 0.196,-0.014 0.186,-0.056 0.011,-0.02 0,-0.042 0.019,-0.057 0.016,-0.011 0.049,0 0.049,0 0.045,0.019 0.072,0.091 0.102,0.132 a 0.31,0.31 0 0 0 0.038,-0.271 c 0.026,0.018 0.061,0.037 0.086,0.052 -0.06,-0.083 -0.048,-0.105 0.053,-0.128 0.068,-0.011 0.122,-0.023 0.079,-0.079 l -0.026,-0.026 h -0.022 c -0.046,-0.016 -0.06,-0.073 -0.113,-0.073 -0.064,0 -0.064,0 -0.084,-0.008 -0.004,-0.003 -0.011,-0.003 -0.015,-0.006 l 0.015,-0.065 c -0.079,-0.11 -0.223,-0.11 -0.324,-0.181 -0.011,0.003 -0.023,0.003 -0.034,0.008 -0.159,-0.057 -0.294,-0.181 -0.476,-0.181 h -0.027 c 0.057,0.03 0.121,0.022 0.181,0.045 -0.03,0.012 -0.08,0.012 -0.11,0.012 z m 1.44,10.339 c 0,-0.087 -0.03,-0.15 -0.072,-0.241 -0.181,0.118 -0.279,0.154 -0.441,-0.008 0.041,-0.082 0.112,-0.218 0,-0.362 -0.212,-0.268 -0.553,-0.378 -0.779,-0.623 l -0.102,0.102 c -0.14,-0.007 -0.151,-0.007 -0.192,-0.068 0.037,-0.054 0.041,-0.129 0.09,-0.178 0.004,-0.008 0.03,-0.026 0.095,-0.019 -0.061,-0.052 -0.137,-0.121 -0.198,-0.175 l -0.025,0.042 -0.265,0.439 c -0.007,0.424 -0.075,0.503 -0.725,1.274 0.128,0.003 0.151,0.003 0.181,-0.031 a 0.246,0.246 0 0 1 0.254,-0.071 c 0.071,0.026 0.297,0.136 0.199,0.352 0.287,-0.068 0.529,-0.212 0.797,-0.688 0.015,-0.005 0.109,-0.008 0.159,0.037 0.094,0.086 0.133,0.212 0.214,0.307 0.118,-0.034 0.212,-0.021 0.37,0.026 0.421,0.12 0.444,-0.073 0.44,-0.115 z m -1.413,-9.466 c 0.007,-0.019 0.019,-0.045 0.012,-0.084 -0.02,-0.079 -0.114,-0.142 -0.194,-0.192 -0.09,-0.06 -0.124,-0.083 -0.151,-0.126 a 2.4,2.4 0 0 1 -0.029,0.128 c 0.048,0.107 0.029,0.235 0.113,0.325 0.079,-0.028 0.166,-0.032 0.249,-0.051 z m -0.48,0.551 c 0.023,0.016 0.049,0.031 0.068,0.05 l 0.053,0.063 c 0.016,0.034 0,0.042 -0.037,0.061 0.128,0.099 0.2,0.054 0.393,-0.064 -0.004,-0.015 -0.004,-0.015 -0.015,-0.105 -0.009,-0.039 -0.015,-0.065 -0.049,-0.08 -0.042,-0.019 -0.087,-0.019 -0.129,-0.037 -0.042,-0.016 -0.087,-0.037 -0.131,-0.053 -0.043,-0.011 -0.061,-0.011 -0.084,-0.011 -0.015,0.003 -0.034,0.006 -0.053,0.021 a 0.765,0.765 0 0 0 -0.064,0.073 c -0.012,0.029 0.011,0.053 0.048,0.082 z m -0.268,0.997 a 0.423,0.423 0 0 1 0.094,0.081 c 0.005,0.003 0.009,0.011 0.012,0.014 0.053,0.026 0.128,0.054 0.173,0.042 0.073,-0.019 0.081,-0.102 0.083,-0.208 0.004,-0.061 0.004,-0.102 0.015,-0.131 0.022,-0.076 -0.041,-0.149 -0.048,-0.155 -0.038,-0.042 -0.102,-0.042 -0.125,-0.039 -0.147,0.016 -0.479,0.189 -0.313,0.325 0.034,0.026 0.071,0.05 0.109,0.071 z m 0.14,71.497001 a 0.326,0.326 0 0 1 -0.084,0.026 c 0.046,-0.006 0.087,-0.019 0.132,-0.033 -0.017,0 -0.033,0.004 -0.048,0.007 z m -0.155,-73.142001 c -0.011,0.029 -0.045,0.045 -0.05,0.079 -0.003,0.019 0.02,0.038 0.035,0.048 0.038,-0.003 0.079,0.008 0.12,0 0.026,-0.006 0.031,-0.019 0.053,-0.045 a 0.157,0.157 0 0 0 0.027,-0.053 c 0.018,-0.053 0.003,-0.105 0.003,-0.113 -0.003,-0.015 -0.011,-0.034 -0.007,-0.049 0.004,-0.011 0.031,-0.023 0.057,-0.034 0.045,-0.015 0.037,-0.029 0.015,-0.06 0.004,-0.003 0.007,-0.011 0.007,-0.016 0.004,-0.034 -0.034,-0.061 -0.063,-0.079 -0.076,-0.053 -0.094,-0.076 -0.06,-0.121 -0.103,0.042 -0.136,0.008 -0.17,-0.049 -0.026,-0.045 -0.046,-0.063 -0.087,-0.063 -0.004,0 -0.173,0.034 -0.105,0.098 0.022,0.018 0.048,0.031 0.067,0.052 0.012,0.012 0.027,0.031 0.027,0.046 0,0.038 -0.02,0.063 -0.099,0.108 -0.033,-0.019 -0.076,-0.04 -0.11,-0.061 -0.011,0.034 -0.04,0.058 -0.048,0.095 -0.004,0.028 -0.004,0.028 0.019,0.046 0.191,-0.072 0.395,0.113 0.369,0.171 z m 0.094,3.025 c 0.291,-0.16 0.438,-0.473 0.706,-0.658 l -0.011,-0.101 c -0.284,0.006 -0.526,-0.174 -0.804,-0.178 -0.083,0 -0.083,0 -0.099,0.03 -0.034,0.057 0.004,0.125 -0.023,0.181 -0.056,0.11 -0.132,0.058 -0.242,-0.019 -0.105,0.367 -0.336,0.688 -0.374,1.078 0.057,0.022 0.136,-0.038 0.178,0.037 l 0.31,-0.226 c 0.025,-0.073 0.033,-0.088 -0.023,-0.155 -0.049,-0.065 -0.046,-0.076 -0.008,-0.133 0.168,-0.037 0.27,0.039 0.39,0.144 z m -0.974,-2.385 c 0.007,-0.008 0.007,-0.019 0.012,-0.026 0.011,-0.044 -0.016,-0.094 -0.072,-0.136 -0.022,0.023 -0.053,0.05 -0.075,0.073 0.033,0.086 0.044,0.116 0.135,0.089 z m -0.174,0.103 c 0.007,0.045 0.041,0.087 0.038,0.136 -0.004,0.042 -0.009,0.045 -0.054,0.087 0.03,0.087 0.08,0.113 0.261,0.129 0.121,0.007 0.147,0.015 0.197,0.038 -0.257,0.181 -0.257,0.181 -0.28,0.302 a 0.132,0.132 0 0 1 0.046,-0.023 c 0.105,-0.038 0.177,0.06 0.272,0.065 0.178,0.003 0.207,-0.073 0.241,-0.16 0.035,-0.095 0.064,-0.11 0.129,-0.128 0.023,-0.178 0.23,-0.253 0.248,-0.439 0.008,-0.063 -0.086,-0.128 -0.131,-0.173 -0.031,0.037 -0.016,0.09 -0.057,0.121 -0.037,0.026 -0.082,0.029 -0.095,-0.019 -0.008,-0.026 0.005,-0.053 0,-0.081 -0.113,-0.033 -0.143,-0.029 -0.184,-0.026 -0.045,0.02 -0.053,0.039 -0.023,0.144 0.042,0.128 0.042,0.173 -0.018,0.228 -0.095,-0.028 -0.11,-0.034 -0.132,-0.148 -0.012,-0.061 -0.015,-0.068 -0.05,-0.105 a 0.222,0.222 0 0 0 -0.075,0.11 c -0.041,0.116 -0.053,0.128 -0.139,0.166 -0.069,-0.105 0.045,-0.182 0.037,-0.279 -0.069,0.018 -0.163,0.036 -0.231,0.055 z m 4.503,40.835 c -0.288,-0.166 -0.533,-0.401 -0.85,-0.517 -0.288,-0.105 -0.597,-0.079 -0.889,-0.163 -0.339,-0.099 -0.642,-0.302 -0.992,-0.37 -0.431,-0.087 -0.779,-0.416 -1.24,-0.419 -1.836,0.008 -2.046,0.529 -2.235,0.994 0.649,0.045 0.971,-0.695 1.613,-0.673 0.2,0.541 0.929,-0.102 1.141,0.435 0.808,-0.378 1.106,0.627 1.755,0.688 -0.095,0.125 -0.222,0.291 -0.321,0.415 l 0.094,0.102 c 0.548,-0.241 1.187,-0.037 1.723,-0.339 0.065,-0.04 0.141,-0.108 0.201,-0.153 z m -4.619,-41.903 c 0.029,0.008 0.026,0.021 0.022,0.042 0.018,-0.013 0.04,-0.021 0.056,-0.031 l 0.076,0.091 0.131,-0.042 c 0.004,-0.008 0.011,-0.019 0.011,-0.027 0.023,-0.049 0.009,-0.102 0.016,-0.151 -0.003,0 -0.007,0.003 -0.011,0.008 -0.136,0.071 -0.295,0.037 -0.43,0.105 0.041,0.005 0.086,-0.011 0.129,0.005 z m -0.409,0.422 c 0.129,0.023 0.186,-0.11 0.294,-0.132 a 0.338,0.338 0 0 1 -0.037,-0.031 c 0.049,-0.068 0.139,-0.06 0.204,-0.097 l 0.011,-0.013 c -0.044,-0.011 -0.076,-0.014 -0.139,-0.011 -0.056,0 -0.09,0.003 -0.178,0.016 a 1.865,1.865 0 0 1 -0.124,0.019 c -0.008,0 -0.016,-0.005 -0.02,0 0,0 -0.117,0.11 -0.124,0.121 -0.019,0.023 -0.008,0.044 -0.004,0.057 0.114,0.006 0.121,0.04 0.117,0.071 z m 0.888,2.217 c 0,-0.045 0.004,-0.086 0.007,-0.128 -0.06,-0.014 -0.121,-0.022 -0.294,0 -0.181,0.026 -0.257,0.016 -0.329,-0.102 -0.022,0.004 -0.052,0.012 -0.075,0.015 -0.114,0.061 -0.079,0.189 -0.128,0.28 -0.068,0.008 -0.064,-0.076 -0.105,-0.102 a 0.777,0.777 0 0 0 -0.058,0.034 c -0.019,0.052 -0.022,0.068 0.004,0.121 0.038,0.063 0.114,0.094 0.156,0.158 -0.068,0.039 -0.077,0.05 -0.11,0.163 -0.023,0.087 -0.057,0.11 -0.084,0.113 -0.215,0.034 -0.252,-0.203 -0.249,-0.203 0.004,-0.015 0.015,-0.031 0.019,-0.046 -0.113,-0.021 -0.189,0.008 -0.214,0.042 -0.099,0.113 -0.077,0.28 -0.163,0.401 0.309,0.095 0.309,0.095 0.262,0.218 0.169,0.175 0.06,0.454 0.225,0.632 0.11,-0.084 0.132,-0.099 0.114,-0.265 -0.02,-0.162 -0.004,-0.173 0.091,-0.252 0.022,0.056 0.048,0.134 0.071,0.192 0.095,0.083 0.14,0.06 0.208,-0.023 0.058,-0.064 0.107,-0.108 0.22,-0.045 0.03,-0.121 0.038,-0.145 0.189,-0.344 0.121,-0.158 0.11,-0.205 0.084,-0.294 -0.021,0.008 -0.039,0.018 -0.057,0.026 l -0.068,-0.071 c -0.003,-0.061 0.004,-0.083 0.045,-0.106 a 9.324,9.324 0 0 1 -0.297,-0.03 c 0.121,-0.133 0.324,-0.133 0.441,-0.277 -0.023,-0.011 -0.057,-0.026 -0.079,-0.04 0.071,-0.054 0.102,-0.076 0.166,-0.068 0,-0.002 0.004,0.001 0.008,0.001 z m -1.901,3.371 c 0.106,0.163 0.212,0.241 0.317,0.233 0.004,0 0.314,-0.015 0.367,-0.268 a 0.526,0.526 0 0 0 -0.039,-0.307 c -0.045,-0.113 -0.045,-0.113 -0.127,-0.186 -0.088,-0.071 -0.088,-0.189 -0.128,-0.279 -0.015,0.011 -0.031,0.031 -0.042,0.042 -0.359,0.407 -0.443,0.506 -0.768,0.577 0.247,-0.043 0.323,0.039 0.42,0.188 z m 0.326,-3.434 c 0.004,-0.008 0.008,-0.016 0.008,-0.023 0.06,-0.19 -0.272,-0.095 -0.371,-0.208 -0.011,0.003 -0.022,0.011 -0.033,0.016 -0.201,0.094 -0.185,0.202 -0.133,0.37 0.031,0.108 0.039,0.15 0.021,0.21 0.153,-0.108 0.356,-0.255 0.508,-0.365 z m 0.351,-1.569 c -0.008,0.008 -0.011,0.019 -0.019,0.026 -0.039,0.042 -0.102,0.023 -0.136,0.061 -0.016,0.015 -0.019,0.049 -0.019,0.073 -0.008,0.102 -0.026,0.113 -0.11,0.155 -0.105,-0.05 -0.126,-0.058 -0.159,-0.107 -0.173,0.115 -0.169,0.023 -0.169,0.02 l 0.003,-0.012 c 0.007,-0.016 0.015,-0.029 0.023,-0.045 0.003,-0.003 0.003,-0.011 0.003,-0.015 0.019,-0.045 0.068,-0.068 0.087,-0.113 0.031,-0.071 0.035,-0.147 0.061,-0.22 -0.166,0.034 -0.158,-0.04 -0.129,-0.135 -0.011,-0.004 -0.021,-0.004 -0.034,-0.004 -0.048,0.008 -0.094,0.039 -0.143,0.034 -0.012,0.105 -0.012,0.105 -0.125,0.091 -0.132,-0.018 -0.188,0.029 -0.241,0.087 0.057,0.003 0.131,0.015 0.188,0.021 -0.128,0.136 -0.354,0.004 -0.475,0.171 0.083,0.034 0.256,-0.098 0.26,0.026 -0.118,0.073 -0.181,0.073 -0.307,0.061 -0.163,-0.019 -0.226,0.023 -0.226,0.023 -0.125,0.079 -0.049,0.121 -0.008,0.147 0.049,0.031 0.053,0.039 0.061,0.079 0.189,0.013 0.276,0.016 0.431,-0.105 0.038,0.068 0.038,0.068 0.011,0.102 0.306,-0.042 0.495,-0.064 0.556,0.05 -0.14,0.052 -0.227,0.064 -0.461,0.06 h -0.029 c -0.597,0.008 -0.48,0.155 -0.449,0.185 a 0.552,0.552 0 0 0 0.246,0.049 c 0.146,-0.003 0.664,-0.105 0.705,-0.131 a 0.237,0.237 0 0 1 0.148,-0.039 c 0.109,0.008 0.2,0.094 0.318,0.072 0.037,-0.007 0.354,-0.068 0.404,-0.28 h 0.011 l 0.173,-0.063 c 0.012,-0.023 0.012,-0.023 0.023,-0.243 -0.163,0.046 -0.2,0.095 -0.223,0.125 -0.034,-0.094 -0.147,-0.018 -0.204,-0.075 l 0.162,-0.098 -0.06,-0.023 a 0.087,0.087 0 0 0 -0.016,-0.034 c 0.046,-0.102 0.175,-0.158 0.167,-0.291 -0.114,0.042 -0.208,0.121 -0.326,0.159 -0.015,0.054 0.057,0.096 0.027,0.156 z m -1.175,-0.162 c -0.155,0.058 -0.324,0.053 -0.476,0.118 -0.103,0.042 -0.117,0.11 -0.125,0.136 a 0.513,0.513 0 0 0 0.23,-0.052 c 0.133,-0.055 0.25,-0.134 0.371,-0.202 z m -0.582,-0.061 c 0.023,0.019 0.053,0.008 0.163,-0.056 a 4.193,4.193 0 0 0 -0.072,0.158 c 0.076,-0.038 0.158,-0.076 0.238,-0.113 0.041,-0.023 0.075,-0.065 0.121,-0.071 0.003,-0.004 0.324,-0.068 0.313,0.038 0.079,-0.038 0.135,-0.11 0.214,-0.145 0.073,-0.029 0.103,-0.021 0.144,-0.007 0.071,-0.079 0.291,-0.03 0.265,-0.177 0.06,-0.015 0.121,-0.026 0.177,-0.073 0.08,-0.063 0.076,-0.139 0.076,-0.165 -0.053,0.029 -0.12,0.071 -0.173,0.102 -0.019,-0.057 -0.046,-0.084 -0.14,-0.06 -0.17,0.037 -0.313,0.147 -0.476,0.196 -0.223,0.071 -0.457,0.09 -0.68,0.163 -0.185,0.056 -0.246,0.132 -0.306,0.203 0.098,-0.026 0.114,-0.011 0.136,0.007 z m -3.618,2.687 c 0.023,-0.008 0.052,-0.023 0.076,-0.03 0.2,-0.065 0.2,-0.065 0.483,-0.272 0.37,-0.272 0.37,-0.272 0.454,-0.223 0.21,-0.057 0.339,-0.268 0.559,-0.307 0.128,-0.022 0.261,0.008 0.389,-0.011 -0.472,0.181 -0.877,0.501 -1.344,0.687 0.037,0.103 0.037,0.103 0.385,0.292 -0.151,0.118 -0.34,0.071 -0.506,0.118 -0.185,0.048 -0.185,0.048 -0.311,0.392 1.021,-0.045 1.296,0.045 1.417,0.464 -0.301,0.099 -0.422,0.046 -0.646,-0.068 -0.147,-0.075 -0.237,-0.087 -0.237,-0.087 -0.042,0 -0.095,0.026 -0.136,0.034 -0.238,0.039 -0.488,-0.008 -0.714,0.107 -0.083,0.04 -0.34,0.441 -0.14,0.559 0.083,0.048 0.242,0.061 0.382,0.068 0.026,0.027 0.057,0.064 0.079,0.09 -0.031,0.262 -0.34,0.307 -0.409,0.538 0.015,0.029 0.039,0.071 0.057,0.102 a 0.687,0.687 0 0 0 0.063,-0.058 c 0.987,-0.049 0.987,-0.049 1.156,-0.015 0.359,-0.331 0.915,-0.21 1.273,-0.548 l 0.064,0.081 c -0.045,0.037 -0.048,0.037 -0.083,0.142 0.2,-0.061 0.238,0.023 0.238,0.228 0.389,0.022 1.296,0.079 1.107,-0.315 -0.019,-0.042 -0.073,-0.042 -0.159,-0.026 -0.151,0.026 -0.177,0.015 -0.219,-0.023 0.026,-0.184 0.042,-0.192 0.105,-0.234 l 0.079,0.053 c 0.117,-0.169 0.363,-0.079 0.408,0.031 0,-0.011 0.004,-0.023 0.008,-0.034 0.071,-0.079 0.109,-0.045 0.169,0.023 0.034,-0.023 0.087,-0.05 0.114,-0.081 0.086,-0.139 0.082,-0.165 -0.039,-0.328 l -0.365,-0.748 c 0.344,-0.288 0.335,-0.771 0.624,-1.091 -0.03,-0.265 -0.084,-0.336 -0.295,-0.375 -0.065,0.081 -0.147,0.189 -0.211,0.273 -0.468,0.771 -0.468,0.771 -0.688,0.968 a 3.715,3.715 0 0 1 -0.064,-0.076 c 0.113,-0.27 0.305,-0.499 0.378,-0.787 0.034,-0.132 0.008,-0.144 -0.125,-0.203 -0.084,0.097 0.09,0.255 -0.046,0.32 -0.011,0.003 -0.011,0.003 -0.706,0.034 0.086,-0.166 0.317,0.015 0.396,-0.166 0.057,-0.141 -0.034,-0.265 -0.208,-0.28 h -0.008 c -0.102,0.05 -0.162,0.158 -0.272,0.2 0,0 -0.14,0.026 -0.215,-0.008 0.163,-0.132 0.388,-0.189 0.491,-0.396 a 0.125,0.125 0 0 0 0.015,-0.061 c 0.003,-0.049 -0.049,-0.105 -0.049,-0.155 0.007,-0.155 0.178,-0.283 0.083,-0.457 a 0.886,0.886 0 0 0 -0.341,0.118 l -0.01,-0.028 c 0.052,-0.082 0.174,-0.276 -0.382,-0.255 a 4.014,4.014 0 0 0 -0.495,0.066 c 0.007,0.008 0.012,0.02 0.019,0.028 -0.11,0.211 -0.121,0.233 -1.945,1.205 0.094,0.082 0.094,0.082 -0.261,0.611 0.19,0.008 0.539,-0.351 0.558,-0.086 z m -14.468,13.153 c 0.011,-0.031 0.023,-0.057 0.03,-0.083 -0.015,0 -0.034,0 -0.053,0.004 a 0.133,0.133 0 0 0 0.023,0.079 z m 0.203,-0.819 0.056,-0.148 c 0.026,-0.113 0.072,-0.37 -0.083,-0.352 a 0.42,0.42 0 0 0 -0.086,0.031 c -0.057,0.163 -0.127,0.378 -0.185,0.54 l 0.204,-0.212 z m -0.343,0.554 c 0.045,-0.105 0.004,-0.147 -0.136,-0.139 0,0.004 -0.004,0.011 -0.004,0.016 a 8.493,8.493 0 0 0 -0.14,0.332 c -0.102,0.269 -0.136,0.419 -0.121,0.771 0.068,-0.124 0.139,-0.252 0.186,-0.359 0.048,-0.121 0.045,-0.131 0.034,-0.165 -0.027,-0.071 0.044,-0.2 0.071,-0.257 0.038,-0.066 0.079,-0.131 0.11,-0.199 z m -0.767,4.733 c -0.06,0.262 -0.03,0.357 0.118,0.593 0.121,0.193 0.143,0.262 0.177,0.409 0.121,0.071 0.17,0.126 0.303,0.393 0.135,0.271 0.199,0.359 0.358,0.407 0.004,0 0.284,0.068 0.363,-0.2 0.041,-0.144 0.019,-0.226 0.008,-0.254 -0.008,-0.018 -0.018,-0.044 -0.031,-0.063 -0.086,-0.178 -0.302,-0.239 -0.385,-0.422 -0.037,-0.092 -0.029,-0.175 -0.022,-0.265 a 0.478,0.478 0 0 0 -0.117,-0.348 c -0.03,-0.04 -0.211,-0.249 -0.737,-0.35 -0.012,0.029 -0.024,0.071 -0.035,0.1 z m -0.068,-3.075 c -0.091,-0.071 -0.114,-0.108 -0.136,-0.173 a 0.46,0.46 0 0 0 -0.197,0.256 c -0.06,0.192 -0.038,0.404 -0.099,0.601 l 0.326,-0.163 c 0.056,-0.06 0.155,-0.165 0.2,-0.26 0.065,-0.135 -0.003,-0.188 -0.094,-0.261 z m -0.431,1.395 c 0.004,-0.023 0.004,-0.046 0.027,-0.118 0.027,-0.076 0.06,-0.151 0.087,-0.226 0.06,-0.175 0.03,-0.216 -0.042,-0.231 a 0.041,0.041 0 0 1 -0.018,0.019 c -0.194,0.234 -0.136,0.488 -0.054,0.556 z m -0.684,-10.638 c 0.009,-0.007 0.616,-0.597 0.394,-0.589 -0.023,0 -0.023,0 -0.049,0.015 a 3.63,3.63 0 0 0 -0.479,0.419 c 0.019,-0.015 0.048,-0.039 0.067,-0.052 0.03,-0.013 0.034,-0.013 0.054,-0.013 0,0 0,0.004 0.003,0.008 -0.007,0.034 -0.045,0.083 -0.158,0.215 -0.099,0.118 -0.117,0.139 -0.148,0.185 a 0.387,0.387 0 0 1 0.174,-0.102 c 0.037,-0.009 0.07,-0.017 0.142,-0.086 z m -2.039,5.104 h -0.016 c -0.098,0.026 -0.268,0.2 -0.354,0.341 0.049,0.026 0.208,-0.05 0.378,-0.215 0.037,-0.04 0.033,-0.126 -0.008,-0.126 z m -0.756,-1.961 0.031,-0.034 c 0.011,-0.019 0.014,-0.045 0.026,-0.068 0.022,-0.045 0.049,-0.083 0.076,-0.129 0.004,-0.008 0.011,-0.018 0.015,-0.031 0.016,-0.04 -0.019,-0.045 -0.019,-0.045 -0.008,0 -0.016,0.005 -0.023,0.005 -0.049,0.029 -0.083,0.063 -0.218,0.215 -0.091,0.102 -0.152,0.157 -0.182,0.154 a 4.004,4.004 0 0 1 -0.057,0.121 c 0.038,0.091 0.14,0.039 0.351,-0.188 z m 0.091,2.577 c 0,-0.031 -0.015,-0.061 -0.008,-0.091 a 0.174,0.174 0 0 1 0.042,-0.082 c -0.091,0.116 -0.212,0.275 -0.299,0.392 l -0.083,-0.04 c -0.053,0.019 -0.117,0.04 -0.211,0.143 -0.132,0.143 -0.23,0.314 -0.347,0.469 0.162,-0.042 0.105,0.108 0.105,0.113 -0.026,0.049 -0.083,0.079 -0.105,0.136 0.888,-0.764 0.888,-0.764 1.117,-1.021 a 0.3,0.3 0 0 0 0.042,-0.05 c -0.022,-0.044 -0.056,-0.109 -0.079,-0.158 z"
     fill="url(#b)"
     id="path17"
     style="fill:#4d4d4d" />
  <g
     clip-rule="evenodd"
     fill="#ffffff"
     fill-rule="evenodd"
     opacity="0.75"
     id="g30"
     transform="translate(-17.361115,-267.83457)">
    <path
       d="m 77.363,306.839 c -0.981,1.384 -2.563,0.278 -3.786,1.333 -0.711,0.277 -1.679,0.943 -2.37,0.144 -0.47,-0.385 -0.325,-0.981 -0.159,-1.661 1.154,-0.441 2.501,-1.014 3.219,0.332 0.594,-0.126 0.739,-0.721 0.753,-1.439 0.85,0.477 1.9,0.463 2.343,1.291 z"
       opacity="0.58"
       id="path18"
       style="fill:#999999" />
    <path
       d="m 82.48,313.585 -0.538,1.221 c -0.111,-0.207 -0.152,-0.037 -0.214,0.218 -0.277,-1.509 -1.416,-1.787 -2.404,-2.027 -0.718,-0.355 -1.596,0.604 -1.899,-0.462 0.083,-1.333 1.222,-1.055 1.997,-1.587 1.366,0.332 2.824,0.957 3.058,2.637 z"
       opacity="0.59"
       id="path19"
       style="fill:#999999" />
    <path
       d="m 93.305,320.367 c -1.175,1.518 -3.344,2.162 -5.319,1.681 1.346,-0.573 2.604,-1.44 3.205,-2.916 0.311,-1.277 -0.47,-2.368 -0.138,-3.73 1.292,1.306 3.06,2.638 2.252,4.965 z"
       opacity="0.7"
       id="path20"
       style="fill:#999999" />
    <path
       d="m 81.886,322.638 c -1.83,0.905 -4.669,0.665 -6.21,-0.611 2.079,0.055 4.545,0.836 6.272,0.355 z m -31.858,-5.683 c -1.726,0.48 -3.128,2.934 -4.917,2.678 -1.409,0.83 -1.63,2.397 -1.983,3.845 -0.884,0.326 -0.4,-0.999 -0.739,-1.261 0.663,-1.732 1.354,-2.917 2.715,-4.207 1.52,0.37 3.019,-3.143 5.132,-1.907 z m 18.167,9.019 c -0.649,0.022 -1.796,-1.879 -2.231,-0.091 -1.533,-0.645 -2.846,-1.866 -3.84,-3.73 2.646,-1.609 4.8,1.439 6.071,3.821 z m 20.012,4.423 c -0.401,0.984 -0.187,1.757 -0.014,2.7 l -2.466,-0.78 c 0.269,-1.106 1.491,-2.161 0.304,-2.901 -0.497,0.059 -1.257,-0.126 -1.79,-0.256 l -0.69,1.184 c -1.071,-0.892 -2.108,-1.594 -3.082,-2.554 0.443,-0.162 1.078,0.533 1.686,-0.311 l -0.049,-0.462 c 0.954,0.052 2.177,0.98 3.185,0.145 1.113,0.723 2.487,1.687 2.916,3.235 z M 58.65,322.208 c 0.255,0.603 1.016,0.788 0.581,1.583 -1.921,-1.369 -4.076,-2.434 -6.556,-2.497 0.988,-0.752 2.881,-0.921 4.145,-0.163 0.172,0.944 1.069,0.892 1.83,1.077 z m 22.11,9.351 c -1.513,0.263 -3.26,-0.162 -4.482,-1.092 l -0.049,-0.463 c 0.822,-0.069 1.637,-0.772 2.225,-1.532 z M 59.9,329.635 c -0.104,1.418 -0.477,2.95 -1.52,3.597 -0.097,-1.917 0.863,-4.208 -0.677,-5.484 -0.553,-1.036 -1.478,-1.531 -2.466,-1.772 -1.195,1.601 -3.433,-0.115 -5.236,0.347 -1.078,0.459 -1.996,1.588 -2.418,2.658 -0.497,1.049 0.498,1.923 1.154,2.535 0.877,0.031 1.913,0.736 2.334,-0.333 0.104,-0.426 0.27,-1.106 -0.11,-1.199 l -0.76,-0.186 c -0.131,-1.113 0.961,-1.299 1.444,-1.632 1.582,0.116 3.074,0.928 3.716,2.257 0.249,0.962 0.193,1.851 -0.166,2.665 -1.547,1.065 -3.273,1.547 -4.973,1.585 -0.311,1.276 -2.169,0.643 -3.454,0.961 -1.603,-1.02 -4.062,-1.169 -5.526,-3.419 0.207,-0.851 -0.739,-2.253 0.394,-2.609 0.767,1.81 2.101,3.938 4.559,4.087 0.484,-0.334 0.269,-1.107 -0.006,-1.625 -1.859,-1.624 -1.617,-4.27 -0.885,-6.617 1.312,-1.754 2.384,-2.846 4.4,-3.525 l -1.401,1.461 c 1.415,0.796 3.322,-0.092 5.007,0.588 1.692,1.314 0.919,-2.12 2.612,-0.807 1.96,1.199 4.22,3.82 3.978,6.467 z"
       id="path21"
       style="fill:#999999" />
    <path
       d="m 102.34,345.738 c -0.338,-1.253 -1.381,-3.581 -2.895,-2.327 -1.472,0.093 -3.171,1.121 -4.373,0.108 0.207,-0.853 1.451,-1 2.163,-1.277 0.939,-1.214 2.285,-1.787 2.383,-3.837 0.711,-0.278 0.808,1.639 1.899,0.462 1.105,-0.903 0.469,-2.591 0.892,-3.659 1.395,2.863 1.049,6.926 -0.069,10.53 z"
       opacity="0.65"
       id="path22"
       style="fill:#999999" />
    <path
       d="m 40.808,328.052 -0.732,1.354 c -1.14,-0.277 -0.788,-1.725 -1.23,-2.553 0.146,-1.589 0.56,-3.291 1.879,-4.411 1.036,1.695 -0.726,3.97 0.083,5.61 z m 27.934,3.284 -0.539,2.213 c -1.595,-0.389 0.034,-2.786 -0.898,-3.915 0.967,-0.666 1.644,0.852 1.437,1.702 z m -31.347,-3.483 c -1.278,-0.042 -1.83,-1.078 -1.982,-2.107 -0.021,-0.906 0.034,-1.794 0.394,-2.609 0.234,1.681 1.125,2.979 1.588,4.716 z m 24.536,5.342 c -0.525,0.504 -0.642,1.646 -1.506,1.887 0.415,-1.703 1.043,-3.622 0.885,-5.285 0.593,0.867 0.662,2.236 0.621,3.398 z m 33.929,7.089 c -1.637,0.774 -3.785,1.332 -5.284,-0.114 1.748,0.425 3.537,-0.312 5.284,0.114 z m -54.286,-5.464 -0.104,0.426 c -2.134,-1.151 -5.498,0.103 -5.318,-3.279 -0.531,-1.122 -1.644,-1.843 -1.485,-3.156 l 0.166,-0.681 c 1.712,3.212 4.393,4.766 6.741,6.69 z"
       id="path23"
       style="fill:#999999" />
    <path
       d="m 35.095,335.316 c -0.698,0.551 -0.373,1.531 0.171,1.936 0.719,0.355 1.707,0.595 2.459,0.147 1.982,1.114 3.841,2.739 6.224,2.868 -3.744,1.162 -9.615,1.806 -12.592,-2.165 -1.333,-2.127 -0.525,-4.456 -0.325,-6.93 l 1.174,-2.51 c 0.678,2.509 0.816,5.248 2.889,6.654 z m 22.428,-0.219 c -0.235,4.271 -2.479,7.872 -5.809,10.307 -1.285,0.318 -2.646,1.61 -4.062,0.813 1.996,-1.587 6.513,-2.29 5.892,-5.688 -1.139,-0.277 -2.5,1.015 -3.474,0.055 2.313,-1.239 5.083,-3.359 7.073,-5.58 z m 10.12,4.718 c -0.263,2.73 -0.76,5.764 -2.984,7.298 1.022,-1.555 0.069,-3.59 1.111,-5.229 -0.524,-1.48 -1.381,0.385 -1.954,0.425 l -0.229,-0.056 c 0.325,-1.994 1.272,-3.567 2.632,-4.859 0.99,0.241 1.251,1.478 1.424,2.421 z"
       id="path24"
       style="fill:#999999" />
    <path
       d="m 91.812,350.298 c 0.318,0.347 0.863,-0.241 1.077,-0.458 0.705,-1.902 -0.566,-3.295 -1.029,-5.029 1.768,1.332 2.217,3.786 2.231,6.043 0.235,1.68 -0.954,3.915 -0.462,5.205 -0.601,3.46 -4.511,5.305 -7.281,6.433 -3.28,-0.077 -7.363,-0.17 -8.807,-3.497 0.207,-0.85 0.691,-1.185 1.175,-1.516 l 0.607,0.148 c -0.649,1.013 0.843,0.835 1.098,1.439 2.417,0.318 5.243,1.276 6.707,-1.432 l -0.462,-0.744 c 0.815,-0.703 2.604,-1.44 2.597,-3.064 -0.007,-1.625 -0.076,-2.993 -0.795,-4.34 -0.656,-0.611 -1.506,-1.087 -1.816,-1.795 0.67,-0.108 1.596,0.388 1.954,-0.426 -0.49,-1.292 -1.104,-3.065 -2.293,-3.804 2.383,0.129 3.951,3.937 5.222,6.32 z"
       opacity="0.75"
       id="path25"
       style="fill:#999999" />
    <path
       d="m 57.537,344.296 -0.421,0.077 c 1.464,-1.717 2.466,-4.177 3.426,-6.468 0.788,2.718 -1.54,4.674 -3.005,6.391 z m 42.06,5.103 c -0.822,0.069 -0.601,1.476 -1.084,1.81 0.249,-1.023 -0.497,-1.925 -1.334,-2.129 -0.442,0.164 -0.76,-0.185 -0.974,0.034 -0.103,-0.566 1.534,-0.348 2.128,-0.474 0.38,0.092 0.926,0.496 1.264,0.759 z M 81.72,347.121 c -0.518,0.143 -1.34,0.214 -1.637,0.772 -0.394,0.627 0.069,1.37 0.477,2.01 -0.525,0.503 -1.624,0.056 -2.128,-0.518 -0.317,-0.347 -0.151,-1.029 0.18,-1.398 0.857,-0.874 1.996,-1.589 3.108,-0.866 z m 14.188,12.469 c -0.814,0.703 -1.692,1.662 -2.646,1.61 1.175,-1.518 1.485,-3.786 2.826,-4.992 1.223,0.929 0.242,2.313 -0.18,3.382 z M 44.772,347.14 c -0.601,1.476 -2.06,0.852 -3.212,1.291 -1.182,-0.107 -1.858,-1.624 -2.453,-2.49 1.355,1.05 4.518,-0.705 5.665,1.199 z m -8.116,0.278 c -0.255,0.388 -1.775,0.017 -2.507,-0.611 -0.338,-0.263 -0.995,-0.874 -0.981,-1.591 1.229,0.569 2.237,1.717 3.488,2.202 z m 12.993,3.163 c -0.318,0.643 -0.711,1.268 -1.471,1.083 -0.988,-0.24 -1.644,-0.851 -2.086,-1.68 1.174,0.467 2.714,-0.24 3.557,0.597 z m 21.482,10.279 c -1.203,-0.022 -2.515,-1.244 -3.709,-0.632 a 2.058,2.058 0 0 0 -1.278,1.942 c -0.78,-1.09 0.29,-2.183 0.56,-3.29 0.919,-1.129 2.334,-0.332 3.219,0.333 0.317,0.349 0.974,0.958 1.208,1.647 z"
       id="path26"
       style="fill:#999999" />
    <path
       d="m 35.999,352.757 c -1.264,0.233 -2.776,0.497 -3.302,1.991 -0.897,0.051 -1.16,-1.185 -1.375,-1.957 -0.317,-2.333 1.955,-0.427 2.694,-1.148 0.713,-0.278 2.819,-0.666 1.983,1.114 z"
       opacity="0.64"
       id="path27"
       style="fill:#999999" />
    <path
       d="m 49.372,357.004 c -0.055,0.888 -1.312,1.754 -2.113,1.74 -2.881,0.922 -6.308,1.44 -8.297,4.652 -0.311,1.276 0.677,1.518 0.726,2.972 -0.987,-0.24 -1.43,-1.07 -1.755,-2.049 -0.552,-2.029 1.485,-3.787 2.736,-5.286 0.42,-1.068 -0.174,-1.935 -0.892,-2.291 -0.974,-0.958 -2.673,-0.92 -4.02,-0.347 4.069,-3.157 8.787,2.59 13.615,0.609 z"
       opacity="0.5"
       id="path28"
       style="fill:#999999" />
    <path
       d="m 83.392,366.37 c -2.998,2.065 -6.375,0.07 -8.752,-1.409 -0.366,-0.81 -1.312,-1.223 -1.299,-1.939 2.453,2.489 6.667,3.695 10.051,3.348 z"
       opacity="0.6"
       id="path29"
       style="fill:#999999" />
    <path
       d="m 74.592,376.398 c 0.421,-0.078 0.297,-0.559 0.4,-0.984 l -1.098,-1.44 c 1.533,0.645 3.136,1.665 4.967,0.758 -1.133,1.348 -2.75,2.037 -4.269,1.666 z"
       id="path30"
       style="fill:#999999" />
  </g>
</svg>
