<?xml version="1.0" encoding="UTF-8" standalone="no"?>
<!-- Created with Inkscape (http://www.inkscape.org/) -->

<svg
   version="1.1"
   id="svg1"
   width="189"
   height="66"
   viewBox="0 0 189 66"
   sodipodi:docname="global_media.svg"
   inkscape:version="1.3.1 (9b9bdc1480, 2023-11-25, custom)"
   xmlns:inkscape="http://www.inkscape.org/namespaces/inkscape"
   xmlns:sodipodi="http://sodipodi.sourceforge.net/DTD/sodipodi-0.dtd"
   xmlns="http://www.w3.org/2000/svg"
   xmlns:svg="http://www.w3.org/2000/svg">
  <defs
     id="defs1" />
  <sodipodi:namedview
     id="namedview1"
     pagecolor="#ffffff"
     bordercolor="#000000"
     borderopacity="0.25"
     inkscape:showpageshadow="2"
     inkscape:pageopacity="0.0"
     inkscape:pagecheckerboard="0"
     inkscape:deskcolor="#d1d1d1"
     inkscape:zoom="4.6296296"
     inkscape:cx="97.956"
     inkscape:cy="19.224"
     inkscape:window-width="1680"
     inkscape:window-height="986"
     inkscape:window-x="0"
     inkscape:window-y="27"
     inkscape:window-maximized="1"
     inkscape:current-layer="g1" />
  <g
     inkscape:groupmode="layer"
     inkscape:label="Image"
     id="g1">
    <path
       style="fill:#666666;stroke-width:0.938373"
       d="m 9.2857992,60.002543 c 0,-2.710858 -0.3909889,-3.753494 -1.4075601,-3.753494 -0.7741581,0 -1.4075602,-0.422268 -1.4075602,-0.938373 0,-0.516106 1.7946392,-0.924947 3.9880871,-0.908533 3.517348,0.02632 3.794253,0.176986 2.345934,1.276413 -1.03485,0.785568 -1.642154,2.509679 -1.642154,4.662027 0,1.878501 -0.422268,3.415454 -0.938373,3.415454 -0.5161057,0 -0.9383738,-1.689073 -0.9383738,-3.753494 z m 8.3800818,2.26727 c -0.895098,-1.07852 -0.962914,-1.915099 -0.247222,-3.049714 1.324488,-2.099742 5.355173,-2.044744 5.764103,0.07864 0.236522,1.228162 -0.306481,1.642153 -2.153869,1.642153 -1.512895,0 -2.230056,0.38843 -1.850635,1.002352 0.340716,0.551285 1.232104,0.767261 1.980863,0.479931 0.760238,-0.291731 1.108228,-0.112802 0.788077,0.405218 -0.856495,1.385837 -2.887507,1.12084 -4.281317,-0.558595 z m 3.818773,-3.205644 c 0,-0.516105 -0.422268,-0.938373 -0.938373,-0.938373 -0.516106,0 -0.938374,0.422268 -0.938374,0.938373 0,0.516106 0.422268,0.938374 0.938374,0.938374 0.516105,0 0.938373,-0.422268 0.938373,-0.938374 z m 5.630241,0 c 0,-2.580526 0.422268,-4.69187 0.938373,-4.69187 0.516106,0 0.938374,2.111344 0.938374,4.69187 0,2.580527 -0.422268,4.691868 -0.938374,4.691868 -0.516105,0 -0.938373,-2.111341 -0.938373,-4.691868 z m 16.095229,3.082088 c -1.201208,-2.244477 0.287042,-4.958834 2.718867,-4.958834 1.006566,0 1.830119,0.409008 1.830119,0.908917 0,0.49991 -0.590689,0.682254 -1.312642,0.405218 -1.636634,-0.628034 -2.793893,1.104222 -2.043713,3.059163 0.480312,1.251669 0.791992,1.279651 2.112498,0.189655 1.324188,-1.093036 1.481561,-1.074325 1.084104,0.128914 -0.688107,2.083114 -3.331223,2.243885 -4.389233,0.266967 z m 9.278225,0.247243 c -0.621939,-0.749385 -0.856322,-2.227324 -0.520851,-3.284307 0.82442,-2.597512 4.834405,-2.597512 5.658826,0 0.65659,2.068738 -0.913192,4.646844 -2.829413,4.646844 -0.64777,0 -1.686622,-0.613143 -2.308562,-1.362537 z m 3.716122,-1.92177 c 0,-1.459697 -0.531745,-2.345934 -1.40756,-2.345934 -1.407463,0 -1.962431,2.885827 -0.781978,4.066282 1.275818,1.275812 2.189538,0.557891 2.189538,-1.720348 z m 5.630241,0.0038 v -3.39115 l 4.457273,0.286007 c 3.873259,0.248537 4.498422,0.576827 4.771315,2.505579 0.172723,1.220758 -0.143978,2.677583 -0.70378,3.237388 -0.731512,0.731528 -1.017821,0.173167 -1.017821,-1.984951 0,-1.651537 -0.422268,-3.002795 -0.938373,-3.002795 -0.516106,0 -0.938374,1.030747 -0.938374,2.290551 0,1.259804 -0.422268,2.551531 -0.938373,2.870503 -0.547469,0.33835 -0.938374,-0.615845 -0.938374,-2.29056 0,-1.578776 -0.422268,-2.870494 -0.938373,-2.870494 -0.516105,0 -0.938373,1.030747 -0.938373,2.290551 0,1.259804 -0.422268,2.551531 -0.938374,2.870503 -0.55946,0.345763 -0.938373,-0.789378 -0.938373,-2.81116 z m 13.76281,2.654752 c -0.988512,-0.988482 -0.727748,-5.943 0.312791,-5.943 0.516106,0 0.938374,1.266804 0.938374,2.81512 0,1.548316 0.422268,2.81512 0.938373,2.81512 0.516105,0 0.938373,-1.266804 0.938373,-2.81512 0,-1.548316 0.422268,-2.81512 0.938374,-2.81512 0.516105,0 0.938373,1.477938 0.938373,3.284307 0,2.81512 -0.312791,3.284307 -2.189537,3.284307 -1.204247,0 -2.471051,-0.281512 -2.815121,-0.625585 z m 9.807549,-2.4241 c -0.09962,-3.157523 0.129898,-3.5189 2.23491,-3.5189 2.111972,0 2.330956,0.350942 2.195759,3.5189 L 89.685566,64.225083 89.302851,61.1184 c -0.461759,-3.748323 -2.349764,-3.530217 -3.194,0.368969 -0.559923,2.586063 -0.598906,2.542795 -0.70378,-0.781187 z m 9.272711,-0.17922 c 0,-1.836828 0.422268,-3.33968 0.938373,-3.33968 0.516106,0 0.938374,1.241881 0.938374,2.759737 0,1.517857 -0.422268,3.020718 -0.938374,3.33969 -0.558443,0.345134 -0.938373,-0.772234 -0.938373,-2.759747 z m 6.015878,1.942002 c -1.423466,-3.709484 2.10548,-6.999149 4.6405,-4.325846 0.82647,0.871552 0.6133,0.993259 -0.92693,0.529224 -2.23733,-0.674061 -3.48866,1.158047 -2.20716,3.231561 0.64832,1.048999 1.05556,1.034632 2.41172,-0.08511 1.42565,-1.177124 1.5735,-1.169504 1.17098,0.06034 -0.63019,1.925439 -4.40855,2.363341 -5.08911,0.589815 z m 9.60202,0.639689 c -1.1973,-1.197308 -0.56321,-2.84041 1.50742,-3.906177 2.0761,-1.068582 2.07219,-1.077046 -0.23459,-0.507115 -1.81067,0.44735 -2.10105,0.321355 -1.27264,-0.552243 1.89904,-2.002639 4.53291,-0.715819 4.83545,2.36244 0.23621,2.403306 -0.064,2.862086 -1.97661,3.020371 -1.24031,0.102648 -2.52688,-0.08511 -2.85903,-0.417276 z m 2.68039,-1.229504 c 0.31897,-0.516105 0.13276,-0.938373 -0.41381,-0.938373 -0.54656,0 -0.99375,0.422268 -0.99375,0.938373 0,0.516105 0.18621,0.938373 0.4138,0.938373 0.22759,0 0.67478,-0.422268 0.99376,-0.938373 z m 7.10861,0.554504 c -1.85092,-2.230214 -0.83724,-4.741029 2.04855,-5.074114 1.9456,-0.224562 2.5725,0.107022 2.5725,1.360642 0,1.289221 -0.25023,1.407335 -1.12604,0.531522 -1.74924,-1.74924 -2.62745,-1.341508 -2.62745,1.219886 0,2.589836 0.85537,2.955379 2.74474,1.172967 1.00346,-0.946669 1.16045,-0.901402 0.81369,0.234593 -0.59294,1.942536 -3.02151,2.246794 -4.42599,0.554504 z m 8.37455,-1.962064 c 0,-1.806369 0.42227,-3.284307 0.93837,-3.284307 0.51611,0 0.93837,1.477938 0.93837,3.284307 0,1.806369 -0.42226,3.284307 -0.93837,3.284307 -0.5161,0 -0.93837,-1.477938 -0.93837,-3.284307 z m 6.60599,1.92177 c -1.68923,-2.035398 -0.31139,-5.206077 2.26235,-5.206077 2.44347,0 3.58787,2.588531 2.22281,5.027767 -1.06628,1.905349 -2.98844,1.98177 -4.48516,0.17831 z m 3.54679,-2.229866 c 0.19913,-1.353332 -0.19487,-2.037838 -1.17297,-2.037838 -0.9581,0 -1.47282,0.847183 -1.47282,2.424129 0,2.939661 2.20374,2.617902 2.64579,-0.386291 z m 5.79957,0.301143 c 0,-3.157693 0.18533,-3.380688 2.58052,-3.105097 2.15024,0.247421 2.62956,0.805444 2.87458,3.346643 0.16516,1.713048 -0.14329,3.049714 -0.70378,3.049714 -0.54881,0 -0.99783,-1.266804 -0.99783,-2.81512 0,-1.548317 -0.42227,-2.815121 -0.93837,-2.815121 -0.51611,0 -0.93838,1.030747 -0.93838,2.290551 0,1.259804 -0.42226,2.551531 -0.93837,2.870503 -0.55967,0.345894 -0.93837,-0.79301 -0.93837,-2.822073 z m 20.26122,2.492348 c -0.31871,-0.515693 0.24732,-0.692229 1.32007,-0.411693 1.03292,0.270111 1.87804,0.06888 1.87804,-0.447257 0,-0.516105 -0.84453,-1.159229 -1.87674,-1.429152 -2.76821,-0.723899 -2.39657,-3.4816 0.46918,-3.4816 1.29027,0 2.34594,0.382734 2.34594,0.850523 0,0.467788 -0.95011,0.667887 -2.11134,0.444667 l -2.11134,-0.405847 2.14926,1.123205 c 1.1821,0.617769 2.0218,1.78519 1.86598,2.594265 -0.32525,1.688894 -3.09696,2.509239 -3.92905,1.162889 z M 94.677782,55.310488 c 0,-0.516105 0.422268,-0.938376 0.938373,-0.938376 0.516106,0 0.938374,0.422271 0.938374,0.938376 0,0.516105 -0.422268,0.938373 -0.938374,0.938373 -0.516105,0 -0.938373,-0.422268 -0.938373,-0.938373 z m 33.781448,0 c 0,-0.516105 0.42227,-0.938376 0.93837,-0.938376 0.51611,0 0.93837,0.422271 0.93837,0.938376 0,0.516105 -0.42226,0.938373 -0.93837,0.938373 -0.5161,0 -0.93837,-0.422268 -0.93837,-0.938373 z M 6.4706789,26.221097 V 2.761761 H 31.337575 56.204471 v 6.568614 c 0,6.537479 -0.01224,6.568666 -2.580527,6.579751 -3.909368,0.01687 -12.033545,2.392006 -17.940796,5.245058 -7.300396,3.525906 -18.661963,15.094897 -22.24944,22.65564 -2.137069,4.503954 -3.205154,5.78576 -4.8516888,5.822498 l -2.1113403,0.04711 z M 13.139869,47.569092 C 21.160622,32.243446 33.855531,23.507615 51.747197,21.001981 l 4.457274,-0.624218 v 2.8011 2.801099 l -7.272394,0.42498 c -5.690808,0.332556 -8.657413,1.087049 -13.640937,3.469285 -6.566634,3.138996 -17.22884,12.206469 -20.131709,17.120635 -1.865558,3.158139 -3.6352,3.661308 -2.019562,0.57423 z m 6.678501,-2.874383 c 6.917662,-6.709671 16.651961,-11.541334 26.172764,-12.990968 8.62728,-1.313585 10.213337,-0.858071 10.213337,2.933266 v 2.844571 h -6.743256 c -11.136664,0 -22.633804,3.659004 -31.730055,10.098197 -2.169145,1.535529 -1.460449,0.555927 2.08721,-2.885066 z m 1.133358,4.150484 c 0.283913,-0.459382 3.370278,-2.014656 6.858587,-3.456164 5.391073,-2.227806 7.996176,-2.680345 17.368268,-3.01709 l 11.025888,-0.396167 v 3.852331 3.852329 H 38.319996 c -10.211808,0 -17.663016,-0.358328 -17.368268,-0.835239 z M 60.603097,49.0744 c -0.354823,-0.354823 -0.645132,-5.64197 -0.645132,-11.749218 0,-10.375247 0.11984,-11.104085 1.825813,-11.104085 1.174532,0 4.007696,2.794218 7.942556,7.833374 3.364208,4.308357 6.732811,8.344667 7.485784,8.969578 1.139538,0.945733 2.501258,-0.328107 8.123003,-7.598782 5.072623,-6.560488 6.375379,-8.810512 5.233191,-9.038382 -1.308034,-0.260957 -1.520771,-2.000238 -1.520771,-12.433448 0,-11.5044668 0.09679,-12.1300494 1.876747,-12.1300494 1.779632,0 1.876747,0.6255826 1.876747,12.0894114 0,11.300234 0.122511,12.121448 1.876747,12.58019 1.740974,0.455276 1.876747,1.279957 1.876747,11.399376 0,8.96639 -0.257813,11.007527 -1.448031,11.464256 -2.294546,0.8805 -2.582233,-0.09452 -2.389336,-8.097843 0.09983,-4.141882 -0.157162,-7.509764 -0.571091,-7.484182 -0.413928,0.02558 -3.432621,3.614861 -6.708206,7.976175 -3.275584,4.361313 -6.508841,7.929661 -7.185014,7.929661 -1.182643,0 -5.424158,-4.759768 -11.288717,-12.668041 l -2.783489,-3.753494 -0.469186,7.901879 C 63.28363,48.36612 62.327935,50.799238 60.603097,49.0744 Z M 102.5598,48.363006 c -1.6001,-0.708948 -3.183608,-2.003892 -3.518898,-2.877653 -0.824145,-2.147671 -0.748325,-10.098944 0.108523,-11.382197 1.505505,-2.2547 5.129185,-3.190192 12.357395,-3.190192 9.17656,0 11.6166,1.604465 11.14103,7.325852 l -0.28805,3.465442 -9.61833,0.267421 c -5.29008,0.147081 -9.61832,0.660059 -9.61832,1.139951 0,1.299011 3.28892,2.815309 6.10654,2.815309 1.85143,0 2.39792,0.414445 2.16534,1.642153 -0.40071,2.115328 -4.93349,2.522633 -8.83523,0.793914 z m 16.33706,-11.585208 c -0.27152,-1.40986 -1.4409,-1.642154 -8.26673,-1.642154 -6.82582,0 -7.9952,0.232294 -8.26672,1.642154 -0.28258,1.467315 0.59757,1.642153 8.26672,1.642153 7.66916,0 8.54931,-0.174838 8.26673,-1.642153 z m 10.96993,12.22772 c -3.87014,-0.942836 -5.16178,-3.106069 -5.14669,-8.619663 0.008,-2.887616 0.3246,-5.71483 0.70378,-6.282699 1.50551,-2.2547 5.12919,-3.190192 12.35739,-3.190192 7.44768,0 7.56868,-0.03751 7.56868,-2.345934 0,-1.720351 0.50046,-2.345933 1.87675,-2.345933 1.75114,0 1.87674,0.625582 1.87674,9.34718 0,8.243061 -0.22936,9.560864 -1.94174,11.156181 -2.8635,2.667763 -11.1963,3.766792 -17.29491,2.28106 z m 13.6681,-4.049969 c 1.42325,-0.761697 1.81506,-1.984967 1.81506,-5.666774 V 34.59339 l -8.21077,0.271127 -8.21077,0.271127 -0.29193,4.057438 c -0.16057,2.231591 0.20784,4.659632 0.81868,5.395647 1.32178,1.592662 11.30332,1.852711 14.07973,0.36682 z m 8.88385,3.83665 c -0.3356,-0.543015 -0.53025,-4.950162 -0.43257,-9.793659 0.0977,-4.843497 -0.11361,-9.277585 -0.46955,-9.853527 -0.91768,-1.484835 0.20383,-2.923916 2.27869,-2.923916 2.04793,0 3.19962,1.433823 2.30908,2.874742 -0.33924,0.548898 -0.68085,5.263418 -0.75916,10.476713 -0.0936,6.233738 -0.51448,9.60337 -1.22933,9.842833 -0.59784,0.200263 -1.36156,-0.08018 -1.69716,-0.623186 z m 9.82193,-0.755378 c -2.93266,-1.465028 -3.28431,-2.042578 -3.28431,-5.394189 0,-3.344659 0.35773,-3.936177 3.28431,-5.430692 2.45849,-1.255481 4.99547,-1.609401 10.0897,-1.40756 3.74297,0.1483 6.80441,-0.04706 6.80321,-0.434142 -9.4e-4,-0.38708 -1.42842,-0.703781 -3.1716,-0.703781 -3.69168,0 -6.4847,-2.41018 -3.92935,-3.390759 2.58536,-0.992094 9.2974,0.339762 10.58474,2.100307 1.29632,1.772825 1.63676,11.358926 0.46865,13.196008 -2.13029,3.350265 -15.2286,4.270687 -20.84535,1.464808 z m 16.34479,-2.679465 c 0.88019,-0.337762 1.48431,-1.674474 1.48431,-3.284307 v -2.714724 h -7.09949 c -7.39841,0 -10.72961,1.015446 -10.72961,3.270695 0,0.730353 0.73897,1.758326 1.64216,2.284382 1.79086,1.043087 12.31332,1.360818 14.70263,0.443954 z M 100.30803,25.555382 c -3.546,-1.303839 -4.691875,-3.369002 -4.691875,-8.455959 0,-2.79252 0.413355,-5.849668 0.918565,-6.793663 2.499313,-4.670008 19.87479,-5.1911412 22.7419,-0.6820861 0.38968,0.6128431 0.71498,3.9537261 0.72288,7.4241841 0.0138,6.044377 -0.10214,6.370173 -2.75415,7.741581 -2.7085,1.400614 -13.84195,1.904094 -16.93732,0.765943 z m 14.46803,-3.657362 c 1.07164,-0.411221 1.48431,-1.836962 1.48431,-5.128038 0,-3.697428 -0.37929,-4.761447 -2.00805,-5.633131 -2.71693,-1.4540576 -12.89882,-0.673273 -14.00449,1.073915 -1.228961,1.942013 -1.069578,7.813345 0.24787,9.130789 1.16569,1.165691 11.63012,1.573461 14.28036,0.556465 z m 12.74479,3.702869 c -4.22019,-1.688179 -4.69186,-3.055481 -4.69186,-13.600831 0,-9.4345587 0.13231,-10.1766704 1.81442,-10.1766704 1.27908,0 1.90202,0.757348 2.11134,2.5668576 0.27886,2.4107424 0.5442,2.5487152 4.36271,2.2685666 6.30825,-0.4628114 13.30762,0.8083158 15.27296,2.7736601 2.48441,2.4844031 2.47283,11.0266341 -0.0191,14.1040541 -1.59526,1.970051 -2.65972,2.238019 -9.61833,2.421316 -4.30349,0.113358 -8.45794,-0.04727 -9.2321,-0.356953 z m 15.48317,-8.763527 v -5.161054 l -8.21077,-0.271126 -8.21077,-0.271128 v 4.681773 c 0,5.921531 1.20846,6.707628 9.85292,6.409287 l 6.56862,-0.226698 z m 11.72966,8.761417 c -4.89757,-1.951808 -6.34463,-7.911772 -2.71846,-11.196507 1.58241,-1.433426 3.74736,-1.852933 10.9272,-2.117397 5.65871,-0.208433 8.47214,-0.634811 7.64493,-1.158597 -0.71988,-0.455835 -2.71222,-0.835257 -4.42739,-0.84316 -2.46953,-0.01138 -3.04807,-0.3561177 -2.78001,-1.6565231 0.2756,-1.3369428 1.19238,-1.5966592 4.93264,-1.3973759 6.67884,0.3558527 8.00368,1.9513372 8.00368,9.638681 0,4.71884 -0.39044,6.63277 -1.54959,7.596144 -1.61003,1.338097 -17.29357,2.226464 -20.033,1.134735 z m 17.25952,-4.615483 c 0.31327,-0.81637 0.56958,-2.294308 0.56958,-3.284307 0,-1.622868 -0.73118,-1.8 -7.43024,-1.8 -4.08663,0 -8.09818,0.256312 -8.91455,0.569582 -1.47601,0.566399 -2.05332,4.17886 -0.85872,5.373449 0.34406,0.344071 4.0993,0.625583 8.34496,0.625583 6.17343,0 7.83345,-0.297262 8.28897,-1.484307 z m 7.54554,4.007459 c -0.25967,-0.676688 -0.35198,-6.05555 -0.20515,-11.953027 0.2326,-9.3412898 0.47855,-10.7632193 1.90914,-11.0373181 1.49626,-0.2866806 1.64216,0.7752634 1.64216,11.9530271 0,10.390746 -0.21986,12.26766 -1.43701,12.26766 -0.79036,0 -1.64947,-0.553654 -1.90914,-1.230342 z M 62.303898,24.161418 C 59.353085,22.488118 59.049247,21.524203 59.033961,13.787649 59.022175,7.8236616 59.347828,6.1870173 60.843999,4.6908475 64.05665,1.4781966 73.264191,0.81629049 73.824108,3.7577412 74.032793,4.8540429 72.853995,5.4446485 69.141827,6.1036748 l -4.961182,0.8807666 v 7.0378006 7.037801 h 8.914548 c 0,0 6.03446,0.489595 8.210133,-1.534349 0.975871,-0.907816 0.992962,-2.453738 0.992962,-2.453738 l 0.288548,-3.988087 h -3.338261 c -2.280996,0 -3.338262,0.428251 -3.338262,1.35218 0,1.776519 -1.343615,2.546994 -3.199626,1.834776 -0.963141,-0.369593 -1.492241,-1.714994 -1.492241,-3.794489 0,0 -0.285657,-1.437278 0.470664,-2.199744 1.092833,-1.1017107 7.352844,-1.1799039 7.352844,-1.1799039 0,0 7.012944,-0.327623 7.459879,1.2597289 0.370556,1.316081 -0.09093,5.530686 -0.09093,5.530686 -0.422935,8.856514 -1.165854,9.402002 -12.757366,9.367085 -5.277527,-0.0159 -10.304066,-0.499864 -11.349638,-1.09277 z"
       id="path1"
       sodipodi:nodetypes="sssssssscssssssccsssssssssssssssssssssssssssccsssssssssssccssssssssssssscsssssssssssssssscssssscsssssssssssssssssssssssssssssssssssssssssscsssssssssssssccccsssssccsscccssssssscsssssscccsssssssssssssssssssscssssssscssssssssssscssssssssscccsssssssscsssssscssssssscsssssssscssssssssssssssssssccccssccssssssssssssssssssssssssssssccccsccssssscsssss" />
    <path
       d="m 34.198647,62.60626 c -0.895098,-1.07852 -0.962914,-1.915099 -0.247222,-3.049714 1.324488,-2.099742 5.355173,-2.044744 5.764103,0.07864 0.236522,1.228162 -0.306481,1.642153 -2.153869,1.642153 -1.512895,0 -2.230056,0.38843 -1.850635,1.002352 0.340716,0.551285 1.232104,0.767261 1.980863,0.479931 0.760238,-0.291731 1.108228,-0.112802 0.788077,0.405218 -0.856495,1.385837 -2.887507,1.12084 -4.281317,-0.558595 z m 3.818773,-3.205644 c 0,-0.516105 -0.422268,-0.938373 -0.938373,-0.938373 -0.516106,0 -0.938374,0.422268 -0.938374,0.938373 0,0.516106 0.422268,0.938374 0.938374,0.938374 0.516105,0 0.938373,-0.422268 0.938373,-0.938374 z"
       style="fill:#666666;stroke-width:0.938373"
       id="path1-3" />
    <path
       d="m 155.03042,62.155985 c -0.8951,-1.07852 -0.96291,-1.915099 -0.24722,-3.049714 1.32449,-2.099742 5.35517,-2.044744 5.7641,0.07864 0.23652,1.228162 -0.30648,1.642153 -2.15387,1.642153 -1.51289,0 -2.23005,0.38843 -1.85063,1.002352 0.34071,0.551285 1.2321,0.767261 1.98086,0.479931 0.76024,-0.291731 1.10823,-0.112802 0.78808,0.405218 -0.8565,1.385837 -2.88751,1.12084 -4.28132,-0.558595 z m 3.81877,-3.205644 c 0,-0.516105 -0.42226,-0.938373 -0.93837,-0.938373 -0.51611,0 -0.93837,0.422268 -0.93837,0.938373 0,0.516106 0.42226,0.938374 0.93837,0.938374 0.51611,0 0.93837,-0.422268 0.93837,-0.938374 z"
       style="fill:#666666;stroke-width:0.938373"
       id="path1-36" />
  </g>
</svg>
