<?xml version="1.0" encoding="UTF-8" standalone="no"?>
<!-- Created with Inkscape (http://www.inkscape.org/) -->

<svg
   version="1.1"
   id="svg1"
   width="533.33331"
   height="182.66667"
   viewBox="0 0 533.33331 182.66667"
   sodipodi:docname="televvd.svg"
   inkscape:version="1.3.1 (9b9bdc1480, 2023-11-25, custom)"
   xmlns:inkscape="http://www.inkscape.org/namespaces/inkscape"
   xmlns:sodipodi="http://sodipodi.sourceforge.net/DTD/sodipodi-0.dtd"
   xmlns="http://www.w3.org/2000/svg"
   xmlns:svg="http://www.w3.org/2000/svg">
  <defs
     id="defs1" />
  <sodipodi:namedview
     id="namedview1"
     pagecolor="#ffffff"
     bordercolor="#000000"
     borderopacity="0.25"
     inkscape:showpageshadow="2"
     inkscape:pageopacity="0.0"
     inkscape:pagecheckerboard="0"
     inkscape:deskcolor="#d1d1d1"
     inkscape:zoom="1.6406251"
     inkscape:cx="272.76189"
     inkscape:cy="145.67618"
     inkscape:window-width="1680"
     inkscape:window-height="986"
     inkscape:window-x="0"
     inkscape:window-y="27"
     inkscape:window-maximized="1"
     inkscape:current-layer="g2" />
  <g
     inkscape:groupmode="layer"
     inkscape:label="Image"
     id="g1">
    <g
       id="g2"
       transform="translate(9.6659967,-13.610751)">
      <path
         style="fill:#666666;fill-opacity:1"
         d="M 85.246388,170.72081 C 76.891546,168.96145 64.022919,162.54717 57.575808,156.92859 47.175105,147.86451 39.251943,133.05864 37.748605,119.87785 l -0.813367,-7.13133 3.190824,7.47716 c 4.655667,10.90979 8.138881,16.04167 15.668587,23.08483 32.072156,29.99975 84.797261,16.35457 98.833331,-25.57793 l 2.56093,-7.65073 -0.71856,7.63913 c -2.14271,22.77946 -19.71679,44.58565 -41.16939,51.08361 -8.69851,2.63477 -22.476015,3.51411 -30.054572,1.91822 z M 232.34942,157.81755 c -5.10045,3.22695 -12.07982,3.02048 -18.00802,1.88724 -6.71153,-1.28299 -9.21687,-8.81228 -9.21687,-8.81228 l -0.0226,-69.479332 1e-5,-30.666667 V 20.079847 h 11.23102 c 10.13733,0 11.63053,0.33615 15.33334,3.45186 l 4.1023,3.451853 v 27.214809 l 1.53438,47.060471 10.46562,-20.190248 c 0,-0.189522 6.55137,-12.939522 14.5586,-28.333334 10.64106,-20.457306 15.57434,-28.614731 18.33334,-30.315061 2.92991,-1.80567 6.75881,-2.32677 17.10805,-2.32835 l 13.33334,-0.002 -4.11325,2.50825 c -3.20772,1.956049 -7.31719,8.699395 -18.66667,30.630637 l -52.02685,98.109736 c 0,0 -1.80884,5.12711 -3.94574,6.47908 z M 370.8246,67.746511 c 3.99477,-7.516667 10.70364,-20.324071 14.90859,-28.460899 5.16857,-10.001461 8.85508,-15.508818 11.37945,-17.000005 5.10407,-3.01505 49.40448,-3.16162 64.87199,-0.21463 29.25921,5.574688 45.93755,23.611879 50.24826,54.342201 0,0 0.64617,3.317921 0.70138,5 0.41952,12.781729 1.46278,26.213802 -2.82677,38.261562 -3.64132,10.22714 -5.78195,18.15514 -18.66667,26.68778 -17.30057,11.45696 -21.72055,11.24082 -27.55945,12.3138 -9.26249,1.70212 -24.69564,2.10482 -24.69564,2.10482 l -81.34986,0.004 13.12866,-21.1775 c 0,0 30.63781,-1.38276 57.72849,-1.38611 24.95869,-0.003 30.77017,-1.16076 38.48167,-7.0642 10.28831,-7.87607 13.06358,-13.3637 14.85972,-21.78328 2.21524,-10.384153 0.70362,-27.960712 0.70362,-27.960712 L 481.8869,75.73753 c -1.14596,-7.641764 -6.25947,-18.189484 -10.94967,-22.58604 -2.10942,-1.97735 -6.83531,-4.973231 -10.50197,-6.657515 -5.94408,-2.730412 -9.05123,-3.106323 -28.66667,-3.468174 l -22,-0.405839 -9.93614,19.396688 -44.21897,84.2479 c 0,0 -4.13092,8.37908 -7.4344,12.33808 -3.53805,4.24011 -13.93736,3.63037 -18.94751,1.30773 -7.77121,-3.60265 -7.72352,-12.36535 -7.72352,-12.36535 L 321.10193,50.746511 V 20.079847 h 11.46666 c 11.26275,0 11.54729,0.0806 16,4.53333 l 4.53334,4.533333 v 26.133334 l 1.4747,43.316843 z"
         id="path6"
         sodipodi:nodetypes="ssscssscsssssccccssccccssscsscscsssssssscccssscsssscccsscccsscccc" />
      <path
         style="fill:#666666;fill-opacity:1"
         d="m 62.203013,104.86488 c -23.21356,-9.264458 -24.6882,-42.646218 -2.37508,-53.765315 18.90647,-9.421492 42.335237,3.415227 42.335237,23.195657 v 5.38645 H 76.018633 49.874083 l 0.91502,3.66667 c 2.57018,10.29917 14.9748,18.701698 25.22009,17.083348 7.25675,-1.146278 14.25592,-5.909868 17.48013,-11.896858 1.8265,-3.39162 3.52613,-4.85316 5.64372,-4.85316 3.865007,0 3.806477,0.60288 -0.84591,8.71381 -5.236,9.128388 -13.98447,13.987078 -24.97107,13.868338 -4.30075,-0.0465 -9.30163,-0.676 -11.11305,-1.39894 z m 33.29349,-33.546088 c 0,-3.80348 -6.9448,-12.35631 -12.26865,-15.10938 -4.53187,-2.343522 -13.38082,-2.717995 -18.39801,-0.77857 -6.73346,2.60285 -15.90553,14.50095 -13.80216,17.90429 0.34441,0.55726 10.49079,1.01321 22.54751,1.01321 21.90766,0 21.92131,-0.002 21.92131,-3.02955 z M 146.66586,103.7934 c -5.86731,-2.66439 -11.71519,-9.031768 -14.60332,-15.900618 -1.70513,-4.0553 -1.65095,-4.21111 1.46409,-4.21111 2.21587,0 3.86038,1.20987 5.22108,3.84118 4.8712,9.41988 16.83006,15.088328 26.02204,12.33435 6.24887,-1.87221 12.72686,-7.01898 15.44131,-12.26814 4.14481,-8.01519 4.47264,-7.90739 -24.04789,-7.90739 h -26 l 0.0293,-4.33333 c 0.0321,-4.75516 4.15595,-14.82665 7.7107,-18.83167 3.72553,-4.197438 15.05949,-8.807811 21.6876,-8.821977 8.58867,-0.01836 19.4679,5.750487 24.47858,12.980067 4.57279,6.59775 6.09516,18.25614 3.43606,26.31331 -2.09798,6.35694 -8.41216,13.498248 -14.82953,16.772148 -6.62857,3.38164 -18.60265,3.39691 -26.01,0.0332 z m 35.49731,-31.511278 c 0,-5.0436 -6.3566,-13.05206 -13.14145,-16.55645 -11.11664,-5.741762 -28.45029,2.47095 -31.56595,14.956 l -0.91502,3.66667 h 22.81121 c 19.71263,0 22.81121,-0.28067 22.81121,-2.06622 z M 29.667893,102.24493 c -6.05449,-4.762458 -6.80292,-7.544548 -7.50472,-27.896588 l -0.66667,-19.33334 -4.33333,-0.41781 c -3.25336,-0.313683 -4.33333,-1.061356 -4.33333,-3 0,-2.062184 0.93978,-2.582189 4.66666,-2.582189 h 4.66667 v -9.333334 c 0,-8.37171 0.26847,-9.333333 2.60575,-9.333333 2.28914,0 2.65365,1.093516 3,9 l 0.39425,9 7.66667,0.399872 c 6.50325,0.339192 7.66666,0.784342 7.66666,2.933462 0,2.149119 -1.16341,2.59427 -7.66666,2.933461 l -7.66667,0.399871 -0.42557,10 c -0.73677,17.31253 0.79876,26.57832 5.12083,30.90039 2.18409,2.18409 5.20967,3.76628 7.20218,3.76628 2.547,0 3.43589,0.689878 3.43589,2.666668 0,2.20671 -0.88889,2.66666 -5.15352,2.66666 -3.19872,0 -6.4893,-1.05072 -8.67509,-2.77007 z M 114.16317,61.681672 c 0,-42.444448 0.0547,-43.333337 2.66667,-43.333337 2.61196,0 2.66666,0.888889 2.66666,43.333337 0,42.444438 -0.0547,43.333328 -2.66666,43.333328 -2.61197,0 -2.66667,-0.88889 -2.66667,-43.333328 z"
         id="path2" />
    </g>
  </g>
</svg>
