<?xml version="1.0" encoding="UTF-8" standalone="no"?>
<svg
   height="290"
   width="1100"
   viewBox="8.156 9.6535473 46.689721 11.2695"
   version="1.1"
   id="svg8"
   sodipodi:docname="ubiquiti.svg"
   inkscape:version="1.3.1 (9b9bdc1480, 2023-11-25, custom)"
   xmlns:inkscape="http://www.inkscape.org/namespaces/inkscape"
   xmlns:sodipodi="http://sodipodi.sourceforge.net/DTD/sodipodi-0.dtd"
   xmlns="http://www.w3.org/2000/svg"
   xmlns:svg="http://www.w3.org/2000/svg">
  <defs
     id="defs8" />
  <sodipodi:namedview
     id="namedview8"
     pagecolor="#ffffff"
     bordercolor="#000000"
     borderopacity="0.25"
     inkscape:showpageshadow="2"
     inkscape:pageopacity="0.0"
     inkscape:pagecheckerboard="0"
     inkscape:deskcolor="#d1d1d1"
     inkscape:zoom="0.49497475"
     inkscape:cx="617.2032"
     inkscape:cy="490.93413"
     inkscape:window-width="1680"
     inkscape:window-height="986"
     inkscape:window-x="0"
     inkscape:window-y="27"
     inkscape:window-maximized="1"
     inkscape:current-layer="svg8" />
  <linearGradient
     id="c"
     gradientUnits="userSpaceOnUse"
     x1="53.548"
     x2="80.605003"
     y1="55.327999"
     y2="55.327999">
    <stop
       offset="0"
       stop-color="#656263"
       id="stop1" />
    <stop
       offset="1"
       stop-color="#a7a5a6"
       id="stop2" />
  </linearGradient>
  <g
     transform="matrix(0.19363985,0,0,-0.17845128,2.736705,27.27212)"
     id="g5"
     style="fill:#666666">
    <path
       d="m 79.602,65.87 1.004,3.276 v 22.437 c -11.734,0 -12.956,-4.5 -12.956,-8.796 v -24.64 c 0,-1.276 -0.124,-2.63 -0.382,-3.956 6.222,1.133 10.281,4.979 12.334,11.68"
       fill="#0d0d0d"
       id="path2"
       style="fill:#666666" />
    <g
       fill="#39a2e1"
       id="g4"
       style="fill:#666666">
      <path
         d="m 49.566,86.46 h -2.593 v 2.561 h 2.593 z m 2.59,-3.87 h -2.59 v 2.563 h 2.59 z m -2.605,-3.223 h -2.563 v 2.562 h 2.563 z M 46.96,75.525 h -2.562 v 2.562 h 2.562 z m -5.168,13.496 h -2.59 v 2.589 h 2.59 z"
         id="path3"
         style="fill:#666666" />
      <path
         d="m 44.385,72.965 h 2.587 v -5.707 h 2.594 v 9.548 h 2.59 v -18.66 c 0,-8.854 7.75,-13.125 7.75,-13.125 -13.018,0 -20.704,7.89 -20.704,18.39 v 21.114 h 2.59 V 70.403 h 2.593 z"
         id="path4"
         style="fill:#666666" />
    </g>
  </g>
  <g
     transform="matrix(0.19363985,0,0,-0.17845128,2.736705,27.27212)"
     id="g6"
     style="fill:#666666">
    <path
       d="m 61.723,52.808 c -3.456,0.157 -6.115,1.034 -8.175,2.303 1.395,-6.055 6.612,-9.029 6.864,-9.17 l 1.538,-0.848 c 11.768,0.786 18.656,8.383 18.656,18.317 v 2.153 C 77.809,56.437 71.299,52.377 61.723,52.808"
       fill="url(#c)"
       id="path5"
       style="fill:#666666" />
  </g>
  <path
     d="m 11.82957,12.305062 h -0.495671 v -0.457194 h 0.495816 z"
     fill="#39a2e1"
     id="path6"
     style="fill:#666666;stroke-width:0.139418" />
  <g
     fill="#4f4c4d"
     transform="matrix(0.31600254,0,0,-0.29121617,16.873353,22.309716)"
     id="g8"
     style="fill:#666666">
    <path
       d="m 74.624,21.842 c -2.232,0 -3.973,0.618 -5.173,1.84 -1.227,1.246 -1.832,3.051 -1.796,5.366 l -0.001,10.806 h 0.023 c 0.598,0 2.553,-0.142 2.553,-1.97 l 10e-4,-9.404 c 0.068,-2.792 1.669,-4.39 4.393,-4.39 2.723,0 4.324,1.6 4.391,4.392 v 9.402 c 0,1.828 1.956,1.97 2.556,1.97 h 0.022 L 81.59,29.046 c 0.038,-2.313 -0.566,-4.118 -1.794,-5.365 -1.202,-1.22 -2.942,-1.839 -5.172,-1.839 m -59.464,0 c -2.233,0 -3.973,0.618 -5.173,1.84 -1.227,1.246 -1.831,3.051 -1.793,5.366 l 0.035,10.806 h 0.022 c 0.599,0 2.554,-0.142 2.554,-1.97 L 10.769,28.48 c 0.067,-2.792 1.667,-4.39 4.39,-4.39 2.726,0 4.326,1.6 4.393,4.392 l 0.038,9.402 c 0,1.828 1.956,1.97 2.555,1.97 h 0.023 L 22.128,29.046 C 22.165,26.733 21.56,24.928 20.333,23.681 19.132,22.461 17.39,21.842 15.16,21.842 m 41.179,2.248 c -4.375,0 -5.028,4.212 -5.028,6.724 0,2.022 0.488,6.803 5.028,6.803 4.374,0 5.028,-4.292 5.028,-6.803 0,-2.022 -0.491,-6.725 -5.028,-6.725 m 9.879,-1.894 c 0,0.272 -0.042,1.181 -0.56,1.728 -0.276,0.288 -0.643,0.434 -1.101,0.434 h -3.01 c 1.62,1.58 2.514,3.861 2.514,6.457 0,4.336 -2.03,9.048 -7.722,9.048 -5.693,0 -7.721,-4.712 -7.721,-9.048 0,-4.335 2.026,-8.968 7.71,-8.972 l 0.016,0.002 c 0.437,0.02 0.89,0.067 1.35,0.14 0.275,0.031 0.569,0.083 0.852,0.132 l 0.449,0.08 z m 19.76,-0.184 -0.002,15.872 c 0,1.83 1.955,1.971 2.554,1.971 h 0.023 V 22.304 A 0.293,0.293 0 0 0 88.261,22.011 Z M 42.67,21.95 42.667,37.884 c 0,1.828 1.956,1.97 2.555,1.97 h 0.023 v -17.61 a 0.293,0.293 0 0 0 -0.292,-0.293 z m 63.774,0.061 v 15.916 c 0,1.83 1.949,1.971 2.549,1.971 h 0.023 V 22.304 a 0.293,0.293 0 0 0 -0.292,-0.293 z M 91.088,39.81 v -2.246 h 5.267 V 22.01 h 2.282 c 0.158,0 0.289,0.13 0.293,0.286 v 15.268 h 4.798 c 0.157,0 0.288,0.13 0.29,0.285 v 1.961 z"
       id="path7"
       style="fill:#666666" />
    <path
       d="m 91.13,39.81 v -2.246 h 5.268 V 22.01 h 2.283 c 0.158,0 0.288,0.13 0.29,0.286 v 15.268 h 4.8 c 0.158,0 0.289,0.13 0.292,0.285 V 39.81 Z M 33.35,24.265 h -4.1 V 30.1 h 3.827 c 1.201,0 3.215,-0.495 3.215,-2.922 0,-2.251 -1.733,-2.856 -2.943,-2.914 m 2.25,10.67 c 0,-0.945 -0.29,-1.724 -0.887,-2.108 -0.424,-0.277 -1.016,-0.428 -1.834,-0.474 h -3.803 v 5.175 h 3.657 c 2.054,-0.08 2.866,-0.92 2.866,-2.592 m 0.298,-3.71 -0.22,0.067 0.211,0.092 c 1.482,0.644 2.404,2.148 2.404,3.716 0,2.886 -2.043,4.672 -5.602,4.672 H 26.5 v -17.76 h 6.188 c 0.173,-0.003 0.346,-0.005 0.522,-0.005 0.713,0 1.636,0.04 2.44,0.343 1.95,0.718 3.16,2.468 3.16,4.358 0,1.625 -0.763,3.88 -2.913,4.519 M 8.543,16.664 h 0.952 l 2.355,-3.8 h 0.014 v 3.8 h 0.86 V 11.507 H 11.77 L 9.423,15.299 H 9.401 V 11.507 H 8.543 Z m 13.881,0 h 3.713 v -0.78 h -2.81 v -1.351 h 2.6 v -0.736 h -2.6 v -1.509 h 2.86 v -0.781 h -3.763 z m 12.788,0 h 4.176 v -0.78 h -1.64 v -4.377 h -0.903 v 4.377 h -1.633 z m 13.123,0 h 0.917 l 0.932,-3.944 h 0.014 l 1.04,3.944 h 0.924 l 1.012,-3.944 h 0.014 l 0.96,3.944 h 0.919 l -1.423,-5.157 h -0.918 l -1.033,3.944 h -0.014 l -1.056,-3.944 h -0.93 z M 66.36,16.05 a 1.44,1.44 0 0 1 -0.71,-0.166 1.407,1.407 0 0 1 -0.488,-0.444 2.003,2.003 0 0 1 -0.277,-0.633 2.908,2.908 0 0 1 0,-1.443 c 0.059,-0.237 0.153,-0.447 0.277,-0.633 0.126,-0.185 0.289,-0.334 0.488,-0.444 a 1.44,1.44 0 0 1 0.71,-0.166 c 0.277,0 0.512,0.055 0.712,0.166 0.2,0.11 0.362,0.259 0.489,0.444 0.124,0.186 0.217,0.396 0.276,0.633 0.062,0.235 0.092,0.475 0.092,0.722 0,0.245 -0.03,0.486 -0.092,0.72 a 2.002,2.002 0 0 1 -0.276,0.634 1.41,1.41 0 0 1 -0.49,0.444 c -0.2,0.11 -0.434,0.166 -0.71,0.166 m 0,0.738 c 0.385,0 0.73,-0.073 1.036,-0.218 a 2.32,2.32 0 0 0 0.777,-0.585 c 0.212,-0.245 0.375,-0.532 0.487,-0.86 0.114,-0.326 0.17,-0.673 0.17,-1.04 0,-0.37 -0.056,-0.72 -0.17,-1.047 a 2.574,2.574 0 0 0 -0.487,-0.86 2.283,2.283 0 0 0 -0.777,-0.58 c -0.305,-0.142 -0.651,-0.213 -1.036,-0.213 -0.385,0 -0.73,0.07 -1.037,0.213 a 2.29,2.29 0 0 0 -0.776,0.58 c -0.21,0.247 -0.374,0.532 -0.487,0.86 -0.113,0.328 -0.17,0.677 -0.17,1.048 0,0.366 0.057,0.713 0.17,1.04 0.113,0.327 0.277,0.614 0.487,0.859 a 2.326,2.326 0 0 0 1.813,0.803 M 79.18,14.316 h 1.481 c 0.29,0 0.507,0.068 0.658,0.206 0.148,0.137 0.223,0.343 0.223,0.617 a 0.956,0.956 0 0 1 -0.072,0.401 0.585,0.585 0 0 1 -0.199,0.242 0.716,0.716 0 0 1 -0.289,0.116 c -0.109,0.02 -0.22,0.028 -0.336,0.028 H 79.18 Z m -0.904,2.348 h 2.464 c 0.568,0 0.994,-0.123 1.28,-0.369 0.282,-0.246 0.424,-0.588 0.424,-1.025 0,-0.247 -0.036,-0.45 -0.108,-0.61 -0.072,-0.16 -0.156,-0.292 -0.252,-0.39 a 0.968,0.968 0 0 0 -0.286,-0.213 2.13,2.13 0 0 0 -0.206,-0.088 v -0.014 c 0.078,-0.01 0.161,-0.033 0.25,-0.072 0.089,-0.039 0.172,-0.1 0.25,-0.184 0.075,-0.085 0.14,-0.194 0.19,-0.329 0.051,-0.134 0.076,-0.303 0.076,-0.506 0,-0.303 0.022,-0.579 0.07,-0.826 0.044,-0.249 0.116,-0.426 0.212,-0.53 h -0.969 a 0.828,0.828 0 0 0 -0.118,0.367 4.043,4.043 0 0 0 -0.018,0.39 c 0,0.236 -0.015,0.44 -0.044,0.61 -0.029,0.17 -0.082,0.314 -0.159,0.427 -0.077,0.113 -0.18,0.195 -0.315,0.248 a 1.38,1.38 0 0 1 -0.508,0.08 H 79.18 v -2.123 h -0.904 z m 13.743,0 h 0.902 v -2.347 l 2.298,2.347 h 1.112 l -2.06,-2.058 2.204,-3.099 h -1.127 l -1.69,2.463 -0.737,-0.729 v -1.734 h -0.902 z m 14.011,-3.438 c 0,-0.198 0.034,-0.367 0.1,-0.506 a 0.912,0.912 0 0 1 0.283,-0.343 c 0.12,-0.09 0.259,-0.155 0.416,-0.195 0.156,-0.04 0.326,-0.062 0.508,-0.062 0.199,0 0.366,0.024 0.506,0.07 0.14,0.046 0.253,0.105 0.34,0.177 0.087,0.072 0.148,0.154 0.188,0.247 0.038,0.095 0.057,0.19 0.057,0.287 0,0.198 -0.044,0.344 -0.133,0.437 a 0.75,0.75 0 0 1 -0.293,0.199 5.996,5.996 0 0 1 -0.638,0.19 c -0.245,0.06 -0.543,0.139 -0.901,0.237 a 1.945,1.945 0 0 0 -0.551,0.226 1.338,1.338 0 0 0 -0.351,0.315 c -0.086,0.115 -0.148,0.238 -0.184,0.368 -0.036,0.13 -0.054,0.262 -0.054,0.397 a 1.337,1.337 0 0 0 0.59,1.148 c 0.18,0.126 0.382,0.218 0.609,0.279 0.226,0.06 0.455,0.09 0.686,0.09 0.27,0 0.524,-0.035 0.762,-0.105 0.239,-0.07 0.448,-0.174 0.629,-0.314 0.179,-0.14 0.323,-0.311 0.429,-0.517 a 1.52,1.52 0 0 0 0.159,-0.711 h -0.903 c -0.024,0.332 -0.138,0.567 -0.34,0.704 -0.202,0.137 -0.46,0.206 -0.773,0.206 -0.106,0 -0.214,-0.011 -0.325,-0.032 a 1.042,1.042 0 0 1 -0.302,-0.108 0.695,0.695 0 0 1 -0.23,-0.206 0.574,0.574 0 0 1 -0.09,-0.325 c 0,-0.183 0.058,-0.327 0.172,-0.43 0.112,-0.103 0.26,-0.182 0.443,-0.235 0.02,-0.005 0.095,-0.024 0.228,-0.062 l 0.443,-0.118 0.48,-0.127 c 0.158,-0.041 0.27,-0.071 0.336,-0.09 0.17,-0.053 0.317,-0.126 0.442,-0.217 0.125,-0.091 0.229,-0.196 0.314,-0.314 0.084,-0.117 0.148,-0.244 0.187,-0.38 0.042,-0.134 0.062,-0.268 0.062,-0.403 a 1.45,1.45 0 0 0 -0.177,-0.741 1.495,1.495 0 0 0 -0.466,-0.502 2.053,2.053 0 0 0 -0.657,-0.285 3.144,3.144 0 0 0 -0.751,-0.09 c -0.293,0 -0.57,0.035 -0.83,0.109 a 1.926,1.926 0 0 0 -0.68,0.33 1.627,1.627 0 0 0 -0.462,0.575 c -0.115,0.235 -0.176,0.51 -0.181,0.828 z m 6.25,25.067 h 0.312 c 0.264,0 0.505,0.013 0.505,0.316 0,0.255 -0.22,0.294 -0.421,0.294 h -0.395 z m -0.297,0.852 h 0.742 c 0.456,0 0.67,-0.18 0.67,-0.549 0,-0.347 -0.22,-0.492 -0.504,-0.522 l 0.549,-0.848 h -0.321 l -0.522,0.826 h -0.316 v -0.826 h -0.298 z m 0.64,-2.362 c 0.76,0 1.347,0.606 1.347,1.41 0,0.785 -0.587,1.39 -1.347,1.39 -0.768,0 -1.356,-0.605 -1.356,-1.39 0,-0.804 0.588,-1.41 1.356,-1.41 m 0,3.041 c 0.896,0 1.646,-0.706 1.646,-1.632 0,-0.944 -0.75,-1.65 -1.646,-1.65 -0.9,0 -1.654,0.706 -1.654,1.65 0,0.926 0.754,1.632 1.654,1.632"
       id="path8"
       style="fill:#666666" />
  </g>
</svg>
