<?xml version="1.0" encoding="UTF-8" standalone="no"?>
<!-- Generator: Adobe Illustrator 19.2.1, SVG Export Plug-In . SVG Version: 6.00 Build 0)  -->

<svg
   version="1.1"
   id="layer"
   x="0px"
   y="0px"
   viewBox="0 0 652 275"
   xml:space="preserve"
   sodipodi:docname="ufinet.svg"
   width="652"
   height="275"
   inkscape:version="1.3.1 (9b9bdc1480, 2023-11-25, custom)"
   xmlns:inkscape="http://www.inkscape.org/namespaces/inkscape"
   xmlns:sodipodi="http://sodipodi.sourceforge.net/DTD/sodipodi-0.dtd"
   xmlns="http://www.w3.org/2000/svg"
   xmlns:svg="http://www.w3.org/2000/svg"><defs
   id="defs1" /><sodipodi:namedview
   id="namedview1"
   pagecolor="#ffffff"
   bordercolor="#000000"
   borderopacity="0.25"
   inkscape:showpageshadow="2"
   inkscape:pageopacity="0.0"
   inkscape:pagecheckerboard="0"
   inkscape:deskcolor="#d1d1d1"
   inkscape:zoom="1.1411043"
   inkscape:cx="325.56183"
   inkscape:cy="326"
   inkscape:window-width="1680"
   inkscape:window-height="986"
   inkscape:window-x="0"
   inkscape:window-y="27"
   inkscape:window-maximized="1"
   inkscape:current-layer="layer" />
<style
   type="text/css"
   id="style1">
	.st0{fill:#143D7A;}
</style>
<path
   class="st0"
   d="m 222.53605,22.327772 c -16.36455,0 -26.5538,19.555114 -26.5538,50.946217 v 9.36587 h 23.46615 v 17.702521 h -23.46615 v 155.82337 l -28.20053,11.21847 V 100.34238 H 152.13763 V 82.639859 h 15.64409 v -9.36587 c 0,-43.02125 20.48141,-68.7516616 54.65141,-68.7516616 12.96812,0 23.87782,3.602258 32.62615,10.6009296 l 0.61754,0.514609 -6.17531,15.747011 -1.02921,-0.720452 c -11.21846,-6.998672 -18.21713,-8.336653 -25.93625,-8.336653 m 26.75963,18.834662 c -8.33666,0 -15.33533,6.998672 -15.33533,15.335326 0,8.336654 6.99867,15.335326 15.33533,15.335326 8.33664,0 15.33532,-6.998672 15.33532,-15.335326 0,-8.336654 -6.99868,-15.335326 -15.33532,-15.335326 m 296.41435,147.486726 7.71912,19.55511 -21.92232,8.74834 c -10.70385,4.21979 -22.12815,6.1753 -35.81673,6.1753 -37.87517,0 -60.41501,-27.48008 -60.41501,-73.48606 0,-46.00598 21.71647,-73.486054 58.15074,-73.486054 36.43426,0 58.15073,27.480074 58.15073,73.486054 v 1.02922 h -85.01328 c 0.30877,31.49402 13.37981,50.22576 35.1992,50.22576 4.11686,0 14.61488,-0.41168 23.56906,-4.11686 z m -26.34795,-56.70983 c -1.23506,-14.82072 -6.27822,-38.286858 -25.93625,-38.286858 -14.61487,0 -23.2603,12.865208 -25.83334,38.286858 z M 367.44973,76.258717 c -7.51329,0 -16.67331,2.058432 -27.17132,6.175299 l -19.34927,7.719123 -4.21979,-10.086321 -18.93758,7.616202 v 132.87185 l 29.9502,-12.45353 v -99.52523 l 10.498,-4.21978 c 7.30745,-2.77889 15.33533,-4.425638 21.92232,-4.425638 15.64409,0 21.20186,7.924968 21.20186,30.156038 v 90.57106 l 29.9502,-12.45352 V 124.52896 C 411.39727,84.389527 394.62104,76.258717 367.44973,76.258717 M 100.1622,190.70759 81.636305,198.22087 c -5.249004,1.95551 -10.498008,3.8081 -13.791501,3.8081 C 51.891949,201.51436 46.540022,191.7368 46.540022,163.53627 V 75.641187 L 16.486901,87.68302 v 81.51394 c 0,36.84596 13.997344,54.03387 43.947544,54.03387 7.616202,0 16.673308,-2.05843 27.171317,-6.1753 l 19.349268,-7.71913 4.73439,11.32139 18.42299,-7.6162 V 75.641187 L 100.1622,87.68302 Z M 634.0168,97.769342 V 78.93468 H 609.72729 V 50.528304 L 581.11507,62.261372 V 78.93468 h -18.11421 v 18.834662 h 16.67331 v 96.437588 c 0,11.32137 6.68991,21.61355 17.085,26.34794 l 0.41168,0.20584 30.87649,-12.86521 -2.26427,-1.02921 c -9.57172,-4.11687 -16.05578,-13.99734 -16.05578,-24.7012 V 97.666422 H 634.0168 Z M 235.29833,220.55487 263.39594,209.43933 V 79.552209 L 235.29833,90.77067 Z"
   id="path1"
   style="fill:#666666;stroke-width:1.02921" />
</svg>
