<?xml version="1.0" encoding="UTF-8" standalone="no"?>
<svg
   viewBox="0 0 413.26001 365.9841"
   version="1.1"
   id="svg177"
   sodipodi:docname="op1.svg"
   width="413.26001"
   height="365.9841"
   inkscape:export-filename="op1.svg"
   inkscape:export-xdpi="96"
   inkscape:export-ydpi="96"
   xmlns:inkscape="http://www.inkscape.org/namespaces/inkscape"
   xmlns:sodipodi="http://sodipodi.sourceforge.net/DTD/sodipodi-0.dtd"
   xmlns="http://www.w3.org/2000/svg"
   xmlns:svg="http://www.w3.org/2000/svg">
  <defs
     id="defs177" />
  <sodipodi:namedview
     id="namedview177"
     pagecolor="#ffffff"
     bordercolor="#000000"
     borderopacity="0.25"
     inkscape:showpageshadow="2"
     inkscape:pageopacity="0.0"
     inkscape:pagecheckerboard="0"
     inkscape:deskcolor="#d1d1d1" />
  <g
     id="freepik--background-complete--inject-119"
     transform="translate(-43.606737,-46.59)">
    <path
       d="m 92.64,317.14 -14.84,0.28 -7.51,0.12 c -2.51,0 -5,0 -7.55,0 H 62.3 V 317.09 304.46 304 h 0.5 l 14.95,0.07 c 5,0 10,0.11 15,0.16 h 0.27 v 0.27 c 0,2.14 -0.09,4.27 -0.13,6.38 z m 0,0 -0.15,-6.37 c 0,-2.1 -0.11,-4.19 -0.13,-6.26 l 0.28,0.27 c -5,0.06 -10,0.16 -15,0.17 l -14.9,0.05 0.5,-0.5 -0.05,12.63 -0.45,-0.44 c 2.47,0 4.93,0 7.4,0.05 l 7.43,0.12 z"
       style="fill:#ebebeb"
       id="path1" />
    <path
       d="m 76,333.07 -14.83,0.28 -7.52,0.12 c -2.51,0 -5,0 -7.55,0 h -0.44 v -0.45 L 45.6,320.39 v -0.5 h 0.5 L 61,320 c 5,0 10,0.12 14.95,0.17 h 0.27 v 0.27 c 0,2.14 -0.08,4.27 -0.13,6.38 z m 0,0 -0.14,-6.37 c 0,-2.1 -0.11,-4.19 -0.13,-6.26 l 0.27,0.27 c -5,0.06 -10,0.16 -14.95,0.17 l -14.95,0.06 0.5,-0.5 -0.05,12.63 -0.45,-0.44 c 2.47,0 4.93,0 7.4,0.05 l 7.44,0.12 z"
       style="fill:#ebebeb"
       id="path2" />
    <path
       d="M 76,59.71 61.13,60 53.61,60.11 c -2.51,0 -5,0 -7.55,0.06 H 45.62 V 59.72 L 45.56,47.09 v -0.5 h 0.5 L 61,46.64 c 5,0 10,0.12 14.95,0.17 h 0.27 v 0.27 c 0,2.14 -0.08,4.27 -0.13,6.38 z m 0,0 -0.14,-6.37 c 0,-2.1 -0.11,-4.19 -0.13,-6.26 L 76,47.35 c -5,0 -10,0.16 -14.95,0.17 l -14.95,0.06 0.5,-0.5 -0.05,12.63 -0.45,-0.44 c 2.47,0 4.93,0 7.4,0 l 7.44,0.12 z"
       style="fill:#ebebeb"
       id="path3" />
    <path
       d="M 453.94,59.71 439.1,60 l -7.51,0.11 c -2.51,0 -5,0 -7.55,0.06 h -0.44 v -0.45 -12.63 -0.5 h 0.5 l 14.95,0.06 c 5,0 10,0.12 14.95,0.17 h 0.27 v 0.27 c 0,2.14 -0.09,4.27 -0.13,6.38 z m 0,0 -0.14,-6.37 c -0.05,-2.1 -0.12,-4.19 -0.14,-6.26 l 0.28,0.27 c -5,0 -10,0.16 -14.95,0.17 l -14.99,0.06 0.5,-0.5 -0.05,12.63 -0.45,-0.44 c 2.47,0 4.93,0 7.4,0 l 7.43,0.12 z"
       style="fill:#ebebeb"
       id="path4" />
    <path
       d="m 437.26,75.64 -14.83,0.28 -7.52,0.11 c -2.51,0 -5,0 -7.55,0.06 h -0.44 V 75.64 L 406.86,63 v -0.5 h 0.5 l 14.95,0.06 c 5,0 10,0.12 14.95,0.17 h 0.28 V 63 c 0,2.14 -0.08,4.27 -0.13,6.38 z m 0,0 -0.14,-6.37 c -0.05,-2.11 -0.11,-4.19 -0.13,-6.26 l 0.27,0.27 c -5,0 -10,0.16 -14.95,0.17 l -14.95,0.06 0.5,-0.5 -0.05,12.63 -0.45,-0.44 c 2.47,0 4.93,0 7.4,0 l 7.44,0.12 z"
       style="fill:#ebebeb"
       id="path5" />
    <path
       d="m 360.69,223.44 -14.83,0.28 -7.52,0.11 c -2.51,0 -5,0 -7.54,0 h -0.45 v -0.45 l -0.05,-12.64 v -0.5 h 0.51 l 14.94,0.07 c 5,0 10,0.11 14.95,0.16 h 0.3 v 0.27 c 0,2.14 -0.08,4.27 -0.13,6.38 z m 0,0 -0.14,-6.38 c -0.05,-2.1 -0.11,-4.18 -0.13,-6.26 l 0.27,0.28 c -5,0 -10,0.16 -14.95,0.16 l -14.94,0.06 0.49,-0.5 -0.05,12.64 -0.44,-0.45 c 2.46,0 4.92,0 7.39,0.06 l 7.44,0.11 z"
       style="fill:#ebebeb"
       id="path6" />
    <path
       d="m 344,239.37 -14.83,0.28 -7.51,0.11 c -2.51,0.05 -5,0 -7.55,0.05 h -0.45 v -0.45 l -0.05,-12.64 v -0.5 h 0.5 l 14.95,0.07 c 5,0 10,0.11 14.94,0.16 h 0.28 v 0.27 c 0,2.14 -0.09,4.27 -0.13,6.38 z m 0,0 -0.14,-6.38 c 0,-2.1 -0.11,-4.18 -0.13,-6.26 l 0.27,0.28 c -5,0.05 -10,0.16 -14.94,0.16 l -14.95,0.06 0.5,-0.5 -0.06,12.64 -0.44,-0.45 c 2.46,0 4.93,0 7.4,0.06 l 7.43,0.11 z"
       style="fill:#ebebeb"
       id="path7" />
    <path
       d="m 327.4,223.44 -14.83,0.28 -7.51,0.11 c -2.51,0 -5,0 -7.55,0 h -0.45 v -0.45 L 297,210.8 v -0.5 h 0.51 l 14.94,0.07 c 5,0 10,0.11 14.95,0.16 h 0.28 v 0.27 c 0,2.14 -0.09,4.27 -0.13,6.38 z m 0,0 -0.14,-6.38 c 0,-2.1 -0.11,-4.18 -0.13,-6.26 l 0.27,0.28 c -5,0 -10,0.16 -14.95,0.16 l -14.94,0.06 0.5,-0.5 -0.01,12.64 -0.44,-0.45 c 2.46,0 4.92,0 7.4,0.06 l 7.43,0.11 z"
       style="fill:#ebebeb"
       id="path8" />
    <path
       d="m 453.94,333.07 -14.84,0.28 -7.51,0.12 c -2.51,0 -5,0 -7.55,0 h -0.44 v -0.45 -12.63 -0.5 h 0.5 L 439,320 c 5,0 10,0.12 14.95,0.17 h 0.27 v 0.27 c 0,2.14 -0.09,4.27 -0.13,6.38 z m 0,0 -0.14,-6.37 c -0.05,-2.1 -0.12,-4.19 -0.14,-6.26 l 0.28,0.27 c -5,0.06 -10,0.16 -14.95,0.17 l -14.95,0.06 0.5,-0.5 -0.05,12.63 -0.45,-0.44 c 2.47,0 4.93,0 7.4,0.05 l 7.43,0.12 z"
       style="fill:#ebebeb"
       id="path9" />
    <path
       d="m 199.93,97.28 -14.84,0.28 -7.51,0.11 c -2.51,0 -5,0 -7.55,0.06 h -0.44 v -0.45 l -0.05,-12.63 v -0.5 h 0.5 l 14.95,0.06 c 5,0 10,0.11 15,0.17 h 0.27 v 0.27 c 0,2.14 -0.09,4.27 -0.13,6.37 z m 0,0 -0.15,-6.37 c 0,-2.11 -0.11,-4.19 -0.13,-6.26 l 0.28,0.27 c -5,0 -10,0.16 -15,0.16 l -14.93,0.07 0.5,-0.5 -0.05,12.63 -0.45,-0.44 c 2.47,0 4.93,0 7.4,0 l 7.43,0.11 z"
       style="fill:#ebebeb"
       id="path10" />
    <path
       d="m 423.23,181 5.88,-9.49 -2.9,-1.8 a 2.67,2.67 0 0 1 -1.24,-2.5 15.44,15.44 0 0 0 0.06,-1.67 2.65,2.65 0 0 1 1.38,-2.41 l 3,-1.61 -5.28,-9.85 -3,1.62 a 2.66,2.66 0 0 1 -2.77,-0.18 16,16 0 0 0 -1.42,-0.88 2.66,2.66 0 0 1 -1.4,-2.41 l 0.11,-3.42 -11.17,-0.4 -0.1,3.43 a 2.67,2.67 0 0 1 -1.56,2.31 c -0.24,0.11 -0.49,0.24 -0.73,0.37 -0.24,0.13 -0.48,0.26 -0.71,0.4 a 2.65,2.65 0 0 1 -2.78,0 l -2.93,-1.81 -5.88,9.49 2.91,1.81 a 2.66,2.66 0 0 1 1.23,2.5 13.1,13.1 0 0 0 -0.05,1.66 2.68,2.68 0 0 1 -1.39,2.41 l -3,1.61 5.28,9.85 3,-1.62 a 2.66,2.66 0 0 1 2.77,0.18 16,16 0 0 0 1.42,0.88 2.65,2.65 0 0 1 1.4,2.4 l -0.11,3.43 11.17,0.35 0.1,-3.43 a 2.65,2.65 0 0 1 1.55,-2.3 l 0.74,-0.38 c 0.25,-0.13 0.49,-0.26 0.72,-0.4 a 2.67,2.67 0 0 1 2.79,0 z m -9.46,-7.05 a 9.14,9.14 0 1 1 3.75,-12.38 9.14,9.14 0 0 1 -3.75,12.35 z"
       style="fill:#ebebeb"
       id="path11" />
    <path
       d="m 101.53,288.51 5.89,-9.49 -2.91,-1.8 a 2.66,2.66 0 0 1 -1.23,-2.5 15.45,15.45 0 0 0 0,-1.67 2.66,2.66 0 0 1 1.39,-2.41 l 3,-1.61 -5.28,-9.85 -3,1.62 a 2.68,2.68 0 0 1 -2.78,-0.18 13.94,13.94 0 0 0 -1.42,-0.88 2.68,2.68 0 0 1 -1.4,-2.41 l 0.11,-3.42 -11.16,-0.35 -0.1,3.43 a 2.67,2.67 0 0 1 -1.56,2.32 c -0.25,0.11 -0.49,0.24 -0.74,0.37 -0.25,0.13 -0.48,0.26 -0.71,0.4 a 2.63,2.63 0 0 1 -2.77,0 l -2.86,-1.79 -5.89,9.49 2.89,1.81 a 2.64,2.64 0 0 1 1.23,2.5 c 0,0.55 -0.06,1.1 0,1.66 a 2.66,2.66 0 0 1 -1.39,2.41 l -3,1.61 5.28,9.85 3,-1.62 a 2.68,2.68 0 0 1 2.78,0.18 13.71,13.71 0 0 0 1.41,0.87 2.68,2.68 0 0 1 1.4,2.41 l -0.1,3.43 11.16,0.34 0.11,-3.42 a 2.66,2.66 0 0 1 1.55,-2.31 c 0.25,-0.11 0.49,-0.24 0.74,-0.37 0.25,-0.13 0.48,-0.26 0.71,-0.41 a 2.65,2.65 0 0 1 2.79,0 z m -9.45,-7.05 a 9.15,9.15 0 1 1 3.74,-12.38 9.14,9.14 0 0 1 -3.74,12.38 z"
       style="fill:#ebebeb"
       id="path12" />
    <path
       d="M 215.87,106.74 212,100 l -2.08,1.2 a 1.85,1.85 0 0 1 -1.95,-0.07 11,11 0 0 0 -1,-0.58 1.85,1.85 0 0 1 -1,-1.65 v -2.4 h -7.82 v 2.4 a 1.87,1.87 0 0 1 -1,1.65 c -0.35,0.18 -0.69,0.37 -1,0.58 a 1.85,1.85 0 0 1 -2,0.07 L 192,100 l -3.91,6.78 2.08,1.2 a 1.85,1.85 0 0 1 0.91,1.72 c 0,0.19 0,0.39 0,0.58 0,0.19 0,0.38 0,0.58 a 1.82,1.82 0 0 1 -0.9,1.71 l -2.09,1.21 3.91,6.78 2.08,-1.2 a 1.85,1.85 0 0 1 1.95,0.07 11,11 0 0 0 1,0.58 1.87,1.87 0 0 1 1,1.65 V 124 h 7.82 v -2.4 a 1.85,1.85 0 0 1 1,-1.65 c 0.35,-0.18 0.68,-0.37 1,-0.58 a 1.85,1.85 0 0 1 1.95,-0.07 l 2.08,1.2 3.91,-6.78 -2.08,-1.2 a 1.85,1.85 0 0 1 -0.91,-1.72 c 0,-0.19 0,-0.39 0,-0.58 0,-0.19 0,-0.39 0,-0.58 a 1.85,1.85 0 0 1 0.91,-1.72 z m -7.48,3.5 a 6.41,6.41 0 1 1 -6.41,-6.41 6.41,6.41 0 0 1 6.41,6.41 z"
       style="fill:#ebebeb"
       id="path13" />
  </g>
  <g
     id="freepik--Plant--inject-119"
     transform="translate(-43.37,-41.630853)">
    <path
       d="m 88.84,303.84 c -13.07,12.79 -15.27,32.59 -12.51,49.92 0.07,0.4 0.68,0.29 0.68,-0.08 0,-3.95 -0.12,-7.86 -0.11,-11.76 0.07,-0.17 0.13,-0.34 0.2,-0.52 3.41,-2.48 6.55,-5.28 8.49,-9.12 2.18,-4.29 3,-9.14 4.71,-13.62 0.16,-0.43 -0.3,-0.3 -0.6,-0.08 -8,5.86 -10.48,12.17 -12.76,20.6 a 69.79,69.79 0 0 1 1.38,-13.13 c 1.72,-8 5.11,-15.93 10.86,-21.86 0.22,-0.19 -0.12,-0.58 -0.34,-0.35 z"
       style="fill:#263238"
       id="path14" />
    <path
       d="m 91.29,305.33 c 2.25,0.08 3.66,3.67 5.41,4.72 a 1.68,1.68 0 0 0 2.48,-0.39 c 1.74,-2.42 -0.64,-5.41 -2.88,-7.09 1.6,0.66 2.93,1.82 4.65,2.15 a 1.64,1.64 0 0 0 2.11,-1.26 c 0.76,-3.31 -3.39,-4.77 -6.23,-4.84 1.38,-1 5.33,-3.57 3.23,-4.85 -2.1,-1.28 -6.76,2.44 -8.27,3.67 -2.23,1.8 -4.88,4.5 -5,7.32 -0.11,3.29 2.77,1.24 4.5,0.57 z"
       style="fill:#2b68f1"
       id="path15" />
    <path
       d="m 91.29,305.33 c 2.25,0.08 3.66,3.67 5.41,4.72 a 1.68,1.68 0 0 0 2.48,-0.39 c 1.74,-2.42 -0.64,-5.41 -2.88,-7.09 1.6,0.66 2.93,1.82 4.65,2.15 a 1.64,1.64 0 0 0 2.11,-1.26 c 0.76,-3.31 -3.39,-4.77 -6.23,-4.84 1.38,-1 5.33,-3.57 3.23,-4.85 -2.1,-1.28 -6.76,2.44 -8.27,3.67 -2.23,1.8 -4.88,4.5 -5,7.32 -0.11,3.29 2.77,1.24 4.5,0.57 z"
       style="opacity:0.1"
       id="path16" />
    <path
       d="m 90.64,305.89 c 2.88,-1.31 8.4,0.57 8.87,-0.52 0.95,-2.21 -3.46,-3.73 -5.85,-4 2.2,-0.59 6.4,-1.54 6.27,-3.65 -0.16,-2.59 -6.44,-0.36 -9.63,2.08 -4,3.07 -4,6 -3.32,6.63 0.91,0.79 3.19,-0.33 3.66,-0.54 z"
       style="fill:#2b68f1"
       id="path17" />
    <path
       d="m 59.07,302.57 c 13.55,12.29 16.49,32 14.4,49.42 -0.06,0.39 -0.67,0.31 -0.68,-0.06 -0.15,-3.95 -0.18,-7.86 -0.34,-11.75 -0.08,-0.18 -0.15,-0.34 -0.22,-0.52 -3.51,-2.35 -6.75,-5 -8.83,-8.79 -2.35,-4.21 -3.39,-9 -5.23,-13.43 -0.17,-0.42 0.29,-0.32 0.6,-0.11 8.17,5.56 10.94,11.77 13.54,20.11 a 71.38,71.38 0 0 0 -1.88,-13.07 c -2,-7.93 -5.72,-15.72 -11.69,-21.44 -0.22,-0.22 0.1,-0.57 0.33,-0.36 z"
       style="fill:#263238"
       id="path18" />
    <path
       d="m 56.68,304.16 c -2.25,0.16 -3.52,3.8 -5.23,4.92 a 1.68,1.68 0 0 1 -2.49,-0.3 c -1.83,-2.35 0.43,-5.43 2.61,-7.19 -1.58,0.72 -2.86,1.93 -4.57,2.32 a 1.62,1.62 0 0 1 -2.15,-1.18 c -0.89,-3.27 3.2,-4.9 6,-5.07 -1.41,-0.91 -5.46,-3.36 -3.41,-4.72 2.05,-1.36 6.85,2.18 8.41,3.35 2.29,1.71 5,4.31 5.25,7.12 0.28,3.29 -2.67,1.37 -4.42,0.75 z"
       style="fill:#2b68f1"
       id="path19" />
    <path
       d="m 56.68,304.16 c -2.25,0.16 -3.52,3.8 -5.23,4.92 a 1.68,1.68 0 0 1 -2.49,-0.3 c -1.83,-2.35 0.43,-5.43 2.61,-7.19 -1.58,0.72 -2.86,1.93 -4.57,2.32 a 1.62,1.62 0 0 1 -2.15,-1.18 c -0.89,-3.27 3.2,-4.9 6,-5.07 -1.41,-0.91 -5.46,-3.36 -3.41,-4.72 2.05,-1.36 6.85,2.18 8.41,3.35 2.29,1.71 5,4.31 5.25,7.12 0.28,3.29 -2.67,1.37 -4.42,0.75 z"
       style="opacity:0.1"
       id="path20" />
    <path
       d="m 57.35,304.69 c -2.93,-1.2 -8.37,0.89 -8.88,-0.18 -1,-2.18 3.31,-3.86 5.68,-4.25 -2.21,-0.51 -6.45,-1.29 -6.4,-3.41 0.06,-2.59 6.43,-0.61 9.7,1.71 4.13,2.92 4.21,5.88 3.57,6.5 -0.87,0.85 -3.19,-0.18 -3.67,-0.37 z"
       style="fill:#2b68f1"
       id="path21" />
    <path
       d="m 72.93,335 a 132.49,132.49 0 0 0 4.2,19.42 0.50894499,0.50894499 0 0 0 1,-0.19 c -0.89,-6 -2.51,-11.86 -3.4,-17.85 a 89.21,89.21 0 0 1 -1,-18.32 c 0.57,-10.09 3.31,-20.83 9.89,-28.72 0.14,-0.19 -0.16,-0.45 -0.31,-0.28 C 70,304.46 72.13,323.3 72.15,325 70.28,318.64 68.36,311.35 61.3,304.87 c -0.31,-0.28 -0.54,-0.15 -0.49,0.33 1.26,11.8 4.54,18 11.38,24.27 0.2,1.86 0.44,3.72 0.74,5.53 z"
       style="fill:#263238"
       id="path22" />
    <path
       d="m 83.65,291.14 c 2.37,-1.06 5.64,2 8,2.17 A 1.94,1.94 0 0 0 94,291.66 c 0.59,-3.39 -3.39,-5.3 -6.56,-5.9 2,-0.13 4,0.41 5.92,-0.12 a 1.87,1.87 0 0 0 1.54,-2.37 C 94,279.46 89,280 86,281.38 c 0.94,-1.69 3.73,-6.38 0.91,-6.65 -2.82,-0.27 -5.79,5.93 -6.74,8 -1.4,3 -2.79,7.12 -1.48,10.09 1.54,3.45 3.51,-0.1 4.96,-1.68 z"
       style="fill:#2b68f1"
       id="path23" />
    <path
       d="m 83.65,291.14 c 2.37,-1.06 5.64,2 8,2.17 A 1.94,1.94 0 0 0 94,291.66 c 0.59,-3.39 -3.39,-5.3 -6.56,-5.9 2,-0.13 4,0.41 5.92,-0.12 a 1.87,1.87 0 0 0 1.54,-2.37 C 94,279.46 89,280 86,281.38 c 0.94,-1.69 3.73,-6.38 0.91,-6.65 -2.82,-0.27 -5.79,5.93 -6.74,8 -1.4,3 -2.79,7.12 -1.48,10.09 1.54,3.45 3.51,-0.1 4.96,-1.68 z"
       style="opacity:0.1"
       id="path24" />
    <path
       d="m 83.25,292 c 2.33,-2.8 9,-3.63 8.94,-5 -0.12,-2.77 -5.47,-2.13 -8.09,-1.23 2,-1.73 5.86,-4.82 4.67,-6.95 -1.47,-2.6 -6.88,2.87 -9,7 -2.61,5.21 -1.09,8.28 -0.1,8.56 1.4,0.43 3.2,-1.88 3.58,-2.38 z"
       style="fill:#2b68f1"
       id="path25" />
    <path
       d="M 64.25,338.58 58.44,383 H 93.81 C 93.09,379.07 86.5,338.54 86.5,338.54 Z"
       style="fill:#2b68f1"
       id="path26" />
  </g>
  <g
     id="freepik--Floor--inject-119"
     transform="translate(-43.37,-41.630853)">
    <polygon
       points="146.69,382.81 250,382.64 353.31,382.81 404.97,382.9 456.63,383.14 404.97,383.39 353.31,383.48 250,383.64 146.69,383.48 95.03,383.39 43.37,383.14 95.03,382.9 "
       style="fill:#263238"
       id="polygon26" />
  </g>
  <g
     id="freepik--Shadow--inject-119"
     transform="translate(-53.632356,-104.13589)">
    <ellipse
       cx="250"
       cy="449.04001"
       rx="149.06"
       ry="21.08"
       style="fill:#ebebeb"
       id="ellipse26" />
  </g>
  <g
     id="freepik--404-error--inject-119"
     transform="translate(-43.37,-41.630853)">
    <path
       d="m 157.57,227.67 -6.21,-24.43 -49,12.47 -6.48,-25.5 39.12,-89.32 19.47,-4.89 18.9,74.36 15.69,-4 6.53,25.64 -15.69,4 6.2,24.43 z m -33.57,-44.8 24.26,-6.17 -8,-31.56 z"
       style="fill:#263238"
       id="path27" />
    <path
       d="m 298,146.12 a 65.58,65.58 0 0 1 -3.68,22.35 55.48,55.48 0 0 1 -10.12,17.67 45.82,45.82 0 0 1 -15.2,11.59 43.91,43.91 0 0 1 -19,4.14 44.54,44.54 0 0 1 -19.14,-4.14 45.75,45.75 0 0 1 -15.27,-11.59 54.17,54.17 0 0 1 -10,-17.67 66.82,66.82 0 0 1 -3.59,-22.35 66.84,66.84 0 0 1 3.59,-22.36 54.22,54.22 0 0 1 10,-17.66 46.68,46.68 0 0 1 15.27,-11.68 43.74,43.74 0 0 1 19.14,-4.23 43.12,43.12 0 0 1 19,4.23 46.76,46.76 0 0 1 15.18,11.68 55.54,55.54 0 0 1 10.12,17.66 65.6,65.6 0 0 1 3.7,22.36 z m -29.62,0 q 0,-12.88 -5.15,-20.88 -5.15,-8 -13.25,-8 -8.46,0 -13.52,8 -5.06,8 -5.06,20.88 0,12.88 5.06,20.79 5.06,7.91 13.54,7.91 8.1,0 13.25,-7.91 5.15,-7.91 5.15,-20.79 z"
       style="fill:#263238"
       id="path28" />
    <path
       d="m 350.84,223 4,-24.88 -49.91,-8.12 4.21,-26 71.5,-66.33 19.8,3.21 -12.27,75.74 16,2.59 -4.23,26.15 -16,-2.59 -4,24.88 z m -13,-54.47 24.7,4 5.21,-32.15 z"
       style="fill:#263238"
       id="path29" />
    <path
       d="m 208.68,72.46 a 13,13 0 0 1 -5.68,-1.23 13.94,13.94 0 0 1 -4.4,-3.27 15.19,15.19 0 0 1 -3.86,-10 14.37,14.37 0 0 1 1.07,-5.5 15.16,15.16 0 0 1 2.95,-4.64 13.94,13.94 0 0 1 4.46,-3.21 13.18,13.18 0 0 1 5.62,-1.19 12.56,12.56 0 0 1 5.67,1.27 14.22,14.22 0 0 1 4.34,3.31 15.11,15.11 0 0 1 2.83,4.69 14.67,14.67 0 0 1 0,10.8 14.91,14.91 0 0 1 -2.91,4.61 13.89,13.89 0 0 1 -4.44,3.19 13.31,13.31 0 0 1 -5.65,1.17 z m -8.33,-14.54 a 11.38,11.38 0 0 0 0.57,3.59 9.53,9.53 0 0 0 1.64,3.07 7.91,7.91 0 0 0 2.62,2.14 7.57,7.57 0 0 0 3.54,0.81 7.41,7.41 0 0 0 3.57,-0.83 8.1,8.1 0 0 0 2.63,-2.2 9.68,9.68 0 0 0 1.61,-3.09 11.31,11.31 0 0 0 0,-7.09 10,10 0 0 0 -1.65,-3.07 8,8 0 0 0 -2.63,-2.12 8.16,8.16 0 0 0 -7.09,0 8,8 0 0 0 -2.63,2.18 9.85,9.85 0 0 0 -1.59,3.07 11.63,11.63 0 0 0 -0.59,3.54 z"
       style="fill:#263238"
       id="path30" />
    <path
       d="m 236.23,72.66 a 11.48,11.48 0 0 1 -4.65,-0.89 10.34,10.34 0 0 1 -3.49,-2.4 10.68,10.68 0 0 1 -2.21,-3.49 11.9,11.9 0 0 1 0,-8.37 10.68,10.68 0 0 1 2.21,-3.51 10.34,10.34 0 0 1 3.49,-2.4 11.48,11.48 0 0 1 4.65,-0.89 11.33,11.33 0 0 1 4.62,0.89 10.36,10.36 0 0 1 3.47,2.4 10.68,10.68 0 0 1 2.21,3.49 11.9,11.9 0 0 1 0,8.37 10.94,10.94 0 0 1 -2.18,3.49 10.3,10.3 0 0 1 -3.48,2.4 11.46,11.46 0 0 1 -4.64,0.91 z m -5.54,-10.94 a 7.2,7.2 0 0 0 0.43,2.56 6.2,6.2 0 0 0 1.17,2 5.1,5.1 0 0 0 1.71,1.31 5.31,5.31 0 0 0 4.37,0 5.1,5.1 0 0 0 1.75,-1.31 6.4,6.4 0 0 0 1.18,-2 7.61,7.61 0 0 0 0.42,-2.59 7.48,7.48 0 0 0 -0.42,-2.54 6.4,6.4 0 0 0 -1.18,-2 5.1,5.1 0 0 0 -1.75,-1.31 5.17,5.17 0 0 0 -2.18,-0.47 4.92,4.92 0 0 0 -2.19,0.49 5.42,5.42 0 0 0 -1.75,1.33 6.2,6.2 0 0 0 -1.17,2 7.26,7.26 0 0 0 -0.39,2.53 z"
       style="fill:#263238"
       id="path31" />
    <path
       d="m 263.61,72.66 a 8.34,8.34 0 0 1 -4.36,-1.11 7.86,7.86 0 0 1 -2.91,-3 v 12.31 h -5.41 V 51.09 h 4.73 v 3.64 a 8.58,8.58 0 0 1 3,-2.93 8.42,8.42 0 0 1 4.34,-1.07 9.1,9.1 0 0 1 4,0.87 9.93,9.93 0 0 1 3.13,2.34 11,11 0 0 1 2.06,3.47 11.94,11.94 0 0 1 0.74,4.22 13.59,13.59 0 0 1 -0.68,4.33 11.11,11.11 0 0 1 -1.92,3.51 8.82,8.82 0 0 1 -2.93,2.34 8.14,8.14 0 0 1 -3.79,0.85 z m -1.81,-4.6 a 4.89,4.89 0 0 0 2.24,-0.53 5.45,5.45 0 0 0 1.75,-1.41 6.55,6.55 0 0 0 1.14,-2.06 7.37,7.37 0 0 0 0.4,-2.43 7,7 0 0 0 -0.44,-2.48 6.19,6.19 0 0 0 -1.24,-2 5.65,5.65 0 0 0 -1.86,-1.33 5.42,5.42 0 0 0 -2.32,-0.49 4.94,4.94 0 0 0 -1.57,0.27 5.52,5.52 0 0 0 -1.5,0.74 6.61,6.61 0 0 0 -1.23,1.13 4.85,4.85 0 0 0 -0.83,1.42 v 5 a 7.34,7.34 0 0 0 2.22,3 5.13,5.13 0 0 0 3.24,1.17 z"
       style="fill:#263238"
       id="path32" />
    <path
       d="M 284.54,72.66 A 16.21,16.21 0 0 1 279.33,71.81 12.69,12.69 0 0 1 275,69.39 L 277,66 a 17.91,17.91 0 0 0 3.78,2.08 10.19,10.19 0 0 0 3.66,0.7 4.66,4.66 0 0 0 2.54,-0.6 2,2 0 0 0 0.93,-1.74 1.73,1.73 0 0 0 -1.09,-1.65 23.75,23.75 0 0 0 -3.55,-1.22 c -1.38,-0.37 -2.55,-0.74 -3.52,-1.09 a 8.78,8.78 0 0 1 -2.34,-1.19 4,4 0 0 1 -1.29,-1.53 4.91,4.91 0 0 1 -0.41,-2.08 6.54,6.54 0 0 1 0.63,-2.91 6.26,6.26 0 0 1 1.76,-2.2 8.13,8.13 0 0 1 2.64,-1.4 10.86,10.86 0 0 1 3.29,-0.48 14.43,14.43 0 0 1 4.47,0.68 10.79,10.79 0 0 1 3.81,2.23 l -2.18,3.27 a 12.59,12.59 0 0 0 -3.13,-1.78 8.49,8.49 0 0 0 -3,-0.57 4.33,4.33 0 0 0 -2.3,0.57 2,2 0 0 0 -0.93,1.82 1.85,1.85 0 0 0 0.22,0.93 1.94,1.94 0 0 0 0.71,0.64 7.15,7.15 0 0 0 1.27,0.55 c 0.53,0.17 1.18,0.36 2,0.54 1.46,0.38 2.7,0.76 3.74,1.14 a 9.69,9.69 0 0 1 2.47,1.29 4.59,4.59 0 0 1 1.46,1.67 5.2,5.2 0 0 1 0.46,2.33 5.91,5.91 0 0 1 -2.3,4.91 10,10 0 0 1 -6.26,1.75 z"
       style="fill:#263238"
       id="path33" />
    <path
       d="M 297.67,61.47 V 43.29 h 5.41 v 18.18 z m 0,10.79 v -6.1 h 5.41 v 6.1 z"
       style="fill:#263238"
       id="path34" />
  </g>
  <g
     id="freepik--Gears--inject-119"
     transform="matrix(0.26009015,0,0,0.26009015,81.525922,223.1095)">
    <path
       d="m 271.62,355.79 a 26.61,26.61 0 0 1 2,-5.88 23.77,23.77 0 0 1 3.31,-5.28 12.8,12.8 0 0 1 5,-3.75 8.85,8.85 0 0 1 6.31,0.06 8.4,8.4 0 0 1 4.51,4.47 9.83,9.83 0 0 1 0.84,3.11 7,7 0 0 1 -0.37,3.27 2.94,2.94 0 0 1 -1.1,1.41 2.14,2.14 0 0 1 -0.91,0.34 2,2 0 0 1 -1,-0.09 2.81,2.81 0 0 1 -1.29,-1.31 7.28,7.28 0 0 1 -0.59,-1.54 20.11,20.11 0 0 1 -0.52,-6.31 25.87,25.87 0 0 1 3.64,-12 15.64,15.64 0 0 1 4.34,-4.61 13.14,13.14 0 0 1 5.89,-2.28 16.51,16.51 0 0 1 3.14,-0.27 9.25,9.25 0 0 1 1.58,0.1 10.26,10.26 0 0 1 1.56,0.21 19.16,19.16 0 0 1 5.86,2.21 24.69,24.69 0 0 1 4.9,3.85 26.13,26.13 0 0 1 3.86,4.85 27,27 0 0 0 -9,-8.27 18.75,18.75 0 0 0 -5.73,-2 20.94,20.94 0 0 0 -3,-0.23 15.94,15.94 0 0 0 -3,0.33 13,13 0 0 0 -5.53,2.23 14.65,14.65 0 0 0 -4.06,4.38 25,25 0 0 0 -3.43,11.54 19.31,19.31 0 0 0 0.45,6 c 0.24,0.92 0.67,2 1.3,2.24 a 1.32,1.32 0 0 0 0.23,0.05 1,1 0 0 0 0.3,0 1.25,1.25 0 0 0 0.53,-0.19 2.08,2.08 0 0 0 0.76,-1 6,6 0 0 0 0.33,-2.83 9.38,9.38 0 0 0 -0.75,-2.85 7.82,7.82 0 0 0 -4,-4.11 8.16,8.16 0 0 0 -5.8,-0.18 12.46,12.46 0 0 0 -4.88,3.48 27,27 0 0 0 -5.68,10.85 z"
       style="fill:#263238"
       id="path126" />
    <path
       d="m 179.22,381.7 a 14,14 0 0 1 4,-4.63 15,15 0 0 1 5.6,-2.69 12.05,12.05 0 0 1 6.25,0.13 12.48,12.48 0 0 1 5.34,3.32 15.79,15.79 0 0 1 3.34,5.33 14.64,14.64 0 0 1 1,6.23 5.24,5.24 0 0 1 -1.16,3.12 2.44,2.44 0 0 1 -1.69,0.76 3.7,3.7 0 0 1 -1.72,-0.39 2.83,2.83 0 0 1 -1.24,-1.32 4.37,4.37 0 0 1 -0.38,-1.68 9.17,9.17 0 0 1 0.53,-3.19 18.58,18.58 0 0 1 3.06,-5.51 22,22 0 0 1 4.53,-4.35 16.9,16.9 0 0 1 11.92,-3.28 16,16 0 0 1 5.95,1.94 16.39,16.39 0 0 1 4.73,4.07 22.32,22.32 0 0 1 3.08,5.38 25.27,25.27 0 0 1 1.64,5.95 25,25 0 0 0 -5.12,-11 15.51,15.51 0 0 0 -4.64,-3.82 15.23,15.23 0 0 0 -5.73,-1.72 16.27,16.27 0 0 0 -11.29,3.22 20.52,20.52 0 0 0 -7.19,9.43 8.13,8.13 0 0 0 -0.51,2.85 2.42,2.42 0 0 0 1.1,2.2 2.53,2.53 0 0 0 1.25,0.29 1.49,1.49 0 0 0 1.06,-0.47 4.36,4.36 0 0 0 0.92,-2.56 13.7,13.7 0 0 0 -1,-5.84 15.56,15.56 0 0 0 -3.12,-5.08 11.8,11.8 0 0 0 -5,-3.22 11.43,11.43 0 0 0 -5.92,-0.26 15.39,15.39 0 0 0 -9.59,6.79 z"
       style="fill:#263238"
       id="path127" />
    <path
       d="m 133,140.21 a 26.83,26.83 0 0 0 -2.9,-11.87 12.38,12.38 0 0 0 -3.9,-4.55 8.21,8.21 0 0 0 -5.68,-1.21 7.77,7.77 0 0 0 -4.87,3 9,9 0 0 0 -1.41,2.58 6,6 0 0 0 -0.36,2.83 2.1,2.1 0 0 0 0.5,1.14 1.23,1.23 0 0 0 0.47,0.32 1.57,1.57 0 0 0 0.29,0.08 1.92,1.92 0 0 0 0.24,0 c 0.68,-0.13 1.35,-1 1.8,-1.86 A 19.62,19.62 0 0 0 119,125 a 25.06,25.06 0 0 0 -0.57,-12 14.76,14.76 0 0 0 -2.9,-5.23 12.94,12.94 0 0 0 -4.84,-3.48 15.83,15.83 0 0 0 -2.84,-1 19.17,19.17 0 0 0 -3,-0.5 18.38,18.38 0 0 0 -6,0.6 26.77,26.77 0 0 0 -10.72,5.88 25.89,25.89 0 0 1 4.91,-3.8 24.76,24.76 0 0 1 5.67,-2.56 19.17,19.17 0 0 1 6.22,-0.75 22.84,22.84 0 0 1 3.12,0.45 17.14,17.14 0 0 1 3,1 13.2,13.2 0 0 1 5.18,3.62 15.53,15.53 0 0 1 3.11,5.51 25.92,25.92 0 0 1 0.69,12.49 20.32,20.32 0 0 1 -2,6 7.61,7.61 0 0 1 -0.94,1.35 2.81,2.81 0 0 1 -1.57,1 2.11,2.11 0 0 1 -1,-0.15 2.14,2.14 0 0 1 -0.79,-0.54 3.05,3.05 0 0 1 -0.74,-1.64 7,7 0 0 1 0.42,-3.26 10,10 0 0 1 1.57,-2.82 8.38,8.38 0 0 1 5.44,-3.27 8.88,8.88 0 0 1 6.14,1.45 12.77,12.77 0 0 1 4,4.84 23.63,23.63 0 0 1 2,5.92 26.22,26.22 0 0 1 0.44,6.1 z"
       style="fill:#263238"
       id="path128" />
    <path
       d="m 353.77,192.37 a 27,27 0 0 0 -12.22,0 12.4,12.4 0 0 0 -5.33,2.74 8.09,8.09 0 0 0 -2.5,5.23 7.8,7.8 0 0 0 1.81,5.45 9.17,9.17 0 0 0 2.19,2 6.12,6.12 0 0 0 2.66,1 2.15,2.15 0 0 0 1.23,-0.23 1.19,1.19 0 0 0 0.42,-0.38 c 0.06,-0.07 0.09,-0.18 0.15,-0.26 0.06,-0.08 0,-0.16 0.05,-0.23 0,-0.69 -0.68,-1.55 -1.39,-2.19 a 19.79,19.79 0 0 0 -5.12,-3.14 25,25 0 0 0 -11.82,-2.25 14.76,14.76 0 0 0 -5.76,1.6 12.88,12.88 0 0 0 -4.51,3.89 16.25,16.25 0 0 0 -1.68,2.52 9.62,9.62 0 0 0 -0.64,1.38 9.3,9.3 0 0 0 -0.54,1.41 18.53,18.53 0 0 0 -0.83,6 26.82,26.82 0 0 0 3.22,11.79 25.89,25.89 0 0 1 -2.55,-5.65 24.89,24.89 0 0 1 -1.16,-6.12 19.27,19.27 0 0 1 0.71,-6.22 11.49,11.49 0 0 1 0.53,-1.49 10.88,10.88 0 0 1 0.64,-1.44 16.42,16.42 0 0 1 1.68,-2.67 13.26,13.26 0 0 1 4.73,-4.19 15.81,15.81 0 0 1 6.08,-1.74 25.86,25.86 0 0 1 12.3,2.25 20.31,20.31 0 0 1 5.37,3.35 8.11,8.11 0 0 1 1.1,1.23 2.84,2.84 0 0 1 0.57,1.75 2,2 0 0 1 -0.37,0.93 2.14,2.14 0 0 1 -0.72,0.65 3,3 0 0 1 -1.76,0.33 6.91,6.91 0 0 1 -3.07,-1.17 10.09,10.09 0 0 1 -2.38,-2.18 8.41,8.41 0 0 1 -1.91,-6 8.88,8.88 0 0 1 2.84,-5.64 13,13 0 0 1 5.64,-2.74 23.64,23.64 0 0 1 6.21,-0.51 27,27 0 0 1 6.13,0.94 z"
       style="fill:#263238"
       id="path129" />
    <path
       d="m 291.86,127.67 a 17,17 0 0 1 -0.39,-7.35 17.89,17.89 0 0 1 2.57,-7 14.26,14.26 0 0 1 5.44,-5.1 14.87,14.87 0 0 1 7.32,-1.6 18.91,18.91 0 0 1 7.29,1.76 17.4,17.4 0 0 1 6.07,4.45 6.12,6.12 0 0 1 1.6,3.59 2.83,2.83 0 0 1 -0.78,2 4.3,4.3 0 0 1 -1.77,1.08 3.28,3.28 0 0 1 -2.1,-0.09 5.22,5.22 0 0 1 -1.7,-1.11 10.93,10.93 0 0 1 -2.2,-3.15 22.22,22.22 0 0 1 -2,-7.25 26.49,26.49 0 0 1 0.23,-7.49 20.22,20.22 0 0 1 7.42,-12.74 19.21,19.21 0 0 1 6.7,-3.32 19.42,19.42 0 0 1 7.43,-0.48 26.15,26.15 0 0 1 7.14,2 29.89,29.89 0 0 1 6.39,3.7 29.77,29.77 0 0 0 -13.52,-5.15 18.83,18.83 0 0 0 -7.21,0.6 18.81,18.81 0 0 0 -11,8.79 21.46,21.46 0 0 0 -2.35,6.8 24.58,24.58 0 0 0 1.73,14.15 10.06,10.06 0 0 0 2,2.89 3,3 0 0 0 2.88,1 3.32,3.32 0 0 0 1.36,-0.83 1.86,1.86 0 0 0 0.53,-1.35 5.25,5.25 0 0 0 -1.38,-3 16.52,16.52 0 0 0 -5.73,-4.23 18.69,18.69 0 0 0 -7,-1.74 14.34,14.34 0 0 0 -7,1.41 13.7,13.7 0 0 0 -5.31,4.77 18.39,18.39 0 0 0 -2.66,13.99 z"
       style="fill:#263238"
       id="path130" />
    <path
       d="m 175.87,381.92 a 4.25,4.25 0 1 0 2.78,5.34 4.26,4.26 0 0 0 -2.78,-5.34 z m 2.29,5.18 a 3.73,3.73 0 1 1 -2.44,-4.68 3.74,3.74 0 0 1 2.44,4.68 z m -2.29,-5.18 a 4.25,4.25 0 1 0 2.78,5.34 4.26,4.26 0 0 0 -2.78,-5.34 z m 2.29,5.18 a 3.73,3.73 0 1 1 -2.44,-4.68 3.74,3.74 0 0 1 2.44,4.68 z m -2.29,-5.18 a 4.25,4.25 0 1 0 2.78,5.34 4.26,4.26 0 0 0 -2.78,-5.34 z m 2.29,5.18 a 3.73,3.73 0 1 1 -2.44,-4.68 3.74,3.74 0 0 1 2.44,4.68 z m -0.87,-9.67 a 9,9 0 1 0 5.85,11.24 9,9 0 0 0 -5.85,-11.24 z m 2,10 a 4.91,4.91 0 1 1 -3.21,-6.16 4.91,4.91 0 0 1 3.2,6.18 z m -0.63,-0.19 a 4.25,4.25 0 1 0 -5.33,2.77 4.26,4.26 0 0 0 5.32,-2.75 z m -0.49,-0.16 a 3.73,3.73 0 1 1 -2.44,-4.68 3.74,3.74 0 0 1 2.43,4.7 z m -2.29,-5.18 a 4.25,4.25 0 1 0 2.78,5.34 4.26,4.26 0 0 0 -2.79,-5.32 z m 2.29,5.18 a 3.73,3.73 0 1 1 -2.44,-4.68 3.74,3.74 0 0 1 2.43,4.7 z m -2.29,-5.18 a 4.25,4.25 0 1 0 2.78,5.34 4.26,4.26 0 0 0 -2.79,-5.32 z m 2.29,5.18 a 3.73,3.73 0 1 1 -2.44,-4.68 3.74,3.74 0 0 1 2.43,4.7 z"
       style="fill:#455a64"
       id="path131" />
    <polygon
       points="170.37,393.65 169.82,396.04 172.74,396.96 173.66,394.69 "
       style="fill:#455a64"
       id="polygon131" />
    <polygon
       points="166.16,388.55 164.08,389.85 165.5,392.57 167.75,391.61 "
       style="fill:#455a64"
       id="polygon132" />
    <polygon
       points="166.79,381.97 164.4,381.42 163.48,384.34 165.75,385.26 "
       style="fill:#455a64"
       id="polygon133" />
    <polygon
       points="171.88,377.76 170.59,375.68 167.87,377.1 168.83,379.35 "
       style="fill:#455a64"
       id="polygon134" />
    <polygon
       points="178.47,378.38 179.02,376 176.1,375.08 175.18,377.35 "
       style="fill:#455a64"
       id="polygon135" />
    <polygon
       points="182.68,383.48 184.76,382.19 183.34,379.47 181.09,380.43 "
       style="fill:#455a64"
       id="polygon136" />
    <polygon
       points="182.05,390.07 184.44,390.62 185.36,387.7 183.09,386.78 "
       style="fill:#455a64"
       id="polygon137" />
    <polygon
       points="176.95,394.28 178.25,396.36 180.97,394.94 180.01,392.69 "
       style="fill:#455a64"
       id="polygon138" />
    <path
       d="m 341.67,353.35 a 13.7,13.7 0 1 0 -19.16,2.84 13.7,13.7 0 0 0 19.16,-2.84 z M 335.81,349 a 6.4,6.4 0 1 1 -1.32,-8.95 6.39,6.39 0 0 1 1.32,8.95 z"
       style="fill:#263238"
       id="path138" />
    <polygon
       points="320.73,354.16 318.75,357.33 322.51,360.12 324.96,357.3 "
       style="fill:#263238"
       id="polygon139" />
    <polygon
       points="317.2,344.69 313.55,345.52 314.24,350.16 317.97,349.9 "
       style="fill:#263238"
       id="polygon140" />
    <polygon
       points="321.4,335.49 318.23,333.5 315.44,337.26 318.26,339.72 "
       style="fill:#263238"
       id="polygon141" />
    <polygon
       points="330.87,331.96 330.04,328.31 325.4,329 325.66,332.73 "
       style="fill:#263238"
       id="polygon142" />
    <polygon
       points="340.07,336.15 342.05,332.99 338.29,330.19 335.84,333.01 "
       style="fill:#263238"
       id="polygon143" />
    <polygon
       points="343.6,345.63 347.25,344.79 346.56,340.16 342.83,340.42 "
       style="fill:#263238"
       id="polygon144" />
    <polygon
       points="339.4,354.82 342.57,356.81 345.36,353.05 342.54,350.59 "
       style="fill:#263238"
       id="polygon145" />
    <polygon
       points="329.93,358.36 330.76,362 335.4,361.32 335.14,357.59 "
       style="fill:#263238"
       id="polygon146" />
    <path
       d="m 325.77,345.84 2.91,3.67 4.63,-0.69 1.72,-4.35 -2.91,-3.67 -4.63,0.69 z m 5.51,-1.87 a 1.4830121,1.4830121 0 1 1 -1.77,2.38 1.49,1.49 0 0 1 -0.3,-2.08 1.47,1.47 0 0 1 2.07,-0.27 z"
       style="fill:#263238"
       id="path146" />
    <path
       d="m 351.94,86.6 a 3.72,3.72 0 1 0 2.43,4.67 3.71,3.71 0 0 0 -2.43,-4.67 z m 2,4.53 a 3.27,3.27 0 1 1 -2.13,-4.1 3.27,3.27 0 0 1 2.13,4.1 z m -2,-4.53 a 3.72,3.72 0 1 0 2.43,4.67 3.71,3.71 0 0 0 -2.43,-4.67 z m 2,4.53 a 3.27,3.27 0 1 1 -2.13,-4.1 3.27,3.27 0 0 1 2.13,4.1 z m -2,-4.53 a 3.72,3.72 0 1 0 2.43,4.67 3.71,3.71 0 0 0 -2.43,-4.67 z m 2,4.53 a 3.27,3.27 0 1 1 -2.13,-4.1 3.27,3.27 0 0 1 2.13,4.1 z m -0.76,-8.46 a 7.84,7.84 0 1 0 5.12,9.84 7.85,7.85 0 0 0 -5.12,-9.84 z m 1.74,8.77 a 4.3,4.3 0 1 1 -2.8,-5.39 4.3,4.3 0 0 1 2.8,5.39 z m -0.55,-0.17 a 3.72,3.72 0 1 0 -4.66,2.43 3.72,3.72 0 0 0 4.66,-2.43 z m -0.43,-0.14 a 3.27,3.27 0 1 1 -2.13,-4.1 3.27,3.27 0 0 1 2.13,4.1 z m -2,-4.53 a 3.72,3.72 0 1 0 2.43,4.67 3.71,3.71 0 0 0 -2.43,-4.67 z m 2,4.53 a 3.27,3.27 0 1 1 -2.13,-4.1 3.27,3.27 0 0 1 2.13,4.1 z m -2,-4.53 a 3.72,3.72 0 1 0 2.43,4.67 3.71,3.71 0 0 0 -2.43,-4.67 z m 2,4.53 a 3.27,3.27 0 1 1 -2.13,-4.1 3.27,3.27 0 0 1 2.13,4.1 z"
       style="fill:#263238"
       id="path147" />
    <polygon
       points="347.13,96.87 346.64,98.95 349.2,99.76 350,97.77 "
       style="fill:#263238"
       id="polygon147" />
    <polygon
       points="343.44,92.4 341.63,93.54 342.86,95.92 344.83,95.08 "
       style="fill:#263238"
       id="polygon148" />
    <polygon
       points="343.99,86.64 341.9,86.16 341.1,88.72 343.08,89.52 "
       style="fill:#263238"
       id="polygon149" />
    <polygon
       points="348.45,82.96 347.32,81.14 344.94,82.38 345.78,84.35 "
       style="fill:#263238"
       id="polygon150" />
    <polygon
       points="354.21,83.5 354.7,81.42 352.14,80.61 351.34,82.6 "
       style="fill:#263238"
       id="polygon151" />
    <polygon
       points="357.9,87.97 359.72,86.83 358.48,84.45 356.51,85.29 "
       style="fill:#263238"
       id="polygon152" />
    <polygon
       points="357.35,93.73 359.44,94.21 360.24,91.65 358.26,90.85 "
       style="fill:#263238"
       id="polygon153" />
    <polygon
       points="352.89,97.42 354.02,99.23 356.4,97.99 355.56,96.02 "
       style="fill:#263238"
       id="polygon154" />
    <path
       d="m 313.73,229.47 a 3.72,3.72 0 1 0 2.43,4.66 3.72,3.72 0 0 0 -2.43,-4.66 z m 2,4.53 a 3.27,3.27 0 1 1 -2.13,-4.1 3.26,3.26 0 0 1 2.12,4.1 z m -2,-4.53 a 3.72,3.72 0 1 0 2.43,4.66 3.72,3.72 0 0 0 -2.43,-4.66 z m 2,4.53 a 3.27,3.27 0 1 1 -2.13,-4.1 3.26,3.26 0 0 1 2.12,4.1 z m -2,-4.53 a 3.72,3.72 0 1 0 2.43,4.66 3.72,3.72 0 0 0 -2.43,-4.66 z m 2,4.53 a 3.27,3.27 0 1 1 -2.13,-4.1 3.26,3.26 0 0 1 2.12,4.1 z m -0.75,-8.47 a 7.84,7.84 0 1 0 5.12,9.84 7.85,7.85 0 0 0 -5.1,-9.84 z m 1.74,8.78 a 4.3,4.3 0 1 1 -2.81,-5.39 4.3,4.3 0 0 1 2.8,5.39 z m -0.55,-0.18 a 3.72,3.72 0 1 0 -4.67,2.43 3.72,3.72 0 0 0 4.66,-2.43 z M 315.73,234 a 3.27,3.27 0 1 1 -2.13,-4.1 3.26,3.26 0 0 1 2.12,4.1 z m -2,-4.53 a 3.72,3.72 0 1 0 2.43,4.66 3.72,3.72 0 0 0 -2.43,-4.66 z m 2,4.53 a 3.27,3.27 0 1 1 -2.13,-4.1 3.26,3.26 0 0 1 2.12,4.1 z m -2,-4.53 a 3.72,3.72 0 1 0 2.43,4.66 3.72,3.72 0 0 0 -2.43,-4.66 z m 2,4.53 a 3.27,3.27 0 1 1 -2.13,-4.1 3.26,3.26 0 0 1 2.12,4.1 z"
       style="fill:#263238"
       id="path154" />
    <polygon
       points="308.91,239.73 308.43,241.82 310.99,242.62 311.79,240.64 "
       style="fill:#263238"
       id="polygon155" />
    <polygon
       points="305.23,235.27 303.41,236.4 304.65,238.78 306.62,237.94 "
       style="fill:#263238"
       id="polygon156" />
    <polygon
       points="305.77,229.51 303.69,229.03 302.88,231.58 304.87,232.38 "
       style="fill:#263238"
       id="polygon157" />
    <polygon
       points="310.24,225.82 309.1,224 306.72,225.24 307.56,227.21 "
       style="fill:#263238"
       id="polygon158" />
    <polygon
       points="316,226.37 316.48,224.28 313.92,223.48 313.12,225.46 "
       style="fill:#263238"
       id="polygon159" />
    <polygon
       points="319.68,230.83 321.5,229.7 320.26,227.32 318.29,228.16 "
       style="fill:#263238"
       id="polygon160" />
    <polygon
       points="319.13,236.59 321.22,237.08 322.03,234.52 320.04,233.72 "
       style="fill:#263238"
       id="polygon161" />
    <polygon
       points="314.67,240.28 315.81,242.1 318.19,240.86 317.35,238.89 "
       style="fill:#263238"
       id="polygon162" />
    <path
       d="M 95,117 A 11.79,11.79 0 1 0 80.75,125.67 11.8,11.8 0 0 0 95,117 Z m -6.11,-1.49 a 5.51,5.51 0 1 1 -4,-6.65 5.5,5.5 0 0 1 4.02,6.64 z"
       style="fill:#263238"
       id="path162" />
    <polygon
       points="78.68,124.65 78.17,127.83 82.08,128.78 83.09,125.72 "
       style="fill:#263238"
       id="polygon163" />
    <polygon
       points="72.7,118.32 70.09,120.2 72.19,123.65 75.06,122.19 "
       style="fill:#263238"
       id="polygon164" />
    <polygon
       points="72.95,109.62 69.78,109.1 68.82,113.02 71.88,114.02 "
       style="fill:#263238"
       id="polygon165" />
    <polygon
       points="79.28,103.64 77.4,101.03 73.96,103.13 75.41,106 "
       style="fill:#263238"
       id="polygon166" />
    <polygon
       points="87.99,103.89 88.5,100.71 84.58,99.76 83.58,102.82 "
       style="fill:#263238"
       id="polygon167" />
    <polygon
       points="93.96,110.22 96.58,108.34 94.48,104.89 91.61,106.35 "
       style="fill:#263238"
       id="polygon168" />
    <polygon
       points="93.71,118.92 96.89,119.44 97.85,115.52 94.79,114.52 "
       style="fill:#263238"
       id="polygon169" />
    <polygon
       points="87.38,124.9 89.27,127.51 92.71,125.42 91.26,122.54 "
       style="fill:#263238"
       id="polygon170" />
    <path
       d="m 79.89,116.37 3.54,1.93 3.44,-2.1 -0.09,-4 -3.54,-1.94 -3.44,2.09 z M 83.64,113 a 1.28,1.28 0 1 1 -1.55,0.94 1.29,1.29 0 0 1 1.55,-0.94 z"
       style="fill:#263238"
       id="path170" />
  </g>
  <g
     id="freepik--speech-bubble--inject-119"
     transform="translate(-57.703048,-0.49699217)">
    <path
       d="m 361.59,238.94 a 24.58,24.58 0 0 1 -4.2,-13.58 c 0,-17.19 18.88,-31.13 42.16,-31.13 23.28,0 42.14,13.94 42.14,31.13 0,17.19 -18.86,31.14 -42.14,31.14 -11.29,0 -21.52,-3.27 -29.08,-8.61 L 356,251.58 Z"
       style="fill:#ffffff"
       id="path171" />
    <path
       d="m 361.59,238.94 a 24,24 0 0 1 -0.94,-26 33,33 0 0 1 9.27,-10.06 43.87,43.87 0 0 1 12.23,-6.23 57.17,57.17 0 0 1 13.47,-2.65 58.39,58.39 0 0 1 13.72,0.7 c 1.13,0.23 2.27,0.38 3.38,0.68 l 3.33,0.9 3.25,1.14 c 1.08,0.39 2.11,0.92 3.17,1.37 a 41,41 0 0 1 11.32,7.83 28.92,28.92 0 0 1 7.29,11.68 23.71,23.71 0 0 1 0.14,13.76 28.74,28.74 0 0 1 -7.11,11.79 40.4,40.4 0 0 1 -11.22,8 49.49,49.49 0 0 1 -13.1,4.2 57.79,57.79 0 0 1 -13.71,0.78 53.82,53.82 0 0 1 -13.48,-2.56 45.26,45.26 0 0 1 -12.26,-6.12 h 0.18 l -14.52,3.54 -0.22,0.05 0.1,-0.2 z m 0,0 -5.54,12.68 -0.13,-0.15 14.49,-3.8 h 0.1 l 0.09,0.06 a 49.68,49.68 0 0 0 25.52,8.27 56.68,56.68 0 0 0 13.52,-0.89 48.74,48.74 0 0 0 12.86,-4.11 39.59,39.59 0 0 0 10.95,-7.82 27.66,27.66 0 0 0 6.84,-11.41 22.71,22.71 0 0 0 -0.16,-13.19 27.86,27.86 0 0 0 -7,-11.3 39.74,39.74 0 0 0 -11,-7.68 c -1,-0.44 -2,-1 -3.11,-1.35 l -3.19,-1.14 -3.27,-0.89 c -1.09,-0.29 -2.21,-0.45 -3.32,-0.68 a 58.83,58.83 0 0 0 -13.52,-0.74 55.85,55.85 0 0 0 -13.3,2.54 43.43,43.43 0 0 0 -12.11,6 33.34,33.34 0 0 0 -9.24,9.8 24.28,24.28 0 0 0 -3.51,12.95 24.68,24.68 0 0 0 4.03,12.85 z"
       style="fill:#263238"
       id="path172" />
    <path
       d="m 377.86,230.46 v 2.32 h -9.43 v -13.59 h 9.26 v 2.32 h -6.62 v 3.27 h 5.72 v 2.14 h -5.72 v 3.54 z"
       style="fill:#263238"
       id="path173" />
    <path
       d="m 379.93,232.78 v -13.59 h 6 a 3.88,3.88 0 0 1 1.73,0.39 4.56,4.56 0 0 1 1.37,1 4.91,4.91 0 0 1 0.9,1.45 4.56,4.56 0 0 1 -0.34,4 3.77,3.77 0 0 1 -1.79,1.56 l 3.1,5.11 h -3 l -2.78,-4.56 h -2.6 v 4.56 z m 2.64,-6.87 h 3.31 a 1.46,1.46 0 0 0 0.68,-0.17 1.89,1.89 0 0 0 0.55,-0.47 2.43,2.43 0 0 0 0.36,-0.7 2.71,2.71 0 0 0 0.13,-0.86 2.5,2.5 0 0 0 -0.15,-0.88 2.31,2.31 0 0 0 -0.41,-0.7 1.85,1.85 0 0 0 -0.59,-0.46 1.54,1.54 0 0 0 -0.68,-0.16 h -3.2 z"
       style="fill:#263238"
       id="path174" />
    <path
       d="m 392.65,232.78 v -13.59 h 6 a 3.9,3.9 0 0 1 1.74,0.39 4.65,4.65 0 0 1 1.36,1 4.53,4.53 0 0 1 0.9,1.45 4.33,4.33 0 0 1 0.33,1.64 4.51,4.51 0 0 1 -0.66,2.4 3.81,3.81 0 0 1 -1.79,1.56 l 3.1,5.11 h -3 l -2.77,-4.56 h -2.6 v 4.56 z m 2.65,-6.87 h 3.31 a 1.46,1.46 0 0 0 0.68,-0.17 1.73,1.73 0 0 0 0.54,-0.47 2.21,2.21 0 0 0 0.36,-0.7 2.72,2.72 0 0 0 0.14,-0.86 2.5,2.5 0 0 0 -0.15,-0.88 2.33,2.33 0 0 0 -0.42,-0.7 1.85,1.85 0 0 0 -0.59,-0.46 1.51,1.51 0 0 0 -0.68,-0.16 h -3.19 z"
       style="fill:#263238"
       id="path175" />
    <path
       d="m 411.18,232.87 a 6.15,6.15 0 0 1 -2.71,-0.58 6.55,6.55 0 0 1 -2.08,-1.55 6.85,6.85 0 0 1 -1.35,-2.21 7,7 0 0 1 -0.48,-2.55 6.81,6.81 0 0 1 0.51,-2.6 7.09,7.09 0 0 1 1.39,-2.2 6.74,6.74 0 0 1 2.12,-1.52 6.19,6.19 0 0 1 2.66,-0.56 6,6 0 0 1 2.69,0.6 6.63,6.63 0 0 1 2.07,1.58 7.16,7.16 0 0 1 1.34,2.22 6.93,6.93 0 0 1 0,5.12 7.12,7.12 0 0 1 -1.34,2.18 6.72,6.72 0 0 1 -2.11,1.51 6.22,6.22 0 0 1 -2.71,0.56 z M 407.24,226 a 5.76,5.76 0 0 0 0.26,1.71 4.5,4.5 0 0 0 0.78,1.45 4,4 0 0 0 1.24,1 3.68,3.68 0 0 0 1.68,0.38 3.54,3.54 0 0 0 1.69,-0.39 3.84,3.84 0 0 0 1.25,-1.05 4.72,4.72 0 0 0 0.76,-1.46 5.48,5.48 0 0 0 0.26,-1.66 5.18,5.18 0 0 0 -0.28,-1.7 4.5,4.5 0 0 0 -0.78,-1.45 3.74,3.74 0 0 0 -1.25,-1 3.88,3.88 0 0 0 -3.35,0 3.73,3.73 0 0 0 -1.25,1 4.54,4.54 0 0 0 -0.75,1.45 5.17,5.17 0 0 0 -0.26,1.72 z"
       style="fill:#263238"
       id="path176" />
    <path
       d="m 419.85,232.78 v -13.59 h 6 a 3.88,3.88 0 0 1 1.73,0.39 4.56,4.56 0 0 1 1.37,1 4.91,4.91 0 0 1 0.9,1.45 4.56,4.56 0 0 1 -0.34,4 3.77,3.77 0 0 1 -1.79,1.56 l 3.1,5.11 h -3 l -2.78,-4.56 h -2.6 v 4.56 z m 2.64,-6.87 h 3.31 a 1.46,1.46 0 0 0 0.68,-0.17 1.89,1.89 0 0 0 0.55,-0.47 2.43,2.43 0 0 0 0.36,-0.7 2.71,2.71 0 0 0 0.13,-0.86 2.5,2.5 0 0 0 -0.15,-0.88 2.31,2.31 0 0 0 -0.41,-0.7 1.85,1.85 0 0 0 -0.59,-0.46 1.54,1.54 0 0 0 -0.68,-0.16 h -3.2 z"
       style="fill:#263238"
       id="path177" />
  </g>
  <g
     id="freepik--robotic-arm--inject-80"
     transform="matrix(0.57681871,0,0,0.57681871,58.38888,102.96285)">
    <path
       d="m 189.82,185.55 c 2.77,-3.89 4.38,-6.36 4.38,-6.36 l -2.2,-5.69 -6.08,-0.56 c 0,0 -1.93,2.23 -4.9,6 -6.75,8.53 -18.84,24.91 -25.41,40.45 q -1.09,2.56 -2,5.09 c 1.45,-1 2.91,-2.12 4.35,-3.29 13.14,-10.64 25.53,-26.79 31.86,-35.64 z"
       id="path52" />
    <path
       d="m 194.11,181.68 11.52,24 c 0,0 -25,35.33 -50.95,43.26 18.46,-16.48 35.45,-45.35 35.45,-45.35 l -8.82,-17.27 z"
       style="fill:#263238"
       id="path53" />
    <path
       d="m 148.26,221 c -23.66,-6.23 -50.48,-0.44 -52.34,6.63 -5,19.11 9.83,40.56 38,48 28.17,7.44 51.63,-4 56.66,-23.06 1.83,-7.1 -18.66,-25.34 -42.32,-31.57 z"
       style="fill:#407bff"
       id="path54" />
    <path
       d="m 147.1,225.39 c -19.85,-5.22 -42.35,-0.37 -43.91,5.56 C 99,247 111.43,265 135,271.21 c 23.57,6.21 43.33,-3.32 47.55,-19.36 1.6,-5.93 -15.55,-21.23 -35.45,-26.46 z"
       style="opacity:0.1"
       id="path55" />
    <ellipse
       cx="121.06"
       cy="243.03"
       rx="14.49"
       ry="10.85"
       transform="rotate(-75.25,121.0651,243.03053)"
       style="fill:#263238"
       id="ellipse55" />
    <path
       d="m 102.54,245.51 c -1.29,0 -2.56,-0.93 -3.59,-2.64 a 17.37,17.37 0 0 1 -1.23,-13.42 c 0.74,-2 1.92,-3.17 3.3,-3.29 1.38,-0.12 2.74,0.81 3.84,2.63 a 15.93,15.93 0 0 1 2,6.59 v 0 a 15.81,15.81 0 0 1 -0.74,6.83 c -0.75,2 -1.92,3.17 -3.3,3.29 z m -1.28,-18.4 h -0.15 c -1,0.09 -1.89,1.06 -2.49,2.67 a 16.46,16.46 0 0 0 1.15,12.58 c 0.89,1.47 2,2.25 2.93,2.17 0.93,-0.08 1.89,-1.06 2.49,-2.67 a 14.93,14.93 0 0 0 0.67,-6.4 v 0 a 14.65,14.65 0 0 0 -1.83,-6.18 c -0.83,-1.39 -1.84,-2.17 -2.77,-2.17 z"
       style="fill:#ffffff"
       id="path56" />
    <path
       d="m 177.48,265.22 a 3,3 0 0 1 -1.71,-0.51 c -2.28,-1.58 -1.63,-6.32 1.48,-10.8 v 0 a 15.85,15.85 0 0 1 4.95,-4.76 c 1.85,-1.05 3.5,-1.19 4.64,-0.4 1.14,0.79 1.59,2.38 1.25,4.49 a 17.38,17.38 0 0 1 -7.67,11.07 6.19,6.19 0 0 1 -2.94,0.91 z m 7.65,-16 a 5.16,5.16 0 0 0 -2.46,0.78 15,15 0 0 0 -4.63,4.47 v 0 c -2.7,3.9 -3.49,8.23 -1.72,9.46 0.81,0.56 2.13,0.4 3.62,-0.45 a 16.5,16.5 0 0 0 7.2,-10.38 c 0.27,-1.7 0,-3 -0.85,-3.55 a 2,2 0 0 0 -1.16,-0.34 z m -7.49,5 z"
       style="fill:#ffffff"
       id="path57" />
    <path
       d="m 129.7,245.31 c -1.27,4.81 -5.21,7.94 -8.82,7 -3.61,-0.94 -5.5,-5.63 -4.23,-10.44 1.27,-4.81 5.22,-8 8.82,-7 3.6,1 5.53,5.62 4.23,10.44 z"
       style="fill:#ffffff"
       id="path58" />
    <path
       d="m 171.58,256.33 c -2,7.74 -8.39,12.77 -14.18,11.25 -5.79,-1.52 -8.84,-9 -6.8,-16.77 2.04,-7.77 8.4,-12.81 14.18,-11.25 5.78,1.56 8.83,9.03 6.8,16.77 z"
       style="fill:#263238"
       id="path59" />
    <ellipse
       cx="158.97"
       cy="253.00999"
       rx="9.0100002"
       ry="6.75"
       transform="rotate(-75.25,158.98327,253.01364)"
       style="fill:#ffffff"
       id="ellipse59" />
    <path
       d="m 183,172.88 -26.32,-4.23 c 0,0 -26.81,33.95 -27.06,61.13 C 140.16,207.39 163,182.92 163,182.92 l 19.07,3.57 z"
       style="fill:#263238"
       id="path60" />
    <path
       d="m 180.12,188.49 v 0 a 12.56,12.56 0 0 1 1.21,-17.66 l 17.57,-15.32 a 6.23,6.23 0 0 1 8.77,0.6 l 8.29,9.5 a 6.25,6.25 0 0 1 -0.6,8.77 l -17.57,15.32 a 12.57,12.57 0 0 1 -17.67,-1.21 z"
       style="fill:#407bff"
       id="path61" />
    <path
       d="m 201.45,150.3 h 12.68 a 4.84,4.84 0 0 1 4.84,4.84 v 13.2 a 9.75,9.75 0 0 1 -9.75,9.75 h -2.86 a 9.75,9.75 0 0 1 -9.75,-9.75 v -13.2 a 4.84,4.84 0 0 1 4.84,-4.84 z"
       transform="rotate(48.91,207.80655,164.22528)"
       style="opacity:0.1"
       id="path62" />
    <path
       d="m 199.19,166.53 v 0 a 21.33,21.33 0 0 1 10.13,-28.33 l 35.81,-16.94 a 10.59,10.59 0 0 1 14.06,5 l 9.17,19.37 a 10.59,10.59 0 0 1 -5,14.06 l -35.8,16.95 a 21.34,21.34 0 0 1 -28.37,-10.11 z"
       style="fill:#263238"
       id="path63" />
    <path
       d="M 222.42,175.48 A 21.85,21.85 0 0 1 202.65,163 a 0.55461698,0.55461698 0 0 1 1,-0.48 20.75,20.75 0 0 0 27.59,9.87 l 35.81,-16.94 a 0.55461698,0.55461698 0 1 1 0.48,1 l -35.81,16.94 a 21.76,21.76 0 0 1 -9.3,2.09 z"
       style="opacity:0.1;fill:#ffffff"
       id="path64" />
    <circle
       cx="264.47"
       cy="132.33"
       r="30.870001"
       transform="rotate(-76.34,264.48955,132.32053)"
       style="fill:#407bff"
       id="circle64" />
    <ellipse
       cx="274.73999"
       cy="133.62"
       rx="24.76"
       ry="19.08"
       transform="rotate(-87.03,274.75403,133.60764)"
       style="opacity:0.1"
       id="ellipse64" />
    <path
       d="m 255.25,158.4 a 14.5,14.5 0 0 1 -5.69,-1.23 23,23 0 0 1 -10.45,-9.4 c -5.48,-9 -4.62,-19.55 1.92,-23.53 6.54,-3.98 16.31,0.09 21.79,9.09 5.48,9 4.62,19.55 -1.92,23.54 a 10.76,10.76 0 0 1 -5.65,1.53 z m -8.58,-35 a 10.07,10.07 0 0 0 -5.28,1.43 c -6.21,3.78 -7,13.91 -1.69,22.58 a 22.37,22.37 0 0 0 10.13,9.12 c 3.92,1.65 7.72,1.56 10.71,-0.26 6.21,-3.78 7,-13.91 1.69,-22.58 v 0 c -3.93,-6.44 -10.1,-10.29 -15.56,-10.29 z"
       style="fill:#ffffff"
       id="path65" />
    <path
       d="m 242.43,126.89 a 0.37,0.37 0 0 1 -0.24,-0.1 0.34,0.34 0 0 1 0,-0.48 0.35,0.35 0 0 1 0.38,-0.08 0.28,0.28 0 0 1 0.11,0.08 0.34,0.34 0 0 1 0,0.48 0.26,0.26 0 0 1 -0.11,0.07 0.35,0.35 0 0 1 -0.14,0.03 z"
       style="fill:#ffffff"
       id="path66" />
    <path
       d="m 258.86,133.22 a 0.34,0.34 0 0 1 0.08,-0.48 v 0 a 0.35,0.35 0 0 1 0.48,0.07 v 0 a 0.34,0.34 0 0 1 -0.08,0.48 v 0 a 0.31,0.31 0 0 1 -0.2,0.07 v 0 a 0.35,0.35 0 0 1 -0.28,-0.14 z m -1.34,-1.66 a 0.34,0.34 0 0 1 0,-0.48 v 0 a 0.35,0.35 0 0 1 0.49,0 v 0 a 0.36,0.36 0 0 1 0,0.49 v 0 a 0.34,0.34 0 0 1 -0.23,0.08 v 0 a 0.31,0.31 0 0 1 -0.26,-0.09 z M 256,130 a 0.35,0.35 0 0 1 0,-0.49 v 0 a 0.34,0.34 0 0 1 0.48,0 v 0 a 0.35,0.35 0 0 1 0,0.49 v 0 a 0.36,0.36 0 0 1 -0.25,0.11 v 0 A 0.33,0.33 0 0 1 256,130 Z m -1.65,-1.37 a 0.34,0.34 0 0 1 -0.07,-0.47 v 0 a 0.34,0.34 0 0 1 0.48,-0.08 v 0 a 0.35,0.35 0 0 1 0.07,0.48 v 0 a 0.35,0.35 0 0 1 -0.27,0.14 v 0 a 0.33,0.33 0 0 1 -0.19,-0.03 z m -1.78,-1.16 A 0.35,0.35 0 0 1 252.44,127 v 0 a 0.35,0.35 0 0 1 0.47,-0.13 v 0 a 0.36,0.36 0 0 1 0.13,0.47 v 0 a 0.35,0.35 0 0 1 -0.3,0.18 v 0 a 0.34,0.34 0 0 1 -0.15,-0.01 z m -1.91,-0.92 a 0.33,0.33 0 0 1 -0.19,-0.45 v 0 a 0.34,0.34 0 0 1 0.44,-0.19 v 0 a 0.34,0.34 0 0 1 0.19,0.45 v 0 a 0.35,0.35 0 0 1 -0.32,0.22 v 0 a 0.27,0.27 0 0 1 -0.1,0.01 z m -6.59,-0.8 a 0.33,0.33 0 0 1 0.25,-0.42 v 0 a 0.34,0.34 0 0 1 0.42,0.24 v 0 a 0.34,0.34 0 0 1 -0.25,0.42 h -0.09 a 0.34,0.34 0 0 1 -0.31,-0.2 z m 4.57,0.19 a 0.34,0.34 0 0 1 -0.27,-0.41 v 0 a 0.35,0.35 0 0 1 0.41,-0.26 v 0 a 0.34,0.34 0 0 1 0.26,0.4 v 0 a 0.34,0.34 0 0 1 -0.34,0.28 h -0.06 z m -2.43,-0.56 a 0.34,0.34 0 0 1 0.34,-0.34 v 0 a 0.35,0.35 0 0 1 0.35,0.34 v 0 a 0.35,0.35 0 0 1 -0.35,0.34 v 0 a 0.34,0.34 0 0 1 -0.32,-0.3 z"
       style="fill:#ffffff"
       id="path67" />
    <path
       d="m 260.36,135.17 a 0.35,0.35 0 0 1 -0.25,-0.1 0.41,0.41 0 0 1 -0.11,-0.07 0.28,0.28 0 0 1 0,-0.13 0.31,0.31 0 0 1 0,-0.13 0.41,0.41 0 0 1 0.07,-0.11 l 0.11,-0.08 a 0.36,0.36 0 0 1 0.38,0.08 0.26,0.26 0 0 1 0.07,0.11 0.31,0.31 0 0 1 0,0.13 0.28,0.28 0 0 1 0,0.13 0.26,0.26 0 0 1 -0.07,0.11 0.31,0.31 0 0 1 -0.2,0.06 z"
       style="fill:#ffffff"
       id="path68" />
    <path
       d="m 275.77,148.83 c 1.34,-7.76 -0.9,-19.62 -4.64,-25.94 a 4.08,4.08 0 0 1 1.82,-5.77 c 10.61,-5 27.92,-5.92 44.55,-3.32 19.2,3 52.58,17.53 62.36,31.55 -12.44,13.31 -39.11,28 -39.67,45.56 -13.49,-21.62 -35.09,-34.92 -60.71,-37.3 a 4.11,4.11 0 0 1 -3.71,-4.78 z"
       style="fill:#263238"
       id="path69" />
    <path
       d="m 377.7,156.32 a 1.11,1.11 0 0 1 -0.95,-0.53 c -8.8,-14.58 -41.62,-31.06 -59.44,-35.07 -16.92,-3.79 -33.79,-3.67 -44,0.34 a 1.111418,1.111418 0 0 1 -0.81,-2.07 c 10.64,-4.15 28,-4.32 45.32,-0.43 18,4 51.44,20.49 60.85,36.08 a 1.11,1.11 0 0 1 -0.37,1.52 1.1,1.1 0 0 1 -0.6,0.16 z"
       id="path70" />
    <path
       d="m 366.32,220.69 a 0.55,0.55 0 0 1 -0.54,-0.45 c -3.17,-16.07 -26.75,-42.47 -44.15,-53.6 -14.69,-9.4 -30.71,-15.12 -41.81,-14.81 a 0.54,0.54 0 0 1 -0.56,-0.54 0.55,0.55 0 0 1 0.54,-0.56 c 11.32,-0.26 27.56,5.46 42.43,15 15.45,9.89 41.14,36.6 44.63,54.33 a 0.55,0.55 0 0 1 -0.43,0.65 z"
       style="opacity:0.1;fill:#ffffff"
       id="path71" />
    <path
       d="m 340,416.24 h 66.63 A 6.72,6.72 0 0 0 410,403.69 c -18.29,-10.42 -43.51,-23.55 -54.48,-23.55 -21.37,0 -15.52,36.1 -15.52,36.1 z"
       style="fill:#263238"
       id="path72" />
    <path
       d="m 333.18,412.41 c 31.3,-5.17 36.9,-25.4 36.9,-25.4 l -35.79,1.48 z"
       id="path73" />
    <circle
       cx="342.14999"
       cy="340.13"
       r="56.740002"
       style="fill:#407bff"
       id="circle73" />
    <ellipse
       cx="353.84"
       cy="352.20001"
       rx="43.68"
       ry="37"
       transform="rotate(-49.95,353.88107,352.21441)"
       style="opacity:0.1"
       id="ellipse73" />
    <path
       d="m 306.91,375.16 c -10.62,0 -19.26,-15.71 -19.26,-35 0,-19.29 8.64,-35 19.26,-35 10.62,0 19.26,15.72 19.26,35 0,19.28 -8.64,35 -19.26,35 z m 0,-69 c -10,0 -18.15,15.22 -18.15,33.92 0,18.7 8.14,33.92 18.15,33.92 10.01,0 18.16,-15.21 18.16,-33.92 0,-18.71 -8.15,-33.87 -18.16,-33.87 z"
       style="fill:#ffffff"
       id="path74" />
    <path
       d="m 306.91,310.54 a 0.46,0.46 0 0 1 -0.21,0 0.55,0.55 0 0 1 -0.3,-0.3 0.57,0.57 0 0 1 0,-0.42 0.66,0.66 0 0 1 0.12,-0.17 0.36,0.36 0 0 1 0.18,-0.12 0.51,0.51 0 0 1 0.42,0 0.61,0.61 0 0 1 0.29,0.29 0.47,0.47 0 0 1 0,0.42 0.36,0.36 0 0 1 -0.12,0.18 0.66,0.66 0 0 1 -0.17,0.12 0.52,0.52 0 0 1 -0.21,0 z"
       style="fill:#ffffff"
       id="path75" />
    <path
       d="m 321.47,336.82 v 0 a 0.54,0.54 0 0 1 0.52,-0.57 v 0 a 0.55,0.55 0 0 1 0.58,0.51 v 0 a 0.55,0.55 0 0 1 -0.51,0.58 v 0 a 0.56,0.56 0 0 1 -0.59,-0.52 z m -0.27,-3.28 a 0.55,0.55 0 0 1 0.48,-0.61 v 0 a 0.55,0.55 0 0 1 0.6,0.49 v 0 a 0.54,0.54 0 0 1 -0.48,0.6 h -0.06 a 0.54,0.54 0 0 1 -0.54,-0.48 z m -0.48,-3.26 a 0.55,0.55 0 0 1 0.45,-0.63 v 0 a 0.54,0.54 0 0 1 0.63,0.44 v 0 a 0.55,0.55 0 0 1 -0.44,0.64 h -0.09 a 0.57,0.57 0 0 1 -0.55,-0.45 z m -0.67,-3.22 a 0.55,0.55 0 0 1 0.4,-0.66 v 0 a 0.55,0.55 0 0 1 0.66,0.4 v 0 a 0.57,0.57 0 0 1 -0.4,0.67 h -0.13 a 0.54,0.54 0 0 1 -0.53,-0.41 z m -0.91,-3.15 a 0.55,0.55 0 0 1 0.36,-0.69 v 0 a 0.55,0.55 0 0 1 0.69,0.35 v 0 a 0.55,0.55 0 0 1 -0.35,0.69 v 0 a 0.52,0.52 0 0 1 -0.17,0 v 0 a 0.55,0.55 0 0 1 -0.53,-0.35 z M 318,320.84 a 0.55,0.55 0 0 1 0.29,-0.72 v 0 a 0.55,0.55 0 0 1 0.72,0.29 v 0 a 0.55,0.55 0 0 1 -0.29,0.72 v 0 a 0.54,0.54 0 0 1 -0.22,0 v 0 a 0.54,0.54 0 0 1 -0.5,-0.29 z m -1.44,-2.93 v 0 a 0.57,0.57 0 0 1 0.21,-0.75 v 0 a 0.55,0.55 0 0 1 0.74,0.21 v 0 a 0.55,0.55 0 0 1 -0.2,0.75 v 0 a 0.54,0.54 0 0 1 -0.27,0.07 v 0 a 0.55,0.55 0 0 1 -0.49,-0.28 z m -1.78,-2.71 v 0 a 0.55,0.55 0 0 1 0.1,-0.77 v 0 a 0.54,0.54 0 0 1 0.76,0.1 v 0 a 0.55,0.55 0 0 1 -0.1,0.77 v 0 a 0.51,0.51 0 0 1 -0.33,0.11 v 0 a 0.54,0.54 0 0 1 -0.44,-0.21 z m -2.2,-2.33 a 0.55,0.55 0 0 1 -0.06,-0.78 v 0 a 0.56,0.56 0 0 1 0.78,-0.06 v 0 a 0.56,0.56 0 0 1 0,0.78 v 0 a 0.55,0.55 0 0 1 -0.41,0.19 v 0 a 0.61,0.61 0 0 1 -0.32,-0.13 z m -2.65,-1.69 a 0.55,0.55 0 0 1 -0.29,-0.72 v 0 a 0.55,0.55 0 0 1 0.72,-0.29 v 0 a 0.55,0.55 0 0 1 0.29,0.72 v 0 a 0.54,0.54 0 0 1 -0.51,0.33 v 0 a 0.52,0.52 0 0 1 -0.22,-0.04 z"
       style="fill:#ffffff"
       id="path76" />
    <path
       d="m 322.11,340.68 a 0.78,0.78 0 0 1 -0.21,0 0.57,0.57 0 0 1 -0.18,-0.12 0.42,0.42 0 0 1 -0.11,-0.18 0.46,0.46 0 0 1 -0.05,-0.21 0.54,0.54 0 0 1 0.05,-0.21 0.45,0.45 0 0 1 0.11,-0.17 0.71,0.71 0 0 1 0.18,-0.12 0.51,0.51 0 0 1 0.42,0 0.57,0.57 0 0 1 0.18,0.12 0.66,0.66 0 0 1 0.12,0.17 0.57,0.57 0 0 1 0,0.42 0.57,0.57 0 0 1 -0.12,0.18 0.55,0.55 0 0 1 -0.39,0.12 z"
       style="fill:#ffffff"
       id="path77" />
    <path
       d="m 344.31,416.24 h -66.63 a 6.72,6.72 0 0 1 -3.34,-12.55 c 18.3,-10.42 43.52,-23.55 54.49,-23.55 21.35,0 15.48,36.1 15.48,36.1 z"
       style="fill:#263238"
       id="path78" />
    <path
       d="m 411.82,160.92 a 44.94,44.94 0 0 0 -4.4,-8.31 l 0.92,-0.62 a 46.52,46.52 0 0 1 4.51,8.51 z"
       style="fill:#407bff"
       id="path79" />
    <path
       d="m 404,148.16 a 44.87,44.87 0 0 0 -20.88,-13.53 l 0.32,-1.06 a 46,46 0 0 1 21.4,13.86 z"
       style="fill:#407bff"
       id="path80" />
    <circle
       cx="370.07999"
       cy="177.7"
       r="42.25"
       transform="rotate(-67.51,370.06216,177.71073)"
       style="fill:#407bff"
       id="circle80" />
    <ellipse
       cx="378.12"
       cy="189.36"
       rx="33.880001"
       ry="26.110001"
       transform="rotate(-38.83,378.08828,189.34862)"
       style="opacity:0.1"
       id="ellipse80" />
    <path
       d="m 345.92,197.06 a 14.44,14.44 0 0 1 -4.13,-0.61 c -4.89,-1.49 -8.68,-5.5 -10.67,-11.3 a 31.63,31.63 0 0 1 0.07,-19.23 c 4.18,-13.8 15.73,-22.55 25.76,-19.51 10.03,3.04 14.78,16.73 10.6,30.53 v 0 a 31.65,31.65 0 0 1 -10.62,16 18.26,18.26 0 0 1 -11.01,4.12 z m 6.92,-50.31 c -8.48,0 -17.24,7.9 -20.74,19.44 a 30.68,30.68 0 0 0 -0.08,18.65 c 1.89,5.51 5.46,9.31 10,10.7 4.54,1.39 9.66,0.21 14.29,-3.32 a 30.74,30.74 0 0 0 10.29,-15.56 c 4,-13.29 -0.44,-26.45 -10,-29.34 a 13.28,13.28 0 0 0 -3.76,-0.57 z"
       style="fill:#ffffff"
       id="path81" />
    <path
       d="m 355.88,150.42 a 0.48,0.48 0 0 1 -0.34,-0.14 0.47,0.47 0 0 1 -0.13,-0.33 0.57,0.57 0 0 1 0,-0.18 0.78,0.78 0 0 1 0.1,-0.15 0.44,0.44 0 0 1 0.16,-0.1 0.48,0.48 0 0 1 0.51,0.1 0.49,0.49 0 0 1 0.1,0.15 0.57,0.57 0 0 1 0,0.18 0.43,0.43 0 0 1 -0.13,0.33 0.72,0.72 0 0 1 -0.15,0.11 0.57,0.57 0 0 1 -0.12,0.03 z"
       style="fill:#ffffff"
       id="path82" />
    <path
       d="m 364.41,173.36 a 0.46,0.46 0 0 1 -0.36,-0.56 v 0 a 0.47,0.47 0 0 1 0.55,-0.36 v 0 a 0.47,0.47 0 0 1 0.37,0.56 v 0 a 0.48,0.48 0 0 1 -0.47,0.37 h -0.09 z m 0.52,-2.93 a 0.47,0.47 0 0 1 -0.42,-0.52 v 0 a 0.48,0.48 0 0 1 0.52,-0.41 v 0 a 0.47,0.47 0 0 1 0.42,0.52 v 0 a 0.48,0.48 0 0 1 -0.47,0.42 h -0.05 z m 0.24,-3 a 0.47,0.47 0 0 1 -0.47,-0.47 v 0 a 0.47,0.47 0 0 1 0.48,-0.46 v 0 a 0.46,0.46 0 0 1 0.46,0.48 v 0 a 0.47,0.47 0 0 1 -0.47,0.46 z m -0.58,-3.39 v 0 a 0.48,0.48 0 0 1 0.42,-0.51 v 0 a 0.47,0.47 0 0 1 0.51,0.43 v 0 a 0.46,0.46 0 0 1 -0.42,0.51 v 0 a 0.47,0.47 0 0 1 -0.51,-0.39 z m -0.44,-2.88 a 0.46,0.46 0 0 1 0.36,-0.56 v 0 a 0.46,0.46 0 0 1 0.56,0.36 v 0 a 0.47,0.47 0 0 1 -0.36,0.56 h -0.1 a 0.47,0.47 0 0 1 -0.46,-0.32 z m -0.8,-2.79 a 0.47,0.47 0 0 1 0.27,-0.61 v 0 a 0.48,0.48 0 0 1 0.61,0.28 v 0 a 0.47,0.47 0 0 1 -0.28,0.6 v 0 a 0.45,0.45 0 0 1 -0.16,0 v 0 a 0.45,0.45 0 0 1 -0.44,-0.23 z m -1.22,-2.62 v 0 a 0.47,0.47 0 0 1 0.17,-0.65 v 0 a 0.46,0.46 0 0 1 0.64,0.18 v 0 a 0.47,0.47 0 0 1 -0.17,0.64 v 0 a 0.46,0.46 0 0 1 -0.23,0.06 v 0 a 0.45,0.45 0 0 1 -0.41,-0.19 z m -1.68,-2.33 a 0.46,0.46 0 0 1 0,-0.66 v 0 a 0.47,0.47 0 0 1 0.67,0 v 0 a 0.48,0.48 0 0 1 0,0.67 v 0 a 0.47,0.47 0 0 1 -0.31,0.12 v 0 a 0.48,0.48 0 0 1 -0.36,-0.09 z m -2.15,-1.86 v 0 a 0.47,0.47 0 0 1 -0.14,-0.65 v 0 a 0.46,0.46 0 0 1 0.65,-0.13 v 0 a 0.48,0.48 0 0 1 0.13,0.65 v 0 a 0.49,0.49 0 0 1 -0.4,0.21 v 0 a 0.49,0.49 0 0 1 -0.24,-0.04 z"
       style="fill:#ffffff"
       id="path83" />
    <path
       d="m 363.77,176.26 a 0.44,0.44 0 0 1 -0.33,-0.13 0.57,0.57 0 0 1 -0.11,-0.16 0.48,0.48 0 0 1 0,-0.18 0.57,0.57 0 0 1 0,-0.18 0.53,0.53 0 0 1 0.11,-0.15 0.4,0.4 0 0 1 0.15,-0.1 0.48,0.48 0 0 1 0.51,0.1 0.47,0.47 0 0 1 0.14,0.33 0.48,0.48 0 0 1 -0.14,0.34 0.4,0.4 0 0 1 -0.15,0.1 0.57,0.57 0 0 1 -0.18,0.03 z"
       style="fill:#ffffff"
       id="path84" />
    <path
       d="m 343.7,319.49 c -1.55,-17.71 -18.08,-29.33 -25.39,-30.86 1.41,-24.3 9.05,-73.64 18.6,-84.76 5.47,5.74 27.82,-3.18 33.17,-13 5.35,-9.82 30.62,-5.35 27.85,9.6 -2.77,14.95 -22.22,41.53 -25.36,93.2 9.41,7.65 13.07,15.18 12.05,26.62 -0.95,8.37 -25.24,14.51 -40.92,-0.8 z"
       style="fill:#263238"
       id="path85" />
    <path
       d="m 339.73,300.58 a 0.55,0.55 0 0 1 -0.29,-1 c 10.77,-6.59 27,-6.81 30.75,-6.5 a 0.55183784,0.55183784 0 1 1 -0.09,1.1 c -3.68,-0.3 -19.57,-0.09 -30.08,6.34 a 0.51,0.51 0 0 1 -0.29,0.06 z"
       style="opacity:0.1;fill:#ffffff"
       id="path86" />
    <path
       d="m 375,329 h -0.22 a 1.12,1.12 0 0 1 -0.87,-1.31 c 2.45,-11.94 -2.4,-25.24 -12.07,-33.12 a 1.08,1.08 0 0 1 -0.41,-0.92 c 1.8,-29.62 9.66,-50 16.6,-67.94 5.22,-13.53 9.73,-25.21 10.76,-38.34 a 1.1032792,1.1032792 0 1 1 2.2,0.17 c -1.05,13.45 -5.61,25.28 -10.9,39 -6.83,17.7 -14.57,37.75 -16.42,66.72 10,8.42 15,22.38 12.41,34.91 A 1.11,1.11 0 0 1 375,329 Z"
       id="path87" />
    <path
       d="m 188.15,191 c -2.26,0 -5.09,-1.72 -7.17,-4.59 -2.8,-3.85 -3.21,-8.34 -0.92,-10 1.14,-0.83 2.74,-0.85 4.5,-0.08 a 12.26,12.26 0 0 1 4.74,4 c 2.79,3.85 3.2,8.33 0.91,10 a 3.4,3.4 0 0 1 -2.06,0.67 z m -6,-14.67 a 2.89,2.89 0 0 0 -1.76,0.53 c -2,1.48 -1.58,5.62 1,9.22 2.58,3.6 6.41,5.32 8.45,3.84 2.04,-1.48 1.58,-5.62 -1,-9.23 a 11.56,11.56 0 0 0 -4.51,-3.84 5.39,5.39 0 0 0 -2.18,-0.54 z"
       style="fill:#ffffff"
       id="path88" />
  </g>
  <g
     id="freepik--robot-body--inject-80"
     transform="matrix(0.61206179,0,0,0.61206179,49.819743,87.832978)">
    <path
       d="m 166,300.59 c 5.22,-1.58 12.1,2.69 13.94,8.76 5,16.43 6.49,36.3 0.29,38.18 -6.2,1.88 -16.13,-15.65 -21.11,-32.08 -1.84,-6.08 1.67,-13.28 6.88,-14.86 z"
       style="fill:#263238"
       id="path40" />
    <path
       d="m 137.93,286.15 c -21.36,0 -42.73,13.39 -42.73,27.86 0,39.12 17.32,83.91 42.73,83.91 25.41,0 42.74,-44.79 42.74,-83.91 0,-14.47 -21.37,-27.86 -42.74,-27.86 z"
       style="fill:#407bff"
       id="path41" />
    <path
       d="m 137.93,286.15 a 55.71,55.71 0 0 0 -16.41,2.54 76.09,76.09 0 0 0 21.51,3 82,82 0 0 0 15.52,-1.48 55.9,55.9 0 0 0 -20.62,-4.06 z"
       style="opacity:0.1"
       id="path42" />
    <path
       d="m 104.59,304 -9.39,10 a 147.57,147.57 0 0 0 3.89,33.25 c 5.71,-5.91 11.65,-17.35 12.68,-28.53 1.09,-11.92 -1.93,-13.23 -7.18,-14.72 z"
       style="fill:#263238"
       id="path43" />
    <path
       d="m 113,300.3 c -4.77,-2.63 -12.38,-0.11 -15.44,5.45 -8.28,15 -13.89,34.39 -8.21,37.52 5.68,3.13 19,-12 27.3,-27 3.03,-5.57 1.09,-13.34 -3.65,-15.97 z"
       style="fill:#407bff"
       id="path44" />
    <path
       d="m 144.42,384.39 c -19.17,0 -32.53,-33.36 -32.53,-63.31 0,-11 15.81,-21.4 32.53,-21.4 16.72,0 32.52,10.4 32.52,21.4 0,29.92 -13.36,63.31 -32.52,63.31 z m 0,-83.55 c -15.83,0 -31.37,10 -31.37,20.24 0,29.4 12.88,62.15 31.37,62.15 18.49,0 31.36,-32.75 31.36,-62.15 0,-10.21 -15.54,-20.24 -31.36,-20.24 z"
       style="fill:#ffffff"
       id="path45" />
    <path
       d="m 145,383.94 -1.13,-0.26 c 7.67,-32.75 5.62,-77.54 0.16,-83 l 0.82,-0.82 c 6.32,6.34 7.51,52.55 0.15,84.08 z"
       style="fill:#ffffff"
       id="path46" />
    <path
       d="m 128.14,365.71 c 0.43,0.65 0.49,1.38 0.13,1.61 -0.36,0.23 -1,-0.1 -1.43,-0.76 -0.43,-0.66 -0.49,-1.37 -0.13,-1.61 0.36,-0.24 1,0.11 1.43,0.76 z"
       style="fill:#ffffff"
       id="path47" />
    <path
       d="m 130.41,369.17 c 0.43,0.65 0.48,1.37 0.12,1.61 -0.36,0.24 -1,-0.11 -1.42,-0.76 -0.42,-0.65 -0.49,-1.38 -0.13,-1.61 0.36,-0.23 1.02,0.1 1.43,0.76 z"
       style="fill:#ffffff"
       id="path48" />
    <path
       d="m 131.69,365.85 c 0.43,0.66 0.49,1.38 0.13,1.61 -0.36,0.23 -1,-0.1 -1.43,-0.76 -0.43,-0.66 -0.49,-1.37 -0.13,-1.61 0.36,-0.24 1,0.11 1.43,0.76 z"
       style="fill:#ffffff"
       id="path49" />
    <path
       d="m 134,369.31 c 0.43,0.65 0.48,1.37 0.12,1.61 -0.36,0.24 -1,-0.11 -1.42,-0.76 -0.42,-0.65 -0.49,-1.38 -0.13,-1.61 0.36,-0.23 0.96,0.1 1.43,0.76 z"
       style="fill:#ffffff"
       id="path50" />
    <path
       d="m 132.67,372.62 c 0.43,0.65 0.49,1.38 0.13,1.61 -0.36,0.23 -1,-0.1 -1.43,-0.76 -0.43,-0.66 -0.48,-1.37 -0.13,-1.61 0.35,-0.24 1,0.14 1.43,0.76 z"
       style="fill:#ffffff"
       id="path51" />
  </g>
</svg>
