<?xml version="1.0" encoding="UTF-8" standalone="no"?>
<svg
   version="1.1"
   id="svg1029"
   width="566"
   height="566"
   viewBox="0 0 566 566"
   sodipodi:docname="logo3.svg"
   inkscape:version="1.3.1 (9b9bdc1480, 2023-11-25, custom)"
   inkscape:export-filename="../4efccd65/silueta.png"
   inkscape:export-xdpi="192.472"
   inkscape:export-ydpi="192.472"
   xmlns:inkscape="http://www.inkscape.org/namespaces/inkscape"
   xmlns:sodipodi="http://sodipodi.sourceforge.net/DTD/sodipodi-0.dtd"
   xmlns="http://www.w3.org/2000/svg"
   xmlns:svg="http://www.w3.org/2000/svg"
   xmlns:rdf="http://www.w3.org/1999/02/22-rdf-syntax-ns#"
   xmlns:cc="http://creativecommons.org/ns#"
   xmlns:dc="http://purl.org/dc/elements/1.1/">
  <metadata
     id="metadata1035">
    <rdf:RDF>
      <cc:Work
         rdf:about="">
        <dc:format>image/svg+xml</dc:format>
        <dc:type
           rdf:resource="http://purl.org/dc/dcmitype/StillImage" />
      </cc:Work>
    </rdf:RDF>
  </metadata>
  <defs
     id="defs1033" />
  <sodipodi:namedview
     pagecolor="#ffffff"
     bordercolor="#666666"
     borderopacity="1"
     objecttolerance="10"
     gridtolerance="10"
     guidetolerance="10"
     inkscape:pageopacity="0"
     inkscape:pageshadow="2"
     inkscape:window-width="1680"
     inkscape:window-height="986"
     id="namedview1031"
     showgrid="false"
     units="px"
     width="136.58182mm"
     inkscape:zoom="0.59959614"
     inkscape:cx="155.1044"
     inkscape:cy="485.32667"
     inkscape:window-x="0"
     inkscape:window-y="27"
     inkscape:window-maximized="1"
     inkscape:current-layer="g1089"
     showguides="true"
     inkscape:guide-bbox="true"
     inkscape:document-rotation="0"
     inkscape:showpageshadow="2"
     inkscape:pagecheckerboard="0"
     inkscape:deskcolor="#d1d1d1">
    <sodipodi:guide
       position="283,580.4088"
       orientation="-1,0"
       id="guide1085"
       inkscape:label=""
       inkscape:locked="false"
       inkscape:color="rgb(0,0,255)" />
    <sodipodi:guide
       position="-70.542241,283"
       orientation="0,1"
       id="guide3134"
       inkscape:label=""
       inkscape:locked="false"
       inkscape:color="rgb(0,0,255)" />
  </sodipodi:namedview>
  <g
     inkscape:groupmode="layer"
     id="g1089"
     inkscape:label="vector copia"
     style="display:inline;fill:#f1f1f1;fill-opacity:0.62810016"
     sodipodi:insensitive="true">
    <path
       id="path1091"
       style="fill:#f1f1f1;fill-opacity:0.62810016;stroke:#000011;stroke-width:1;stroke-miterlimit:4;stroke-dasharray:none;stroke-opacity:1"
       d="m 266.00977,99.904297 c -9.05365,0.04361 -18.17925,0.317223 -27.25,1.050783 -82.29197,6.65504 -156.979662,37.48161 -205.150395,84.67187 -5.423184,5.3128 -9.706313,10.04669 -9.517578,10.52149 0.188619,0.4748 10.793842,9.26139 23.568359,19.52539 l 23.226563,18.66211 12.972656,-12.46875 C 122.07173,185.13924 175.60048,163.32931 245.59375,155.96875 l 7.9707,-0.83789 -0.35547,16.28906 -0.35742,16.29102 -15.22851,2.09375 c -38.66671,5.31619 -70.09722,16.77571 -99.23438,36.17969 -13.20899,8.79657 -35.91211,29.16087 -35.91211,32.21289 0,0.6994 8.8279,8.35152 19.61719,17.00585 l 19.61719,15.73633 11.15625,-10.99609 c 21.84759,-21.53212 51.4164,-35.30999 88.34765,-41.16602 8.4043,-1.33262 11.3455,-1.40778 11.76954,-0.30273 0.31098,0.8103 0.40881,11.16061 0.21679,23 L 252.85156,283 l -8.24804,0.90234 c -24.22579,2.65032 -48.58376,10.78133 -70.14844,23.41797 -8.64795,5.06759 -9.6702,6.04215 -8.24805,7.85157 0.89289,1.13602 9.81521,11.04219 19.82813,22.01367 l 18.20507,19.94726 6.53907,-4.93359 c 3.59695,-2.71397 9.96663,-6.62686 14.15429,-8.69531 7.54203,-3.7253 23.37272,-9.10938 26.78321,-9.10938 1.48537,0 1.76953,8.47972 1.76953,52.76367 v 52.76368 l -4.125,-0.82618 c -13.85541,-2.77048 -29.94694,-10.26812 -40.51758,-18.8789 l -7.07813,-5.76563 -3.64843,4.06836 c -2.00586,2.23786 -11.32063,12.55015 -20.69922,22.91602 l -17.05078,18.84765 3.0957,2.41407 c 4.11572,3.20826 20.65977,12.70342 27.98828,16.06445 16.14968,7.40661 42.06742,13.80532 62.08203,15.32812 8.00043,0.60872 28.28403,1.58334 28.66797,1.68164 0.38394,-0.0983 20.66753,-1.07292 28.66797,-1.68164 20.0146,-1.5228 45.93431,-7.92151 62.08398,-15.32812 7.32851,-3.36103 16.88326,-6.9144 36.06446,-21.47461 11.80898,-10.60059 12.73234,-10.74116 18.78515,-20.78125 6.44252,-11.54174 9.8971,-18.16799 12.64649,-28.59766 0.9693,-3.67701 1.60853,-8.40598 1.9082,-13.38672 0.0999,-1.66024 0.16173,-3.34827 0.18555,-5.03515 0.0119,-0.84345 0.0151,-1.68637 0.008,-2.52539 -0.0291,-3.35609 -0.2127,-6.64694 -0.55273,-9.63672 -0.085,-0.74745 -0.18045,-1.47556 -0.28516,-2.18164 -0.10471,-0.70608 -0.21924,-1.38955 -0.34375,-2.04688 -0.12451,-0.65732 -0.25793,-1.28944 -0.40234,-1.89062 -0.16603,-0.69118 -0.34328,-1.38111 -0.53125,-2.07227 -5.82414,-21.42397 -22.07102,-42.71016 -44.13477,-57.69336 l 0.10156,0.22266 c -1.07759,-0.76781 -2.16516,-1.53017 -3.27734,-2.28125 -24.74059,-14.69566 -49.09843,-22.8282 -73.32422,-25.47852 l -8.25,-0.90234 -0.34766,-21.52539 c -0.19201,-11.83939 -0.0962,-22.1897 0.21485,-23 0.42404,-1.10505 3.36718,-1.02989 11.77148,0.30273 36.93126,5.85603 66.50008,19.6339 88.34766,41.16602 l 11.15625,10.99609 19.61523,-15.73633 c 10.78928,-8.65433 19.61719,-16.30645 19.61719,-17.00585 0,-3.05202 -22.70117,-23.41632 -35.91016,-32.21289 -29.13715,-19.40399 -60.56961,-30.8635 -99.23632,-36.17969 l -15.22852,-2.09375 -0.35547,-16.29102 -0.35742,-16.28906 7.9707,0.83789 c 69.99328,7.36056 123.52204,29.17049 161.73438,65.89844 l 12.97265,12.46875 23.22657,-18.66211 c 12.77452,-10.264 23.38169,-19.05059 23.57031,-19.52539 0.18873,-0.4748 -4.09439,-5.20869 -9.51758,-10.52149 -48.17073,-47.19026 -122.86038,-78.01683 -205.15234,-84.67187 -14.51322,-1.173702 -29.1653,-1.168202 -43.44141,-0.93164 -5.35354,-0.08871 -10.75922,-0.145308 -16.1914,-0.119143 z M 312.6875,334.39453 c 3.41049,0 19.76983,5.30876 26.78125,9.10938 7.42112,4.365 15.08516,9.51663 18.93945,13.5 22.21373,25.10804 14.70473,41.46408 3.52344,58.05273 -12.49709,14.99687 -31.51565,20.78733 -46.89062,24.03906 l -4.12305,0.82618 V 387.1582 c 0,-44.28395 0.28417,-52.76367 1.76953,-52.76367 z" />
  </g>
</svg>
